<svg width="88" height="80" viewBox="0 0 88 80" fill="none" xmlns="http://www.w3.org/2000/svg">
<path d="M43.4849 0.0496197C43.6807 -0.00831465 43.8881 -0.0156475 44.0876 0.0283056C44.2871 0.0722587 44.4721 0.166065 44.6255 0.300956C50.5899 4.09031 56.5639 7.85066 62.5186 11.64C62.6885 11.7243 62.8333 11.8516 62.9384 12.0094C63.0436 12.1672 63.1055 12.3498 63.118 12.539C63.118 13.4477 63.118 14.366 63.118 15.2844H83.9884C84.1305 15.2553 84.2773 15.2586 84.4179 15.294C84.5585 15.3294 84.6894 15.396 84.8008 15.4888C84.9122 15.5817 85.0013 15.6984 85.0614 15.8303C85.1216 15.9623 85.1513 16.106 85.1484 16.251C85.1484 17.933 85.1484 19.615 85.1484 21.2971C85.1484 21.7707 85.2064 22.3411 84.7907 22.6601C84.3751 22.9791 83.5921 22.8631 83.012 22.9017V72.086C84.2107 72.086 85.4094 72.086 86.6081 72.086C86.8644 72.086 87.1103 72.1878 87.2916 72.3691C87.4729 72.5504 87.5747 72.7963 87.5747 73.0526C87.5747 75.044 87.5747 77.0353 87.5747 79.017C87.5693 79.1584 87.5343 79.2971 87.4721 79.4241C87.4099 79.5512 87.3218 79.6639 87.2135 79.7549C87.1052 79.8459 86.979 79.9133 86.8431 79.9527C86.7072 79.9921 86.5646 80.0027 86.4244 79.9837H1.95665C1.42498 79.9837 0.786971 80.0997 0.342302 79.713C-0.102367 79.3264 0.013637 78.9107 0.013637 78.4853C0.013637 76.6777 0.013637 74.87 0.013637 73.0623C0.0128565 72.8188 0.104016 72.5839 0.268897 72.4047C0.433778 72.2255 0.660228 72.1151 0.902973 72.0956C2.13065 72.0956 3.35832 72.0956 4.58599 72.0956V22.8921C4.034 22.952 3.47563 22.9027 2.94265 22.7471C2.76399 22.6271 2.62289 22.4591 2.53565 22.2624C2.44842 22.0657 2.4186 21.8483 2.44965 21.6354C2.44965 19.8857 2.44965 18.136 2.44965 16.3864C2.41803 16.1536 2.47221 15.9174 2.60208 15.7217C2.73194 15.526 2.9286 15.3843 3.15532 15.323C3.68 15.2892 4.20631 15.2892 4.73099 15.323H24.5091C24.5091 14.3564 24.5091 13.496 24.5091 12.5777C24.5122 12.4035 24.5624 12.2333 24.6543 12.0853C24.7462 11.9373 24.8764 11.8168 25.0311 11.7367L42.1799 0.871293C42.5922 0.579436 43.0251 0.317752 43.4752 0.0882875L43.4849 0.0496197ZM42.8179 11.4563V9.523C42.8179 9.26662 42.9197 9.02075 43.101 8.83946C43.2823 8.65818 43.5281 8.55633 43.7845 8.55633C44.0409 8.55633 44.2868 8.65818 44.4681 8.83946C44.6493 9.02075 44.7512 9.26662 44.7512 9.523V11.4563H45.4279C45.6842 11.4563 45.9301 11.5582 46.1114 11.7395C46.2927 11.9208 46.3945 12.1666 46.3945 12.423C46.3945 12.6794 46.2927 12.9253 46.1114 13.1066C45.9301 13.2878 45.6842 13.3897 45.4279 13.3897H42.7405V11.4563H42.8179ZM70.0877 57.2572C71.1686 57.1302 72.2584 57.0946 73.3453 57.1509C74.2191 57.1844 75.0481 57.5465 75.6665 58.1648C76.2848 58.7831 76.6469 59.6121 76.6804 60.4859C76.6804 62.4676 76.6804 64.4493 76.6804 66.4309C76.6804 66.8176 76.6804 67.272 76.4194 67.5813C76.2594 67.7236 76.0695 67.8279 75.8636 67.8865C75.6577 67.9451 75.4412 67.9564 75.2304 67.9196H68.5893C68.4508 67.9407 68.3093 67.9313 68.1747 67.8922C68.0402 67.8532 67.9157 67.7853 67.8099 67.6934C67.7042 67.6014 67.6197 67.4876 67.5623 67.3597C67.5049 67.2319 67.4761 67.0931 67.4776 66.953C67.4776 64.8553 67.4776 62.7479 67.4776 60.6503C67.4735 59.8764 67.7267 59.1232 68.1975 58.509C68.6682 57.8948 69.3297 57.4544 70.078 57.2572H70.0877ZM69.4786 60.6503C69.4786 62.4096 69.4786 64.1689 69.4786 65.9283H74.6987C74.6987 64.1689 74.6987 62.4096 74.6987 60.6599C74.7049 60.3927 74.6391 60.1287 74.5082 59.8957C74.3772 59.6626 74.1859 59.4692 73.9543 59.3356C73.5377 59.1554 73.0808 59.0887 72.63 59.1422C71.992 59.1422 71.354 59.1422 70.6967 59.1422C70.3441 59.1922 70.0225 59.371 69.794 59.6441C69.5655 59.9173 69.4462 60.2654 69.4593 60.6213L69.4786 60.6503ZM13.7114 57.2186C14.7498 57.1315 15.7928 57.1122 16.8337 57.1606C17.7 57.1986 18.5204 57.5604 19.1326 58.1744C19.7448 58.7884 20.1042 59.6099 20.1397 60.4763C20.1397 62.5836 20.1397 64.6909 20.1397 66.7886C20.165 66.9373 20.1552 67.0899 20.111 67.2341C20.0668 67.3783 19.9895 67.5101 19.8852 67.6191C19.7809 67.7281 19.6526 67.8111 19.5105 67.8616C19.3684 67.9121 19.2164 67.9287 19.0667 67.91C16.6791 67.91 14.2914 67.91 11.894 67.91C11.753 67.9118 11.6132 67.8827 11.4845 67.8247C11.3559 67.7668 11.2415 67.6814 11.1494 67.5745C11.0573 67.4677 10.9897 67.3419 10.9513 67.2062C10.9129 67.0704 10.9048 66.9279 10.9274 66.7886C10.9274 64.6813 10.9274 62.5739 10.9274 60.4763C10.9566 59.7035 11.2438 58.9628 11.7431 58.3724C12.2425 57.7819 12.9252 57.3757 13.6824 57.2186H13.7114ZM12.938 60.6503C12.938 62.4096 12.938 64.1689 12.938 65.9283H18.1581C18.1581 64.1689 18.1581 62.4096 18.1581 60.6503C18.167 60.2805 18.0352 59.9211 17.7894 59.6448C17.5436 59.3685 17.202 59.1958 16.8337 59.1616C16.0121 59.1616 15.1904 59.1616 14.3687 59.1616C14.1762 59.1653 13.9863 59.2072 13.81 59.2846C13.6337 59.3621 13.4745 59.4737 13.3415 59.6129C13.2085 59.7522 13.1044 59.9164 13.0351 60.0961C12.9659 60.2758 12.9329 60.4674 12.938 60.6599V60.6503ZM70.0877 42.2062C71.1035 42.0755 72.1291 42.0367 73.152 42.0902C73.831 42.0817 74.4978 42.2709 75.0711 42.6348C75.6443 42.9987 76.0994 43.5215 76.3807 44.1395C76.6665 44.8841 76.7725 45.6856 76.69 46.4789C76.69 48.2962 76.69 50.1039 76.69 51.9115C76.6908 52.048 76.6628 52.183 76.6077 52.3078C76.5526 52.4326 76.4717 52.5443 76.3704 52.6356C76.269 52.7269 76.1495 52.7957 76.0197 52.8376C75.8898 52.8794 75.7526 52.8932 75.617 52.8782H68.6376C68.4977 52.9024 68.3541 52.8954 68.2171 52.8578C68.0801 52.8201 67.9531 52.7528 67.8451 52.6605C67.7372 52.5682 67.6508 52.4532 67.5923 52.3238C67.5338 52.1943 67.5046 52.0536 67.5066 51.9115C67.5066 49.8139 67.5066 47.7162 67.5066 45.6185C67.4987 44.8426 67.7503 44.0863 68.2214 43.4698C68.6926 42.8533 69.3562 42.4119 70.107 42.2158L70.0877 42.2062ZM69.4786 45.6088C69.4786 47.3682 69.4786 49.1179 69.4786 50.8675H74.6987C74.6987 49.1082 74.6987 47.3489 74.6987 45.5895C74.7073 45.2141 74.5718 44.8497 74.3201 44.5711C74.0684 44.2924 73.7196 44.1207 73.3453 44.0912C72.5237 44.0912 71.702 44.0912 70.8803 44.0912C70.4948 44.1087 70.1319 44.2783 69.8711 44.5627C69.6102 44.8471 69.4726 45.2232 69.4883 45.6088H69.4786ZM52.7456 42.1965C53.7071 42.0735 54.678 42.0411 55.6456 42.0998C56.4364 42.1343 57.1864 42.4607 57.7506 43.016C58.3148 43.5713 58.6532 44.316 58.7003 45.1062C58.7003 47.3199 58.7003 49.5432 58.7003 51.7569C58.7182 51.894 58.7066 52.0333 58.6661 52.1655C58.6257 52.2977 58.5573 52.4197 58.4657 52.5232C58.3741 52.6267 58.2613 52.7094 58.135 52.7657C58.0087 52.8219 57.8718 52.8504 57.7336 52.8492C55.6359 52.8492 53.5382 52.8492 51.4406 52.8492C51.302 52.8702 51.1606 52.8609 51.026 52.8218C50.8914 52.7828 50.7669 52.7149 50.6612 52.6229C50.5554 52.531 50.471 52.4171 50.4136 52.2893C50.3562 52.1615 50.3273 52.0227 50.3289 51.8825C50.3289 49.6689 50.3289 47.4552 50.3289 45.2415C50.3379 44.5362 50.5783 43.8533 51.0132 43.2979C51.448 42.7425 52.0533 42.3454 52.7359 42.1675L52.7456 42.1965ZM52.7456 44.4102C52.5931 44.5687 52.479 44.76 52.412 44.9695C52.345 45.1789 52.3268 45.401 52.3589 45.6185V50.8675H56.7669V45.4348C56.7948 45.1353 56.7118 44.836 56.5336 44.5937C56.3554 44.3513 56.0945 44.1828 55.8002 44.1202C55.2367 44.0911 54.6721 44.0911 54.1086 44.1202C53.871 44.0803 53.6277 44.0889 53.3935 44.1454C53.1593 44.2018 52.9389 44.3051 52.7456 44.4488V44.4102ZM41.9382 42.2255C42.9547 42.066 43.9865 42.027 45.0122 42.1095C45.8219 42.156 46.5838 42.5083 47.1437 43.0951C47.7036 43.6819 48.0197 44.4595 48.0282 45.2705C48.0282 47.4262 48.0282 49.5915 48.0282 51.7472C48.0413 51.8969 48.0216 52.0477 47.9705 52.189C47.9195 52.3304 47.8382 52.4589 47.7324 52.5656C47.6265 52.6724 47.4987 52.7547 47.3579 52.8071C47.217 52.8594 47.0664 52.8804 46.9165 52.8686C44.8285 52.8686 42.7405 52.8686 40.6428 52.8686C40.5027 52.8701 40.3639 52.8412 40.2361 52.7839C40.1082 52.7265 39.9944 52.642 39.9024 52.5363C39.8105 52.4305 39.7426 52.306 39.7036 52.1715C39.6645 52.0369 39.6551 51.8954 39.6762 51.7569C39.6762 49.5915 39.6762 47.4262 39.6762 45.2512C39.6902 44.5708 39.9195 43.9125 40.3312 43.3706C40.7428 42.8287 41.3155 42.4312 41.9672 42.2352L41.9382 42.2255ZM42.0348 44.3908C41.8798 44.5522 41.7629 44.7462 41.6926 44.9586C41.6223 45.1711 41.6006 45.3966 41.6288 45.6185C41.6288 47.3682 41.6288 49.1179 41.6288 50.8675H46.0272C46.0272 49.1179 46.0272 47.3585 46.0272 45.6088C46.056 45.3966 46.0371 45.1806 45.9719 44.9766C45.9067 44.7726 45.7968 44.5857 45.6502 44.4295C45.1475 43.9268 44.3935 44.1202 43.7169 44.0815C43.0402 44.0428 42.4409 43.9558 41.9672 44.3908H42.0348ZM31.2565 42.2158C32.2738 42.0643 33.3051 42.0286 34.3305 42.1095C35.13 42.1676 35.8785 42.5236 36.4281 43.1072C36.9777 43.6907 37.2882 44.4593 37.2982 45.2608C37.2982 47.4165 37.2982 49.5819 37.2982 51.7375C37.3225 51.8836 37.313 52.0332 37.2703 52.175C37.2277 52.3167 37.153 52.4468 37.0521 52.5552C36.9513 52.6635 36.8268 52.7472 36.6885 52.7999C36.5501 52.8526 36.4015 52.8727 36.2542 52.8589H29.9515C29.805 52.8724 29.6574 52.8523 29.5199 52.8002C29.3824 52.7481 29.2586 52.6653 29.1579 52.5581C29.0572 52.4509 28.9823 52.3221 28.9389 52.1816C28.8955 52.0411 28.8848 51.8925 28.9074 51.7472C28.9074 49.5819 28.9074 47.4165 28.9074 45.2512C28.9184 44.5622 29.1509 43.895 29.5705 43.3484C29.99 42.8017 30.5744 42.4046 31.2371 42.2158H31.2565ZM30.9181 45.2608C30.9181 47.1265 30.9181 49.0019 30.9181 50.8772H35.3261V45.4155C35.3516 45.1176 35.2674 44.8206 35.0894 44.5803C34.9114 44.3401 34.6519 44.173 34.3595 44.1105C33.6029 44.067 32.8444 44.067 32.0878 44.1105C31.7859 44.1227 31.4999 44.2494 31.288 44.4649C31.0761 44.6804 30.9542 44.9684 30.9471 45.2705L30.9181 45.2608ZM13.7307 42.1675C14.6945 42.0759 15.6634 42.0501 16.6307 42.0902C17.3257 42.0827 18.0072 42.2817 18.5889 42.662C19.1706 43.0424 19.6262 43.5869 19.8981 44.2265C20.1312 44.943 20.2167 45.6994 20.1494 46.4499C20.1494 48.2672 20.1494 50.0845 20.1494 51.9019C20.1497 52.0347 20.1227 52.1662 20.0699 52.2881C20.0172 52.4101 19.9398 52.5198 19.8428 52.6105C19.7457 52.7012 19.631 52.7709 19.5058 52.8153C19.3806 52.8597 19.2476 52.8779 19.1151 52.8686C16.7854 52.8686 14.4557 52.8686 12.126 52.8686C11.9861 52.886 11.844 52.8744 11.7087 52.8344C11.5735 52.7945 11.4479 52.727 11.3399 52.6362C11.2319 52.5455 11.1438 52.4334 11.0812 52.3071C11.0185 52.1807 10.9826 52.0428 10.9757 51.9019C10.9757 49.7365 10.9757 47.5615 10.9757 45.4058C11.0045 44.6319 11.2913 43.8898 11.7906 43.2978C12.2898 42.7057 12.9728 42.2976 13.7307 42.1385V42.1675ZM12.9574 45.6088C12.9574 47.3682 12.9574 49.1179 12.9574 50.8675H18.1774C18.1774 49.1179 18.1774 47.3585 18.1774 45.5992C18.1845 45.2305 18.0536 44.8724 17.8104 44.5953C17.5672 44.3181 17.2292 44.1417 16.8627 44.1008C16.0411 44.1008 15.2194 44.1008 14.3977 44.1008C14.2031 44.1046 14.0111 44.1469 13.833 44.2255C13.6549 44.3041 13.4941 44.4172 13.3601 44.5584C13.2261 44.6996 13.1215 44.8661 13.0524 45.0481C12.9832 45.23 12.9509 45.4239 12.9574 45.6185V45.6088ZM70.0877 27.1551C71.1715 27.023 72.2649 26.9874 73.355 27.0488C74.2337 27.0801 75.0678 27.4439 75.6886 28.0665C76.3095 28.6892 76.6709 29.5243 76.6997 30.4031C76.6997 32.3364 76.6997 34.3665 76.6997 36.3481C76.7614 36.7535 76.6607 37.1669 76.4194 37.4985C76.258 37.6313 76.0703 37.7283 75.8687 37.7833C75.6671 37.8383 75.4561 37.85 75.2497 37.8175C72.9877 37.8175 70.716 37.8175 68.483 37.8175C68.3429 37.8191 68.2041 37.7902 68.0762 37.7328C67.9484 37.6754 67.8345 37.5909 67.7426 37.4852C67.6506 37.3794 67.5828 37.255 67.5437 37.1204C67.5046 36.9858 67.4953 36.8443 67.5163 36.7058C67.5163 34.6081 67.5163 32.5104 67.5163 30.4128C67.5392 29.6681 67.8019 28.9508 68.2651 28.3673C68.7284 27.7839 69.3676 27.3655 70.0877 27.1744V27.1551ZM69.5076 30.5578C69.5076 32.3074 69.5076 34.0668 69.5076 35.8261H74.7277C74.7277 34.0668 74.7277 32.3074 74.7277 30.5481C74.7364 30.1743 74.6023 29.8112 74.3526 29.5328C74.103 29.2544 73.7566 29.0816 73.384 29.0498C72.5623 29.0498 71.7407 29.0498 70.919 29.0498C70.5326 29.0674 70.1688 29.2366 69.9064 29.5207C69.644 29.8048 69.5042 30.1809 69.5173 30.5674L69.5076 30.5578ZM52.9002 27.1068C53.8194 27.0244 54.7431 27.005 55.6649 27.0488C56.0962 27.0756 56.5177 27.1882 56.9049 27.38C57.2921 27.5717 57.6371 27.8388 57.9198 28.1656C58.2024 28.4924 58.4171 28.8723 58.5511 29.283C58.6851 29.6938 58.7358 30.1272 58.7003 30.5578V36.4931C58.7177 36.6661 58.7002 36.8409 58.6487 37.0069C58.5973 37.173 58.5129 37.327 58.4006 37.4598C58.0913 37.7885 57.6079 37.7401 57.2019 37.7498C55.2686 37.7498 53.3352 37.7498 51.4019 37.7498C51.2633 37.7708 51.1219 37.7615 50.9873 37.7224C50.8527 37.6833 50.7283 37.6155 50.6225 37.5235C50.5168 37.4316 50.4323 37.3177 50.3749 37.1899C50.3175 37.0621 50.2886 36.9233 50.2902 36.7831C50.2902 34.8498 50.2902 32.9165 50.2902 30.9831C50.2398 30.3317 50.3086 29.6765 50.4932 29.0498C50.6982 28.5493 51.0264 28.1088 51.4472 27.7691C51.868 27.4294 52.3678 27.2016 52.9002 27.1068V27.1068ZM52.3492 30.2001C52.3492 32.0754 52.3492 33.9508 52.3492 35.8261H56.7669C56.7669 33.9508 56.7669 32.0754 56.7669 30.2098C56.7631 29.9164 56.65 29.635 56.4498 29.4205C56.2497 29.206 55.9767 29.0738 55.6842 29.0498C54.9342 29.0014 54.1819 29.0014 53.4319 29.0498C53.1471 29.0823 52.8837 29.2166 52.6901 29.428C52.4964 29.6394 52.3857 29.9136 52.3782 30.2001H52.3492ZM41.9188 27.1744C42.878 27.0261 43.8505 26.9839 44.8189 27.0488C45.6308 27.0497 46.4118 27.3602 47.0027 27.917C47.5936 28.4738 47.95 29.235 47.9992 30.0454C47.9992 32.2591 47.9992 34.4728 47.9992 36.6865C48.0253 36.837 48.0153 36.9915 47.9701 37.1374C47.9248 37.2833 47.8457 37.4164 47.7391 37.5258C47.6326 37.6352 47.5016 37.7178 47.3569 37.7669C47.2122 37.8159 47.058 37.8299 46.9069 37.8078C44.8092 37.8078 42.7115 37.8078 40.6138 37.8078C40.4765 37.8088 40.3406 37.7805 40.215 37.7249C40.0895 37.6692 39.9772 37.5874 39.8858 37.485C39.7943 37.3825 39.7257 37.2618 39.6846 37.1308C39.6434 36.9998 39.6307 36.8615 39.6472 36.7251C39.6472 34.5598 39.6472 32.3848 39.6472 30.2194C39.6572 29.5358 39.8846 28.873 40.2965 28.3273C40.7084 27.7815 41.2834 27.3811 41.9382 27.1841L41.9188 27.1744ZM41.6288 30.2194C41.6288 32.0851 41.6288 33.9605 41.6288 35.8261H46.0272C46.0272 33.9508 46.0272 32.0851 46.0272 30.2098C46.0221 29.8978 45.8946 29.6003 45.6722 29.3815C45.4497 29.1627 45.1502 29.0401 44.8382 29.0401C44.1331 29.0014 43.4263 29.0014 42.7212 29.0401C42.4288 29.0666 42.1569 29.2011 41.9585 29.4174C41.76 29.6337 41.6494 29.9162 41.6482 30.2098L41.6288 30.2194ZM31.2371 27.1648C32.1971 27.0254 33.1691 26.9865 34.1371 27.0488C34.9649 27.0686 35.753 27.4075 36.3366 27.9948C36.9203 28.5821 37.2544 29.3722 37.2692 30.2001C37.2692 32.3751 37.2692 34.5405 37.2692 36.6961C37.283 36.8398 37.266 36.9848 37.2194 37.1213C37.1727 37.2579 37.0975 37.383 36.9987 37.4882C36.8999 37.5934 36.7798 37.6763 36.6464 37.7315C36.513 37.7866 36.3694 37.8126 36.2252 37.8078C34.1275 37.8078 32.0201 37.8078 29.9225 37.8078C29.7782 37.8126 29.6346 37.7866 29.5012 37.7315C29.3678 37.6763 29.2477 37.5934 29.1489 37.4882C29.0501 37.383 28.9749 37.2579 28.9282 37.1213C28.8816 36.9848 28.8646 36.8398 28.8784 36.6961C28.8784 34.5308 28.8784 32.3687 28.8784 30.2098C28.8904 29.5199 29.1231 28.852 29.5424 28.304C29.9616 27.756 30.5454 27.3568 31.2081 27.1648H31.2371ZM30.8891 30.3741C30.8891 32.1818 30.8891 33.9991 30.8891 35.8165C32.3585 35.8165 33.7891 35.8165 35.2971 35.8165C35.2971 33.9991 35.2971 32.1818 35.2971 30.3644C35.3103 30.2024 35.2912 30.0393 35.2408 29.8847C35.1904 29.73 35.1098 29.587 35.0037 29.4638C34.8976 29.3406 34.768 29.2397 34.6226 29.1669C34.4772 29.0942 34.3187 29.0511 34.1565 29.0401C33.4508 29.0401 32.7355 29.0401 32.0298 29.0401C31.8679 29.051 31.7099 29.0942 31.5649 29.167C31.42 29.2399 31.291 29.341 31.1857 29.4643C31.0803 29.5877 31.0007 29.7309 30.9514 29.8854C30.9022 30.04 30.8843 30.2029 30.8988 30.3644L30.8891 30.3741ZM13.7114 27.1164C14.7434 27.031 15.7796 27.0084 16.8144 27.0488C17.6865 27.0846 18.5131 27.4477 19.1294 28.0658C19.7457 28.6839 20.1064 29.5116 20.1397 30.3838C20.1397 32.3171 20.1397 34.3471 20.1397 36.3385C20.1928 36.7303 20.1036 37.1281 19.8884 37.4598C19.5694 37.8368 19.0184 37.7691 18.5737 37.7885C16.36 37.7885 14.1464 37.7885 11.9327 37.7885C11.6763 37.7885 11.4304 37.6866 11.2492 37.5053C11.0679 37.3241 10.966 37.0782 10.966 36.8218C10.966 35.0238 10.966 33.2355 10.966 31.4278C10.9153 30.7797 10.9642 30.1277 11.111 29.4944C11.2927 28.902 11.6297 28.369 12.0869 27.9508C12.5442 27.5327 13.1051 27.2445 13.7114 27.1164ZM12.938 30.5578C12.938 32.3171 12.938 34.0668 12.938 35.8261H18.1581C18.1581 34.0765 18.1581 32.3171 18.1581 30.5674C18.1699 30.194 18.0399 29.8299 17.7942 29.5483C17.5485 29.2668 17.2054 29.0887 16.8337 29.0498C16.0121 29.0498 15.1807 29.0498 14.359 29.0498C13.9701 29.0649 13.6029 29.2327 13.3369 29.5168C13.0709 29.8009 12.9276 30.1784 12.938 30.5674V30.5578ZM42.2668 5.99465C43.8363 5.62121 45.488 5.83355 46.912 6.5918C48.3359 7.35004 49.4341 8.60204 50.0002 10.1127C50.457 11.3202 50.5519 12.6347 50.2733 13.8953C49.9947 15.1559 49.3547 16.308 48.4316 17.2106C47.5085 18.1132 46.3423 18.7272 45.0757 18.9774C43.8092 19.2276 42.4971 19.1032 41.3002 18.6194C39.9918 18.0918 38.8854 17.1613 38.1413 15.9627C37.3973 14.7642 37.0542 13.3598 37.1619 11.9531C37.2696 10.5465 37.8225 9.21072 38.7403 8.13939C39.6582 7.06806 40.8934 6.31685 42.2668 5.99465V5.99465ZM42.6342 7.92799C41.7171 8.17016 40.8963 8.68758 40.2822 9.41054C39.6682 10.1335 39.2905 11.0273 39.2 11.9715C39.1095 12.9157 39.3105 13.8649 39.776 14.6914C40.2415 15.5178 40.9491 16.1817 41.8035 16.5937C42.6579 17.0057 43.618 17.146 44.5545 16.9956C45.491 16.8452 46.359 16.4114 47.0414 15.7526C47.7238 15.0939 48.188 14.2418 48.3714 13.3112C48.5547 12.3805 48.4484 11.4161 48.0669 10.5477C47.6142 9.54521 46.8214 8.73523 45.8289 8.26109C44.8364 7.78695 43.7081 7.67923 42.6438 7.95699L42.6342 7.92799ZM26.5004 13.1287C26.5004 15.7194 26.5004 18.31 26.5004 20.8621C38.0425 20.8621 49.5878 20.8621 61.1363 20.8621C61.1363 18.2714 61.1363 15.6807 61.1363 13.1287L43.8232 2.15696L26.5004 13.1287ZM4.45066 17.266C4.45066 18.484 4.45066 19.6924 4.45066 20.9007C11.14 20.9007 17.8262 20.9007 24.5091 20.9007V17.266H4.45066ZM63.1276 17.266V20.9007C69.817 20.9007 76.5063 20.9007 83.1957 20.9007C83.1957 19.6924 83.1957 18.4937 83.1957 17.2854L63.1276 17.266ZM6.587 22.8921V72.0763H24.5091V22.8921H6.587ZM26.5004 22.8921V72.0763H35.2005V59.4226C35.1667 58.9076 35.1667 58.3909 35.2005 57.8759C35.2553 57.6632 35.3809 57.4755 35.5566 57.3438C35.7323 57.212 35.9476 57.144 36.1672 57.1509H50.3579C50.813 57.1314 51.269 57.1508 51.7209 57.2089C51.9264 57.271 52.1054 57.3996 52.2297 57.5747C52.3539 57.7497 52.4164 57.9611 52.4072 58.1756C52.4072 62.7963 52.4072 67.4266 52.4072 72.0473H61.1073V22.8921H26.5004ZM63.1276 22.8921V72.0763H81.0497V22.8921H63.1276ZM37.1628 59.1422V72.0763C39.0962 72.0763 40.9425 72.0763 42.8372 72.0763C42.8372 67.765 42.8372 63.4633 42.8372 59.1519L37.1628 59.1422ZM44.8189 59.1422C44.8189 63.4536 44.8189 67.765 44.8189 72.0763H50.4739C50.4739 67.765 50.4739 63.4633 50.4739 59.1519C48.5405 59.1519 46.6942 59.1519 44.8092 59.1519L44.8189 59.1422ZM2.00498 78.002H85.6317V74.058H2.01465C2.01465 75.3727 2.01465 76.6873 2.01465 78.002H2.00498Z" fill="#fff"/>
</svg>
