<svg width="90" height="80" viewBox="0 0 90 80" fill="none" xmlns="http://www.w3.org/2000/svg">
<path d="M43.7541 0.0361399C45.8589 -0.105644 47.971 0.170659 49.9685 0.84912C51.966 1.52758 53.8094 2.59478 55.3924 3.98916C55.526 4.12794 55.6274 4.29436 55.6895 4.47667C55.7516 4.65897 55.7728 4.85269 55.7518 5.04412C55.7307 5.23555 55.6678 5.42002 55.5676 5.58447C55.4674 5.74892 55.3322 5.88933 55.1717 5.99577C54.9161 6.14807 54.6173 6.21191 54.3217 6.17746C54.0261 6.143 53.7501 6.01216 53.5363 5.80514C51.1748 3.79293 48.1904 2.65872 45.0885 2.59457C42.7016 2.54393 40.3451 3.13652 38.266 4.31021C35.9792 5.59461 34.1194 7.52173 32.9171 9.8528C31.7148 12.1839 31.2228 14.8165 31.502 17.4244C31.7813 20.0324 32.8196 22.5011 34.4882 24.5247C36.1568 26.5484 38.3825 28.038 40.8895 28.809C43.3965 29.5801 46.0746 29.5987 48.592 28.8626C51.1095 28.1265 53.3556 26.6679 55.0522 24.6677C56.7488 22.6674 57.8213 20.2134 58.1368 17.6096C58.4523 15.0057 57.997 12.3666 56.8272 10.019C56.6656 9.74384 56.6071 9.42016 56.6623 9.10585C56.7174 8.79154 56.8825 8.5071 57.1282 8.30337C57.2752 8.18583 57.446 8.10153 57.6287 8.05625C57.8115 8.01097 58.0019 8.00578 58.1868 8.04105C58.3717 8.07632 58.5468 8.15121 58.7001 8.26057C58.8533 8.36993 58.9811 8.51117 59.0746 8.67459C60.6463 11.7629 61.1765 15.2768 60.5859 18.6914C59.9953 22.1059 58.3158 25.2376 55.7981 27.6187C53.2805 29.9997 50.06 31.5021 46.6179 31.9015C43.1757 32.3008 39.6968 31.5756 36.7009 29.8343C34.3491 28.4434 32.3913 26.4752 31.0127 24.1161C29.6342 21.7571 28.8806 19.0852 28.8234 16.3535C28.7661 13.6218 29.407 10.9207 30.6855 8.50591C31.9639 6.09115 33.8376 4.04267 36.129 2.55443C38.4148 1.07935 41.0394 0.21253 43.7541 0.0361399V0.0361399Z" fill="#fff"/>
<path d="M49.5432 8.08266C49.7035 7.92127 49.8942 7.7932 50.1043 7.7058C50.3144 7.61841 50.5397 7.57341 50.7672 7.57341C50.9947 7.57341 51.22 7.61841 51.4301 7.7058C51.6401 7.7932 51.8308 7.92127 51.9912 8.08266C52.9945 9.08596 54.0982 10.1695 55.1316 11.233C55.2911 11.4029 55.4151 11.603 55.4961 11.8215C55.5771 12.04 55.6136 12.2726 55.6033 12.5054C55.593 12.7382 55.5362 12.9667 55.4362 13.1772C55.3363 13.3877 55.1951 13.5761 55.0212 13.7312C51.7203 17.0221 48.4395 20.333 45.1286 23.6138C44.3648 24.3212 43.3559 24.7041 42.3151 24.6816C41.2742 24.6592 40.2828 24.2331 39.5502 23.4934L34.3933 18.3364C34.227 18.1747 34.0949 17.9812 34.0046 17.7676C33.9144 17.5539 33.8679 17.3243 33.8679 17.0923C33.8679 16.8604 33.9144 16.6308 34.0046 16.4171C34.0949 16.2034 34.227 16.01 34.3933 15.8482C35.4166 14.8182 36.4433 13.7915 37.4734 12.7681C37.7816 12.4455 38.2033 12.2557 38.649 12.2389C39.0948 12.222 39.5296 12.3794 39.8613 12.6778C40.7341 13.5005 41.5569 14.3633 42.4097 15.2061C44.7875 12.8383 47.1653 10.4906 49.5432 8.08266ZM43.6939 17.6341C43.3856 17.9672 42.9596 18.1672 42.5063 18.1915C42.0531 18.2159 41.6081 18.0627 41.2659 17.7645C40.393 16.9418 39.5703 16.069 38.7075 15.2262L36.8514 17.0823L41.5067 21.7276C41.7526 21.9702 42.0842 22.1063 42.4297 22.1063C42.7752 22.1063 43.1068 21.9702 43.3528 21.7276C46.4563 18.6508 49.5432 15.564 52.6133 12.4671L50.7672 10.611C48.3994 12.9085 46.0517 15.2763 43.6939 17.6341Z" fill="#fff"/>
<path d="M7.48465 18.1457C8.6479 17.6738 9.90562 17.4814 11.1567 17.5838C15.7719 17.5838 20.3771 17.5838 24.9823 17.5838C25.3282 17.5838 25.6599 17.7212 25.9046 17.9658C26.1492 18.2104 26.2866 18.5422 26.2866 18.8881C26.2866 19.234 26.1492 19.5658 25.9046 19.8104C25.6599 20.055 25.3282 20.1924 24.9823 20.1924H12.0497C11.2309 20.1472 10.4103 20.1472 9.59159 20.1924C8.78181 20.3055 8.02719 20.6674 7.43221 21.2283C6.83723 21.7891 6.43132 22.521 6.27065 23.3227C6.18363 24.0786 6.15679 24.8401 6.19038 25.6002V69.7456C8.19699 69.7456 10.2036 69.7456 12.2102 69.7456C12.5413 69.7584 12.8548 69.8977 13.0862 70.1347C13.3177 70.3718 13.4494 70.6885 13.4543 71.0198C13.4704 71.2102 13.4454 71.4018 13.3811 71.5816C13.3168 71.7615 13.2146 71.9255 13.0814 72.0624C12.9482 72.1994 12.7872 72.3062 12.6092 72.3756C12.4312 72.4449 12.2404 72.4753 12.0497 72.4646H2.59856C2.51268 73.3362 2.60136 74.2161 2.85942 75.0531C3.09894 75.6435 3.48562 76.1628 3.98263 76.5614C4.47965 76.9601 5.07044 77.2249 5.69876 77.3306C6.41248 77.3957 7.12959 77.4158 7.84584 77.3908H83.0334C83.7513 77.4127 84.4603 77.2276 85.0759 76.8576C85.6914 76.4875 86.1875 75.9482 86.5049 75.3039C86.8536 74.4042 86.9809 73.4338 86.8761 72.4746H18.8621C18.1197 72.4746 17.1766 72.6251 16.6849 71.9127C16.5483 71.7133 16.4693 71.48 16.4567 71.2385C16.4441 70.997 16.4984 70.7568 16.6135 70.5442C16.7286 70.3315 16.9002 70.1548 17.1093 70.0334C17.3184 69.9119 17.5569 69.8506 17.7986 69.856C39.6305 69.856 61.4624 69.856 83.2943 69.856V37.9007C83.2656 37.7122 83.278 37.5196 83.3307 37.3363C83.3833 37.1529 83.4749 36.9831 83.5992 36.8384C83.7236 36.6938 83.8777 36.5777 84.051 36.4981C84.2244 36.4185 84.4129 36.3773 84.6036 36.3773C84.7944 36.3773 84.9829 36.4185 85.1562 36.4981C85.3296 36.5777 85.4837 36.6938 85.608 36.8384C85.7323 36.9831 85.824 37.1529 85.8766 37.3363C85.9292 37.5196 85.9416 37.7122 85.9129 37.9007V69.856C86.6924 69.8224 87.4733 69.8392 88.2506 69.9061C88.5651 69.9892 88.8497 70.1595 89.0716 70.3974C89.2935 70.6353 89.4437 70.931 89.5048 71.2506V74.1401C89.3619 75.6544 88.6989 77.0725 87.6286 78.1533C87.0248 78.7496 86.3086 79.2198 85.5214 79.5368C84.7343 79.8537 83.8919 80.0109 83.0435 79.9994H6.44121C5.14428 80.0117 3.87422 79.6297 2.79921 78.9041C1.72421 78.1785 0.894991 77.1434 0.421386 75.936C0.215172 75.365 0.0738226 74.7727 0 74.1702V71.3408C0.0353638 71.0008 0.173295 70.6796 0.395494 70.4197C0.617694 70.1599 0.913653 69.9738 1.24409 69.8861C2.0248 69.8192 2.80898 69.8024 3.59183 69.8359C3.59183 54.5723 3.59183 39.3154 3.59183 24.0652C3.60985 22.8103 3.98576 21.5866 4.67535 20.538C5.36495 19.4894 6.33957 18.6594 7.48465 18.1457V18.1457Z" fill="#fff"/>
<path d="M64.0409 17.7143C64.2967 17.6165 64.5699 17.5721 64.8435 17.5839H77.9567C79.0167 17.5168 80.0809 17.6012 81.1171 17.8347C82.124 18.1206 83.0485 18.6417 83.8143 19.3552C84.5801 20.0687 85.1653 20.9541 85.5216 21.9382C85.8213 22.7981 85.9542 23.7073 85.9129 24.617C85.9129 27.0049 85.9129 29.3928 85.9129 31.7806C85.9406 32.0078 85.9191 32.2383 85.8498 32.4564C85.7806 32.6745 85.6652 32.8752 85.5116 33.0448C85.3833 33.1707 85.2305 33.269 85.0627 33.3335C84.8949 33.398 84.7156 33.4274 84.536 33.4199C84.3564 33.4123 84.1803 33.368 84.0184 33.2897C83.8566 33.2114 83.7126 33.1007 83.5953 32.9645C83.3451 32.6234 83.2307 32.2014 83.2742 31.7806C83.2742 29.2189 83.2742 26.6604 83.2742 24.1054C83.2645 23.3558 83.0414 22.6245 82.6309 21.9972C82.2204 21.3699 81.6396 20.8726 80.9566 20.5637C80.1661 20.2531 79.3145 20.1295 78.4684 20.2025H64.8234C64.5744 20.2319 64.3219 20.1955 64.0913 20.0969C63.8607 19.9983 63.66 19.841 63.5091 19.6407C63.4044 19.4828 63.3348 19.3043 63.305 19.1173C63.2752 18.9302 63.2859 18.739 63.3363 18.5564C63.3867 18.3738 63.4756 18.2042 63.5972 18.0589C63.7187 17.9136 63.87 17.7961 64.0409 17.7143V17.7143Z" fill="#fff"/>
<path d="M8.80904 24.2659C8.79621 24.0703 8.82634 23.8742 8.89729 23.6914C8.96825 23.5086 9.07833 23.3436 9.2198 23.2079C9.36128 23.0721 9.53072 22.969 9.71627 22.9056C9.90182 22.8423 10.099 22.8203 10.2939 22.8412C15.7118 22.8412 21.1396 22.8412 26.5675 22.8412C26.7627 22.8411 26.9554 22.8849 27.1314 22.9692C27.3075 23.0535 27.4624 23.1762 27.5846 23.3284C27.7069 23.4805 27.7935 23.6581 27.838 23.8482C27.8825 24.0382 27.8838 24.2358 27.8417 24.4264C27.7593 24.742 27.5657 25.0173 27.2966 25.2016C27.0275 25.3859 26.7009 25.4669 26.3769 25.4297C21.3604 25.4297 16.4141 25.4297 11.4277 25.4297V64.5586H78.037V25.4297C73.0205 25.4297 68.0642 25.4297 63.0778 25.4297C62.871 25.4269 62.6677 25.3758 62.4843 25.2803C62.3009 25.1848 62.1424 25.0477 62.0214 24.88C61.9005 24.7122 61.8205 24.5185 61.7879 24.3143C61.7553 24.1101 61.771 23.9011 61.8337 23.7041C61.9377 23.4157 62.1359 23.1708 62.3962 23.0088C62.6564 22.8468 62.9637 22.7771 63.2684 22.8111H79.1908C79.4035 22.7916 79.6178 22.8223 79.8164 22.9007C80.0151 22.9791 80.1926 23.1031 80.3346 23.2626C80.756 23.7141 80.6456 24.3662 80.6657 24.9281C80.6657 38.5128 80.6657 52.0976 80.6657 65.6823C80.7072 66.007 80.628 66.3357 80.443 66.6058C80.258 66.8759 79.9802 67.0685 79.6624 67.1471C79.1043 67.1773 78.545 67.1773 77.9869 67.1471H11.1668C10.5046 67.1471 9.69195 67.2976 9.16019 66.7458C8.62844 66.194 8.799 65.5418 8.77894 64.9399C8.80569 51.3819 8.81572 37.8239 8.80904 24.2659Z" fill="#fff"/>
<path d="M22.0827 31.6603C23.8451 31.3051 25.6751 31.5298 27.2992 32.3009C28.9233 33.0719 30.2543 34.3478 31.0931 35.9379C31.932 37.528 32.2338 39.3469 31.9533 41.1227C31.6728 42.8985 30.8252 44.5359 29.5371 45.7901C28.249 47.0442 26.5896 47.8478 24.8069 48.0808C23.0242 48.3138 21.214 47.9635 19.6469 47.0825C18.0797 46.2014 16.8398 44.8369 16.1124 43.1928C15.3851 41.5487 15.2093 39.7133 15.6114 37.961C15.9709 36.4002 16.7723 34.9758 17.92 33.8585C19.0676 32.7411 20.5128 31.9779 22.0827 31.6603ZM23.086 34.1485C21.9478 34.2614 20.8698 34.7137 19.9918 35.4466C19.1137 36.1795 18.476 37.1592 18.1613 38.2589C17.8467 39.3585 17.8696 40.5273 18.2271 41.6137C18.5846 42.7002 19.2602 43.6542 20.1663 44.3521C21.0724 45.0501 22.1673 45.4597 23.309 45.528C24.4507 45.5963 25.5867 45.32 26.5695 44.7351C27.5524 44.1501 28.3369 43.2834 28.8213 42.2473C29.3057 41.2112 29.4678 40.0535 29.2864 38.9242C29.0491 37.4913 28.2773 36.2017 27.1266 35.3154C25.9759 34.4292 24.532 34.0121 23.086 34.1485V34.1485Z" fill="#fff"/>
<path d="M37.1323 36.4258C37.9275 36.3757 38.725 36.3757 39.5202 36.4258C39.845 36.4544 40.1474 36.6037 40.3677 36.8442C40.588 37.0847 40.7102 37.399 40.7102 37.7251C40.7102 38.0513 40.588 38.3655 40.3677 38.6061C40.1474 38.8466 39.845 38.9958 39.5202 39.0244C38.7582 39.0645 37.9946 39.0645 37.2326 39.0244C36.9279 38.9839 36.6474 38.837 36.4404 38.6098C36.2334 38.3826 36.1133 38.0895 36.1013 37.7824C36.0893 37.4753 36.1862 37.1737 36.3748 36.9311C36.5634 36.6884 36.8317 36.5201 37.1323 36.4559V36.4258Z" fill="#fff"/>
<path d="M44.4664 36.4261C45.0211 36.396 45.5771 36.396 46.1319 36.4261H70.1008C70.6756 36.3961 71.2516 36.3961 71.8265 36.4261C72.1697 36.4713 72.481 36.651 72.6917 36.9257C72.9024 37.2004 72.9954 37.5476 72.9502 37.8909C72.9049 38.2341 72.7252 38.5454 72.4505 38.7561C72.1758 38.9668 71.8286 39.0598 71.4854 39.0146C62.6295 39.0146 53.7704 39.0146 44.9078 39.0146C44.5959 39.043 44.2836 38.964 44.0227 38.7906C43.7617 38.6173 43.5679 38.36 43.4731 38.0614C43.4254 37.8887 43.4135 37.708 43.4382 37.5305C43.4629 37.353 43.5236 37.1825 43.6167 37.0293C43.7097 36.8761 43.8331 36.7436 43.9792 36.6399C44.1253 36.5361 44.2911 36.4634 44.4664 36.4261V36.4261Z" fill="#fff"/>
<path d="M36.7711 41.9943C37.2541 41.8433 37.7627 41.7921 38.266 41.8438C49.3024 41.8438 60.409 41.8438 71.4854 41.8438C71.8314 41.8438 72.1631 41.9812 72.4077 42.2258C72.6523 42.4704 72.7897 42.8022 72.7897 43.1481C72.7897 43.494 72.6523 43.8257 72.4077 44.0703C72.1631 44.3149 71.8314 44.4524 71.4854 44.4524H38.2761C37.6641 44.4524 36.9316 44.5627 36.4601 44.0711C36.3173 43.9259 36.2103 43.7495 36.1474 43.5558C36.0845 43.3621 36.0674 43.1565 36.0976 42.9551C36.1278 42.7537 36.2043 42.5621 36.3212 42.3954C36.4381 42.2286 36.5921 42.0913 36.7711 41.9943Z" fill="#fff"/>
<path d="M31.4937 50.1913C32.5772 50.1913 33.6708 50.1913 34.7544 50.1913C34.9869 50.2259 35.2058 50.3223 35.3884 50.4703C35.571 50.6183 35.7105 50.8126 35.7925 51.0329C35.8745 51.2532 35.8959 51.4914 35.8545 51.7228C35.813 51.9542 35.7103 52.1702 35.5571 52.3484C34.8648 53.0707 33.7511 52.6995 32.8582 52.7898C32.3766 52.84 31.4636 52.5691 31.4234 53.2814C31.4234 54.6259 31.4234 55.9703 31.4234 57.2946C31.4234 57.6659 31.8549 57.7461 32.1559 57.7261H57.4993C57.7903 57.7261 58.2217 57.6659 58.2217 57.2846C58.2217 55.9502 58.2217 54.6158 58.2217 53.2714C58.2217 52.8701 57.8204 52.7296 57.4993 52.7697H40.3529C40.1201 52.7915 39.8855 52.7553 39.6701 52.6643C39.4548 52.5732 39.2654 52.4302 39.1188 52.248C39.0147 52.1093 38.9391 51.9513 38.8964 51.7832C38.8537 51.6151 38.8446 51.4402 38.8698 51.2686C38.895 51.097 38.9539 50.932 39.0431 50.7833C39.1324 50.6346 39.2501 50.505 39.3897 50.402C39.7355 50.1915 40.1407 50.0999 40.5435 50.1411C46.3125 50.1411 52.0915 50.1411 57.8705 50.1411C58.6509 50.1653 59.3936 50.482 59.9512 51.0285C60.5088 51.5749 60.8405 52.3111 60.8805 53.0908C60.8805 54.5456 60.8805 56.0104 60.8805 57.4652C60.8144 58.2564 60.4502 58.9929 59.8616 59.5257C59.2729 60.0584 58.5038 60.3476 57.71 60.3347H33.0287C32.2446 60.4117 31.4529 60.3298 30.7011 60.0939C30.1403 59.8608 29.6601 59.4687 29.3195 58.966C28.979 58.4632 28.7931 57.8717 28.7848 57.2645C28.7848 55.87 28.7848 54.4854 28.7848 53.0908C28.8279 52.3677 29.1222 51.6823 29.6168 51.1529C30.1113 50.6236 30.7751 50.2835 31.4937 50.1913V50.1913Z" fill="#fff"/>
</svg>
