<svg width="81" height="80" viewBox="0 0 81 80" fill="none" xmlns="http://www.w3.org/2000/svg">
<path d="M0.248919 0.552399C0.384707 0.363931 0.567495 0.214337 0.779087 0.118488C0.990679 0.0226382 1.22369 -0.0161202 1.45491 0.00609341H78.6078C78.8017 -0.0112809 78.997 0.0141105 79.18 0.0804881C79.3629 0.146866 79.5291 0.252609 79.6668 0.39024C79.8044 0.527872 79.9101 0.694025 79.9765 0.876998C80.0428 1.05997 80.0683 1.2553 80.0509 1.44916V55.3583C80.0695 55.5394 80.0502 55.7224 79.9941 55.8956C79.938 56.0688 79.8465 56.2284 79.7252 56.3642C79.6039 56.5 79.4557 56.609 79.2899 56.6843C79.1241 56.7596 78.9445 56.7994 78.7624 56.8014C68.8671 56.8014 58.9614 56.8014 49.0661 56.8014C49.0661 58.1001 49.0661 59.3989 49.0661 60.6873C49.0662 60.9951 48.9543 61.2924 48.7514 61.5238C48.5485 61.7552 48.2683 61.9048 47.9631 61.9449C47.4787 61.9449 46.9324 61.9449 46.4891 61.9449V78.5608C46.522 78.873 46.4425 79.1867 46.2649 79.4455C46.0873 79.7043 45.8233 79.8913 45.5202 79.973C45.0364 80.009 44.5506 80.009 44.0668 79.973H4.03183C3.71958 80.0049 3.40626 79.9236 3.14894 79.7439C2.89162 79.5641 2.70745 79.2979 2.62999 78.9938C2.59397 78.5719 2.59397 78.1478 2.62999 77.7259V61.9758C1.89814 61.9243 1.01169 62.1716 0.434465 61.5944C-0.142764 61.0172 0.0530766 60.4606 0.0427689 59.8833C0.0427689 40.6424 0.0427689 21.4014 0.0427689 2.16039C-0.0554841 1.61595 0.0164998 1.05445 0.248919 0.552399V0.552399ZM2.58876 2.61393V54.2554H7.7426C7.7426 52.802 7.7426 51.3589 7.7426 49.9055C7.83441 48.4737 8.32132 47.0953 9.14924 45.9235C9.97716 44.7517 11.1137 43.8323 12.4326 43.2674C14.6075 42.2985 17.0401 42.7417 19.3387 42.6386V41.01C17.6828 39.8447 16.4667 38.1566 15.8857 36.2169C15.0507 36.1345 14.2158 36.2169 13.3912 36.1035C12.737 35.9674 12.1292 35.6639 11.6272 35.2228C11.1253 34.7816 10.7462 34.2179 10.5271 33.5866C10.308 32.9553 10.2564 32.2779 10.3771 31.6206C10.4979 30.9634 10.787 30.3487 11.2163 29.8365C11.8761 29.0601 12.8105 28.5689 13.8241 28.4656C13.0426 25.961 12.7624 23.3271 12.9995 20.7142C13.1201 19.4283 13.5946 18.2009 14.3704 17.1684C14.9508 16.4952 15.7101 16.0004 16.5603 15.7413C17.4105 15.4823 18.3167 15.4696 19.1738 15.7047C20.2612 16.0518 21.2244 16.7071 21.9466 17.591C23.0121 16.6816 24.2838 16.0464 25.6509 15.7407C27.018 15.435 28.4391 15.468 29.7905 15.8368C31.142 16.2057 32.3828 16.8992 33.405 17.857C34.4272 18.8149 35.1999 20.008 35.6558 21.3327C36.1075 22.8522 36.258 24.4454 36.099 26.0226C35.9135 26.8576 35.563 27.6513 35.3259 28.4759C36.0601 28.5859 36.751 28.8922 37.3256 29.3623C37.833 29.7943 38.2198 30.3505 38.4482 30.9765C38.6766 31.6026 38.7388 32.2772 38.6287 32.9344C38.5187 33.5917 38.2401 34.2092 37.8202 34.7267C37.4003 35.2442 36.8535 35.644 36.233 35.8871C35.2478 36.1417 34.2257 36.222 33.2129 36.1242C32.6093 38.0778 31.3773 39.7773 29.7082 40.9585V42.5871H33.2644C33.9472 42.5827 34.6015 42.3129 35.0888 41.8346C36.0475 40.9069 36.9648 39.938 37.9235 39.0206C38.1249 38.8659 38.3646 38.7688 38.617 38.7398C38.8694 38.7107 39.1249 38.7508 39.3562 38.8557L46.149 32.0732C46.747 31.5101 47.5029 31.1432 48.3153 31.0216C49.1277 30.9 49.9579 31.0296 50.6947 31.393C55.0239 27.0706 59.3428 22.7517 63.6514 18.4362L65.4758 20.2607L52.5191 33.238C52.8706 33.9799 52.9927 34.8098 52.8697 35.6215C52.7466 36.4332 52.3841 37.1896 51.8285 37.794C49.5814 40.0617 47.3034 42.3088 45.0461 44.5764C45.1629 44.8254 45.2028 45.1037 45.1606 45.3754C45.1183 45.6472 44.9959 45.9002 44.809 46.102C42.9433 47.9883 41.0467 49.8643 39.1707 51.7506C38.4904 52.3897 38.8099 53.4101 38.7377 54.2244H77.4637V2.58301L2.58876 2.61393ZM15.9887 19.5391C15.1435 22.0439 15.6074 24.7548 16.2361 27.2596C18.1533 26.8782 20.1015 26.7236 22.029 26.3731C22.7415 26.2234 23.3817 25.8356 23.8444 25.2736C24.3072 24.7115 24.5648 24.0087 24.575 23.2808C24.575 22.9426 24.7079 22.618 24.9451 22.377C25.1823 22.1359 25.5047 21.9977 25.8429 21.9923C26.4922 21.9923 26.9252 22.518 27.3993 22.8685C29.2856 24.3528 31.1307 25.8989 33.0479 27.342C33.2611 26.7576 33.4434 26.1624 33.5942 25.5588C33.6599 24.6287 33.6115 23.694 33.4499 22.7757C33.2223 21.7877 32.7487 20.8732 32.0733 20.1171C31.3978 19.3609 30.5423 18.7876 29.5861 18.4504C28.63 18.1132 27.6041 18.0229 26.6037 18.188C25.6034 18.3531 24.6609 18.7682 23.8638 19.3948C23.4721 19.704 23.1423 20.0854 22.7712 20.4256C22.5541 20.6044 22.2844 20.7072 22.0034 20.7183C21.7223 20.7295 21.4453 20.6484 21.2147 20.4874C20.4519 19.8587 19.8541 19.034 19.0501 18.4259C18.7823 18.2637 18.4819 18.1628 18.1705 18.1303C17.8591 18.0978 17.5443 18.1346 17.2488 18.2381C16.9533 18.3415 16.6843 18.509 16.4611 18.7286C16.2379 18.9482 16.066 19.2144 15.9578 19.5082L15.9887 19.5391ZM22.4722 28.9191C21.0292 29.1665 19.5655 29.3417 18.1121 29.5582C18.1121 30.96 18.1121 32.3619 18.1121 33.774C18.1966 35.4409 18.9237 37.0102 20.1408 38.1524C21.3578 39.2945 22.9701 39.9207 24.639 39.8993C26.3079 39.878 27.9036 39.2108 29.091 38.0379C30.2784 36.865 30.9651 35.2776 31.007 33.6091C31.007 32.0939 31.007 30.5786 31.007 29.0634L26.6469 25.5794C26.2565 26.4235 25.672 27.1633 24.9411 27.7384C24.2102 28.3134 23.3536 28.7074 22.4413 28.8882L22.4722 28.9191ZM13.4118 31.3208C13.2686 31.4417 13.1535 31.5925 13.0745 31.7625C12.9956 31.9325 12.9547 32.1177 12.9547 32.3052C12.9547 32.4926 12.9956 32.6778 13.0745 32.8479C13.1535 33.0179 13.2686 33.1686 13.4118 33.2896C13.9994 33.7843 14.824 33.5472 15.5352 33.5988V31.0219C14.793 31.0425 13.9787 30.8054 13.3809 31.2899L13.4118 31.3208ZM33.6045 31.0219V33.5988C34.3055 33.5472 35.1301 33.7843 35.7279 33.2999C35.8683 33.176 35.9807 33.0238 36.0578 32.8532C36.1348 32.6826 36.1746 32.4975 36.1746 32.3103C36.1746 32.1231 36.1348 31.9381 36.0578 31.7675C35.9807 31.5969 35.8683 31.4446 35.7279 31.3208C35.0991 30.8054 34.2745 31.0425 33.5736 30.9909L33.6045 31.0219ZM47.9116 34.0317C45.6851 36.2444 43.4621 38.4675 41.2425 40.7008L43.3041 42.7623C45.5305 40.5359 47.757 38.3197 49.9731 36.0829C50.2465 35.8096 50.4001 35.4388 50.4001 35.0522C50.4001 34.6656 50.2465 34.2948 49.9731 34.0214C49.6997 33.748 49.3289 33.5944 48.9423 33.5944C48.5557 33.5944 48.1849 33.748 47.9116 34.0214V34.0317ZM36.8411 43.8034C35.9226 44.6746 34.7154 45.1773 33.4499 45.2155C32.1512 45.2155 30.8524 45.2155 29.5536 45.2155C29.2671 46.3207 28.6217 47.2995 27.7188 47.9982C26.8158 48.6969 25.7064 49.076 24.5647 49.076C23.423 49.076 22.3136 48.6969 21.4106 47.9982C20.5077 47.2995 19.8623 46.3207 19.5758 45.2155C18.0709 45.2155 16.5557 45.2155 15.0404 45.2155C13.8455 45.3279 12.7272 45.8538 11.8786 46.7024C11.0299 47.5511 10.504 48.6693 10.3917 49.8643C10.3298 51.3177 10.3917 52.7711 10.3917 54.2244H36.1608C36.053 53.1819 36.1654 52.1284 36.4907 51.1321C36.8106 50.473 37.2675 49.8897 37.8307 49.4211C39.2428 47.9986 40.6653 46.5864 42.0877 45.164L38.7481 41.8243C38.0884 42.484 37.4699 43.1024 36.8102 43.7724L36.8411 43.8034ZM21.9878 42.2572C21.9878 42.9272 21.9878 43.5972 21.9878 44.3188C21.9878 45.0022 22.2593 45.6576 22.7426 46.1409C23.2258 46.6242 23.8813 46.8957 24.5647 46.8957C25.2481 46.8957 25.9036 46.6242 26.3869 46.1409C26.8701 45.6576 27.1416 45.0022 27.1416 44.3188C27.2035 43.6488 27.1416 42.9788 27.1416 42.2572C25.4471 42.751 23.6454 42.7402 21.9569 42.2263L21.9878 42.2572ZM2.58876 56.8116V59.3886H46.4788V56.8116H2.58876ZM5.17598 61.9655V77.427H43.9019V61.9655H5.17598Z" fill="#fff"/>
<path d="M43.9019 7.74728H67.156V10.3345H43.9019V7.74728Z" fill="#fff"/>
<path d="M72.2995 10.8705C74.3148 10.8705 75.9485 10.0536 75.9485 9.04597C75.9485 8.03835 74.3148 7.22153 72.2995 7.22153C70.2843 7.22153 68.6506 8.03835 68.6506 9.04597C68.6506 10.0536 70.2843 10.8705 72.2995 10.8705Z" fill="#fff"/>
<path d="M38.7378 12.9114H74.8868V15.4987H38.7378V12.9114Z" fill="#fff"/>
</svg>
