<svg width="75" height="80" viewBox="0 0 75 80" fill="none" xmlns="http://www.w3.org/2000/svg">
<path d="M9.75971 46.8217C11.3573 46.1948 13.0929 46.0042 14.7885 46.2694C16.4841 46.5347 18.0785 47.2463 19.4083 48.3311C20.7381 49.4159 21.7554 50.835 22.3558 52.4428C22.9562 54.0505 23.118 55.789 22.8248 57.48C22.5809 58.8321 22.0556 60.1179 21.2829 61.2541C20.5102 62.3902 19.5074 63.3513 18.3395 64.075C21.382 65.3295 23.8534 67.6645 25.2784 70.631C25.3409 70.9357 25.5441 70.631 25.5753 70.4982C27.0122 67.5937 29.4562 65.3109 32.4517 64.075C30.6328 62.9487 29.2288 61.2623 28.4509 59.2694C27.6207 57.0935 27.6012 54.6915 28.3962 52.5024C28.8742 51.2213 29.6146 50.0542 30.57 49.0759C31.5254 48.0976 32.6747 47.3298 33.9441 46.8217C35.5417 46.1974 37.2765 46.0088 38.9709 46.2751C40.6653 46.5415 42.2586 47.2531 43.5876 48.3374C44.9167 49.4216 45.9338 50.8395 46.535 52.4459C47.1362 54.0523 47.2999 55.7896 47.0092 57.48C46.7644 58.8328 46.2379 60.119 45.4638 61.2552C44.6898 62.3914 43.6855 63.3521 42.5161 64.075C45.618 65.3731 48.1252 67.78 49.5487 70.8263C50.9739 67.7829 53.4808 65.379 56.5814 64.0828C54.7737 62.9443 53.3774 61.2578 52.5962 59.2694C52.0686 57.8884 51.8648 56.4049 52.0004 54.9328C52.136 53.4607 52.6075 52.0393 53.3786 50.778C54.1497 49.5167 55.1997 48.4491 56.4481 47.6573C57.6965 46.8654 59.1098 46.3704 60.5795 46.2104C62.0491 46.0504 63.5358 46.2297 64.9253 46.7343C66.3148 47.239 67.5701 48.0557 68.5945 49.1215C69.6189 50.1873 70.3852 51.4739 70.8344 52.8823C71.2837 54.2907 71.4039 55.7834 71.1858 57.2456C70.9691 58.643 70.4526 59.9769 69.6716 61.1558C68.8906 62.3347 67.8637 63.3305 66.6615 64.075C68.5493 64.852 70.2346 66.05 71.5888 67.5776C72.9431 69.1051 73.9304 70.9219 74.4755 72.8892C75.1475 75.2335 74.8975 77.6324 74.9443 80H0C0 78.5935 0 77.1791 0 75.7726C0.0857774 73.9312 0.553871 72.1278 1.37449 70.4772C2.19511 68.8265 3.35029 67.3647 4.76656 66.1848C5.82417 65.3101 7.00009 64.5893 8.25943 64.0438C6.47228 62.946 5.08595 61.3021 4.30554 59.3554C3.43795 57.1588 3.40735 54.7201 4.21957 52.5024C4.69328 51.2201 5.43128 50.0517 6.38572 49.0731C7.34015 48.0944 8.48968 47.3274 9.75971 46.8217V46.8217ZM55.8625 40.4298H65.8722L67.521 38.1793L65.8722 35.9211H55.8625V40.4298ZM5.126 0.0078157H71.5452V43.7664H12.3696C11.9793 43.7664 11.6048 43.6118 11.3281 43.3366C11.0513 43.0613 10.8948 42.6877 10.8928 42.2973V42.2973C10.8948 41.907 11.0513 41.5334 11.3281 41.2581C11.6048 40.9828 11.9793 40.8283 12.3696 40.8283H15.6671C15.6671 37.437 15.6671 27.3725 15.6671 24.1219C15.6671 22.2465 16.2375 20.7541 18.9959 20.6447C17.6774 19.0711 16.9358 17.0945 16.8939 15.042C16.8324 13.2232 17.286 11.4241 18.2024 9.85187C19.1188 8.27965 20.4608 6.99832 22.0737 6.15554C23.6866 5.31275 25.5048 4.94279 27.3187 5.08829C29.1327 5.23379 30.8687 5.88883 32.3266 6.97793C33.4116 7.78795 34.3149 8.81621 34.9784 9.99649C35.6419 11.1768 36.0508 12.4829 36.1789 13.8308C36.3843 16.1035 35.7931 18.3769 34.5067 20.2618L38.7654 17.6128L38.9529 17.4565C39.5155 16.9721 40.0625 16.4563 40.5939 15.9328L40.797 15.7296C41.3753 15.1514 41.9457 14.5575 42.5317 13.9793L43.4147 13.0494C43.9608 12.3997 44.6334 11.8679 45.3917 11.4866C46.2325 11.1161 47.1636 11.0007 48.0694 11.1549C48.9751 11.3091 49.8156 11.7261 50.4864 12.354C51.3092 13.1726 51.8174 14.255 51.9217 15.411C52.026 16.567 51.7198 17.7228 51.0569 18.6755C49.2252 21.2764 47.1926 23.7297 44.9775 26.0129L44.7197 26.2708C42.484 28.4808 40.0574 30.4889 37.4683 32.2719C37.4683 35.1162 37.4683 37.9684 37.4683 40.8127H68.7244V2.93026H7.92341V4.454C7.92341 4.84361 7.76865 5.21726 7.49315 5.49276C7.21765 5.76826 6.84401 5.92303 6.45439 5.92303V5.92303C6.31664 5.92199 6.17975 5.90093 6.04805 5.86052H5.9074C5.61718 5.75793 5.36627 5.56721 5.18974 5.31503C5.01321 5.06285 4.91989 4.76181 4.92283 4.454V0L5.126 0.0078157ZM18.1286 40.8283H28.1774H28.5993H35.0537C35.0537 37.5542 35.0537 34.2801 35.0537 31.0061C38.4888 28.7455 41.6373 26.0771 44.4305 23.0592V23.0592C45.6452 21.7496 46.7877 20.3749 47.8531 18.9412C48.2907 18.3395 48.7752 17.7613 49.1893 17.1362C49.4802 16.6383 49.5901 16.0552 49.5004 15.4856C49.4107 14.916 49.1269 14.3949 48.697 14.0106C48.2917 13.6815 47.783 13.5065 47.261 13.5165C46.739 13.5265 46.2373 13.7209 45.8449 14.0652C45.4464 14.4481 45.0635 14.8467 44.665 15.2217L43.4147 16.511C42.8756 17.058 42.3364 17.5972 41.7894 18.1285C40.0483 19.8524 38.0236 21.2639 35.8039 22.3012L35.5148 22.4341C35.3226 22.5073 35.1391 22.6017 34.9678 22.7154C34.8925 22.7722 34.8243 22.8378 34.7646 22.9107C32.0453 26.0363 29.3156 29.162 26.5755 32.2876C23.95 29.287 21.7308 26.763 19.1131 23.7625C18.9412 23.6062 18.0895 24.0203 18.1129 24.958V40.8283H18.1286ZM22.4653 23.7468L26.3723 28.193L30.7091 23.7468H22.4653ZM19.9727 11.7289C19.5102 12.7529 19.2921 13.8705 19.3354 14.9933C19.3788 16.1162 19.6826 17.2135 20.2227 18.1989C20.8434 19.3373 21.7614 20.2859 22.8788 20.9437C23.9962 21.6015 25.2711 21.9437 26.5677 21.934C27.5008 21.9497 28.4276 21.7795 29.2943 21.4334C30.1609 21.0872 30.95 20.5721 31.6155 19.918C32.3799 19.1757 32.971 18.274 33.3469 17.2771C33.7229 16.2802 33.8742 15.2127 33.7903 14.1506C33.7063 13.0885 33.3891 12.058 32.8613 11.1326C32.3334 10.2071 31.6079 9.40951 30.7365 8.79658C29.865 8.18364 28.8691 7.77049 27.8197 7.58656C26.7703 7.40264 25.6932 7.45247 24.6653 7.7325C23.6373 8.01254 22.6838 8.51588 21.8727 9.20665C21.0616 9.89742 20.4128 10.7586 19.9727 11.7289V11.7289ZM12.057 48.6892C10.3925 48.9854 8.88397 49.8546 7.79285 51.146C6.70174 52.4375 6.09677 54.07 6.08275 55.7607C6.06872 57.4513 6.64651 59.0936 7.71604 60.403C8.78557 61.7125 10.2795 62.6065 11.9389 62.9303C13.5983 63.2541 15.3187 62.9872 16.802 62.1759C18.2854 61.3646 19.4381 60.06 20.0607 58.4881C20.6833 56.9162 20.7364 55.176 20.2108 53.5691C19.6853 51.9621 18.6141 50.5896 17.183 49.6894C15.6568 48.7337 13.8306 48.3774 12.057 48.6892ZM36.218 48.6892C34.5531 48.9892 33.0454 49.8618 31.956 51.156C30.8666 52.4503 30.264 54.0847 30.2525 55.7764C30.241 57.4681 30.8213 59.1106 31.893 60.4195C32.9647 61.7285 34.4604 62.6216 36.1211 62.9441C37.7818 63.2667 39.503 62.9985 40.9868 62.1859C42.4706 61.3733 43.6236 60.0675 44.2462 58.4945C44.8688 56.9215 44.9218 55.1803 44.3961 53.5723C43.8704 51.9644 42.799 50.5908 41.3675 49.6894C39.8345 48.7286 37.9991 48.3721 36.218 48.6892V48.6892ZM60.4024 48.6892C58.7382 48.9741 57.2255 49.8309 56.1253 51.1117C55.0252 52.3926 54.4064 54.0172 54.3759 55.7054C54.3453 57.3936 54.9049 59.0396 55.958 60.3594C57.0111 61.6792 58.4917 62.5901 60.1446 62.9351C61.7975 63.2801 63.5189 63.0374 65.012 62.249C66.5051 61.4606 67.6763 60.1759 68.3236 58.6164C68.9708 57.0569 69.0536 55.3205 68.5576 53.7065C68.0616 52.0925 67.0179 50.7022 65.6066 49.7754C64.0634 48.7672 62.1923 48.3897 60.379 48.7205L60.4024 48.6892ZM6.1809 68.1774C4.28295 69.8265 3.01543 72.0826 2.59426 74.5614C2.45503 75.563 2.40534 76.5751 2.44579 77.5855H6.07149V72.7486H8.49384V77.5855H18.1598V72.7486H20.5821V77.5855H24.2079C24.2601 76.4235 24.1788 75.2594 23.9656 74.116C23.5737 72.2619 22.7039 70.5424 21.4423 69.1282C20.1808 67.714 18.5714 66.6542 16.7738 66.0539C14.9763 65.4537 13.053 65.3338 11.1949 65.7063C9.33671 66.0788 7.60822 66.9307 6.1809 68.1774V68.1774ZM30.6075 67.9742C28.6202 69.5974 27.2743 71.8738 26.8099 74.3973C26.642 75.4512 26.5792 76.5192 26.6224 77.5855H30.2559V72.7486H32.6704V77.5855H42.3208V72.7486H44.7353V77.5855H48.361C48.4108 76.5194 48.3506 75.4511 48.1813 74.3973C47.8406 72.5351 47.0192 70.7943 45.7983 69.3474C44.5775 67.9005 42.9997 66.7978 41.2213 66.1487C39.4429 65.4996 37.5257 65.3265 35.6599 65.6467C33.794 65.967 32.0443 66.7693 30.5841 67.9742H30.6075ZM54.5341 68.1852C52.6436 69.8392 51.3799 72.0935 50.9553 74.5693C50.8158 75.5682 50.7661 76.5776 50.8068 77.5855H54.4325V72.7486H56.847V77.5855H66.5208V72.7486H68.9432V77.5855H72.5689C72.6121 76.5192 72.5493 75.4512 72.3813 74.3973C72.0337 72.509 71.192 70.7464 69.942 69.2889C68.6919 67.8314 67.0781 66.7311 65.2647 66.0999C63.4513 65.4687 61.503 65.3292 59.6182 65.6954C57.7333 66.0617 55.9791 66.9208 54.5341 68.1852V68.1852Z" fill="#fff"/>
</svg>
