<svg width="1432" height="361" viewBox="0 0 1432 361" fill="none" xmlns="http://www.w3.org/2000/svg">
<path d="M563 91.76C561.209 88.8017 558.615 86.4125 555.52 84.87C552.073 83.2136 548.283 82.398 544.46 82.49C540.977 82.323 537.499 82.9244 534.275 84.2517C531.05 85.5789 528.157 87.5995 525.8 90.17C521.117 96.0134 518.74 103.371 519.12 110.85C518.617 118.829 521.182 126.699 526.29 132.85C529.128 135.479 532.473 137.501 536.12 138.791C539.768 140.08 543.64 140.611 547.5 140.35C552.465 140.574 557.38 139.271 561.582 136.615C565.784 133.96 569.071 130.081 571 125.5H539.58V102.92H598V133.43C595.402 139.61 591.74 145.286 587.18 150.2C582.053 155.735 575.845 160.159 568.94 163.2C561.15 166.612 552.713 168.297 544.21 168.14C533.757 168.364 523.423 165.884 514.21 160.94C505.713 156.215 498.734 149.171 494.09 140.63C489.301 131.367 486.895 121.056 487.09 110.63C486.892 100.315 489.299 90.1171 494.09 80.98C498.683 72.3853 505.673 65.309 514.21 60.61C523.338 55.5687 533.634 53.0231 544.06 53.23C556.564 52.7205 568.888 56.34 579.13 63.53C588.328 70.2431 594.525 80.2966 596.39 91.53L563.02 91.71L563 91.76ZM210 0.25C213.229 0.324029 216.395 1.16008 219.24 2.69L404.74 100.3C407.605 101.568 410.267 103.253 412.64 105.3C414.559 107.151 416.086 109.369 417.131 111.822C418.176 114.275 418.716 116.914 418.72 119.58V217.86C418.764 221.501 417.817 225.086 415.98 228.23C413.994 231.656 410.978 234.369 407.361 235.982C403.744 237.595 399.711 238.027 395.835 237.217C391.959 236.406 388.437 234.394 385.77 231.466C383.103 228.539 381.427 224.845 380.98 220.91C380.56 216.34 380.98 211.7 380.98 207.12V130.56L210.29 40.88L61.3799 119L210.65 197.45L298.65 156.45C300.009 155.75 301.412 155.139 302.85 154.62C305.309 153.804 307.909 153.502 310.489 153.732C313.069 153.963 315.575 154.721 317.85 155.96C320.4 157.305 322.604 159.222 324.291 161.56C325.977 163.899 327.099 166.596 327.57 169.44C327.73 171.47 327.73 173.51 327.57 175.54V279.9C327.459 288.396 325.382 296.751 321.5 304.31C316.387 314.02 309.355 322.59 300.83 329.5C291.185 337.414 280.396 343.82 268.83 348.5C250.338 355.968 230.603 359.88 210.66 360.03C185.248 360.229 160.186 354.105 137.73 342.21C126.204 336.156 115.901 328.018 107.34 318.21C99.6208 309.477 94.4857 298.767 92.5099 287.28C91.9605 282.635 91.7766 277.954 91.9599 273.28V178.28L10.9599 135.58C7.87541 133.939 5.30301 131.48 3.52562 128.472C1.74822 125.464 0.834653 122.024 0.885298 118.53C0.935942 115.037 1.94889 111.625 3.81273 108.67C5.67657 105.715 8.31913 103.331 11.4499 101.78L200.6 2.4C203.296 0.971791 206.298 0.216993 209.35 0.199997L210.02 0.139999L210 0.25ZM130.43 198.25V280.12C131.117 285.882 133.794 291.222 138 295.22C147.054 304.443 158.184 311.366 170.46 315.41C197.972 325.135 228.097 324.424 255.12 313.41C265.798 309.204 275.397 302.656 283.21 294.25C286.944 290.435 289.277 285.469 289.83 280.16V202.49L221.39 234.39C219.042 235.637 216.555 236.6 213.98 237.26C211.217 237.87 208.353 237.87 205.59 237.26C202.02 236.012 198.58 234.418 195.32 232.5L130.46 198.5V198.32L130.43 198.25ZM697.51 121.5C697.505 123.968 697.345 126.433 697.03 128.88H637.77C637.756 132.92 639.173 136.835 641.77 139.93C642.991 141.111 644.441 142.03 646.03 142.63C647.624 143.241 649.324 143.524 651.03 143.46C653.387 143.586 655.726 142.981 657.727 141.728C659.728 140.475 661.293 138.635 662.21 136.46H695.58C694.223 142.576 691.433 148.282 687.44 153.11C683.391 158.009 678.255 161.895 672.44 164.46C666.123 167.321 659.254 168.758 652.32 168.67C644.11 168.809 635.998 166.88 628.73 163.06C621.951 159.342 616.349 153.799 612.56 147.06C608.621 139.542 606.656 131.146 606.85 122.66C606.61 114.17 608.577 105.762 612.56 98.26C616.252 91.5054 621.805 85.9523 628.56 82.26C635.889 78.4296 644.062 76.5006 652.33 76.65C660.487 76.4775 668.556 78.3658 675.79 82.14C682.547 85.6832 688.111 91.1364 691.79 97.82C695.774 105.126 697.767 113.351 697.57 121.67V121.61L697.51 121.5ZM665.51 113.69C665.603 112.002 665.305 110.315 664.64 108.76C663.957 107.216 662.931 105.848 661.64 104.76C658.941 102.608 655.592 101.437 652.14 101.437C648.688 101.437 645.339 102.608 642.64 104.76C639.992 107.138 638.288 110.389 637.84 113.92L665.43 113.73L665.51 113.69ZM748.42 168.6C740.992 168.729 733.614 167.369 726.72 164.6C720.881 162.137 715.732 158.285 711.72 153.38C708.137 148.711 706.021 143.083 705.64 137.21H736.03C736.185 138.547 736.622 139.837 737.312 140.993C738.001 142.15 738.927 143.147 740.03 143.92C742.459 145.588 745.355 146.442 748.3 146.36C750.451 146.479 752.584 145.901 754.38 144.71C755.084 144.278 755.66 143.668 756.05 142.94C756.44 142.208 756.64 141.389 756.63 140.56C756.628 139.457 756.278 138.383 755.63 137.49C754.975 136.602 754.054 135.947 753 135.62C749.056 134.096 744.987 132.915 740.84 132.09C735.402 131.06 730.053 129.609 724.84 127.75C720.516 126.103 716.673 123.401 713.66 119.89C710.414 115.695 708.775 110.478 709.04 105.18C708.986 100.034 710.492 94.9929 713.36 90.72C716.5 86.1306 720.885 82.533 726 80.35C732.394 77.6357 739.296 76.3261 746.24 76.51C756.179 75.9306 765.989 78.9874 773.84 85.11C780.571 90.867 784.764 99.0439 785.51 107.87H757.18C757.02 106.578 756.598 105.332 755.94 104.209C755.281 103.086 754.4 102.11 753.35 101.34C751.144 99.5987 748.375 98.7302 745.57 98.9C743.445 98.7503 741.325 99.2602 739.5 100.36C738.882 100.822 738.387 101.428 738.057 102.125C737.728 102.822 737.574 103.59 737.61 104.36C737.659 105.443 738.028 106.487 738.67 107.36C739.321 108.241 740.224 108.903 741.26 109.26C745.201 110.739 749.268 111.86 753.41 112.61C758.899 113.709 764.288 115.261 769.52 117.25C773.948 119.01 777.842 121.89 780.82 125.61C784.363 129.921 786.149 135.41 785.82 140.98C785.852 146.057 784.23 151.006 781.2 155.08C777.855 159.518 773.36 162.956 768.2 165.02C761.956 167.488 755.283 168.692 748.57 168.56L748.42 168.6ZM853.81 140.72V167.44H840.26C817.41 167.44 805.92 156.09 805.92 133.34V103.72H794.92V78H805.92V56.19H837.4V78H853.69V104.11H837.4V134.25C837.296 135.186 837.383 136.134 837.655 137.036C837.926 137.938 838.377 138.776 838.98 139.5C840.713 140.823 842.896 141.415 845.06 141.15L853.81 140.78V140.72ZM884.21 69.22C879.351 69.4586 874.578 67.8713 870.83 64.77C869.249 63.2747 867.989 61.4724 867.128 59.4736C866.268 57.4748 865.824 55.3213 865.824 53.145C865.824 50.9687 866.268 48.8152 867.128 46.8164C867.989 44.8176 869.249 43.0154 870.83 41.52C874.527 38.3105 879.32 36.6519 884.21 36.89C886.594 36.7609 888.98 37.1034 891.231 37.8979C893.482 38.6924 895.555 39.9233 897.33 41.52C898.978 42.9886 900.288 44.7966 901.17 46.8198C902.052 48.843 902.485 51.0333 902.44 53.24C902.476 55.4176 902.038 57.577 901.156 59.5681C900.273 61.5593 898.968 63.3343 897.33 64.77C893.624 67.9457 888.832 69.5622 883.96 69.28L884.21 69.22ZM899.7 77.58V167.44H868.4V78L899.7 77.64V77.58ZM959.21 168.58C950.805 168.726 942.493 166.81 935 163C928.072 159.334 922.319 153.788 918.4 147C914.42 139.483 912.34 131.106 912.34 122.6C912.34 114.094 914.42 105.717 918.4 98.2C922.406 91.4178 928.215 85.8794 935.18 82.2C942.695 78.3498 951.048 76.4223 959.49 76.59C967.831 76.4437 976.078 78.3714 983.49 82.2C990.492 85.8246 996.31 91.3763 1000.26 98.2C1004.48 105.624 1006.58 114.064 1006.34 122.6C1006.54 131.132 1004.44 139.56 1000.26 147C996.31 153.824 990.492 159.375 983.49 163C975.969 166.845 967.615 168.772 959.17 168.61H959.36L959.21 168.58ZM959.21 141.31C961.258 141.359 963.291 140.953 965.163 140.119C967.034 139.285 968.697 138.046 970.03 136.49C973.245 132.525 974.848 127.494 974.52 122.4C974.872 117.358 973.263 112.375 970.03 108.49C968.682 106.982 967.033 105.773 965.19 104.94C963.346 104.109 961.347 103.68 959.325 103.68C957.303 103.68 955.304 104.109 953.46 104.94C951.619 105.773 949.974 106.982 948.63 108.49C945.528 112.435 944.009 117.395 944.37 122.4C943.989 127.444 945.461 132.454 948.51 136.49C949.806 138.055 951.444 139.303 953.296 140.139C955.149 140.974 957.168 141.375 959.2 141.31H959.21ZM981.88 55.41L942 71.2V49.91L981.94 31.61V55.46L981.88 55.41ZM1077.6 76.77C1082.18 76.593 1086.75 77.4358 1090.97 79.2377C1095.19 81.0397 1098.96 83.7557 1102 87.19C1108.42 95.0168 1111.67 104.963 1111.12 115.07V167.47H1079.81V119.27C1080.12 114.837 1078.69 110.457 1075.81 107.07C1074.48 105.578 1072.84 104.399 1071 103.619C1069.16 102.839 1067.17 102.477 1065.17 102.56C1063.12 102.453 1061.07 102.795 1059.17 103.56C1057.27 104.347 1055.57 105.534 1054.17 107.04C1051.34 110.449 1049.92 114.817 1050.22 119.24V167.44H1018.92V78H1050.22V90.82C1053.03 86.6665 1056.86 83.3056 1061.35 81.06C1066.33 78.4333 1071.88 77.1088 1077.51 77.21L1077.75 76.85L1077.6 76.77ZM562.6 309.2H522.7L516.62 327.5H483.74L524.74 214.5H560.84L601.44 328.03H568.38L562.3 309.73L562.6 309.2ZM554.52 285.35L542.36 248.74L530.21 285.35H554.52ZM606.52 282.78C606.307 274.292 608.272 265.892 612.23 258.38C615.912 251.618 621.468 246.062 628.23 242.38C635.506 238.532 643.641 236.598 651.87 236.76C662.253 236.411 672.421 239.764 680.56 246.22C688.56 252.817 693.89 262.096 695.56 272.33H662.37C661.89 270.148 660.777 268.155 659.172 266.6C657.566 265.046 655.538 263.999 653.341 263.589C651.144 263.18 648.876 263.426 646.818 264.298C644.76 265.169 643.004 266.627 641.77 268.49C639.232 272.775 638.067 277.733 638.43 282.7C638.093 287.744 639.255 292.775 641.77 297.16C643.028 298.986 644.788 300.407 646.837 301.254C648.886 302.1 651.137 302.334 653.316 301.927C655.496 301.521 657.511 300.492 659.118 298.964C660.725 297.437 661.854 295.476 662.37 293.32H695.56C693.841 303.536 688.52 312.799 680.56 319.43C672.402 325.849 662.246 329.194 651.87 328.88C643.643 329.029 635.512 327.1 628.23 323.27C621.457 319.602 615.898 314.042 612.23 307.27C608.287 299.749 606.322 291.349 606.52 282.86V282.8V282.78ZM703.77 282.78C703.569 274.381 705.25 266.044 708.69 258.38C711.73 251.9 716.477 246.369 722.42 242.38C728.235 238.634 735.023 236.68 741.94 236.76C747.471 236.619 752.949 237.881 757.86 240.43C762.178 242.716 765.776 246.157 768.25 250.37V237.93H799.56V328.1H768.25V315.29C765.73 319.509 762.092 322.949 757.74 325.23C752.865 327.76 747.431 329.019 741.94 328.89C735.027 328.949 728.247 327 722.42 323.28C716.47 319.299 711.722 313.766 708.69 307.28C705.162 299.588 703.376 291.212 703.46 282.75L703.77 282.87V282.78ZM768.25 282.78C768.4 280.311 768.06 277.837 767.25 275.5C766.431 273.163 765.153 271.014 763.49 269.18C762.04 267.583 760.263 266.318 758.28 265.47C755.273 264.16 751.933 263.813 748.721 264.477C745.509 265.142 742.581 266.784 740.34 269.18C737.087 272.938 735.43 277.818 735.72 282.78C735.469 287.794 737.119 292.719 740.34 296.57C741.806 298.197 743.608 299.487 745.621 300.35C747.634 301.213 749.81 301.63 752 301.57C754.162 301.614 756.309 301.19 758.292 300.327C760.275 299.464 762.048 298.183 763.49 296.57C765.127 294.667 766.368 292.456 767.14 290.068C767.913 287.68 768.202 285.161 767.99 282.66L768.29 282.78H768.25ZM812.25 282.78C812.054 274.382 813.735 266.046 817.17 258.38C820.24 251.862 825.059 246.323 831.09 242.38C836.749 238.614 843.383 236.578 850.18 236.52C855.53 236.42 860.819 237.679 865.55 240.18C869.928 242.391 873.61 245.768 876.19 249.94V209H907.67V328.1H876.19V315.29C873.702 319.475 870.13 322.909 865.85 325.23C860.976 327.761 855.541 329.02 850.05 328.89C843.141 328.947 836.363 326.999 830.54 323.28C824.591 319.294 819.841 313.763 816.8 307.28C813.399 299.6 811.72 291.268 811.88 282.87L812.25 282.78ZM876.74 282.78C877.005 277.79 875.278 272.898 871.94 269.18C870.488 267.578 868.708 266.309 866.72 265.46C864.743 264.603 862.604 264.187 860.45 264.24C858.265 264.185 856.094 264.598 854.081 265.45C852.069 266.301 850.261 267.573 848.78 269.18C845.527 272.938 843.87 277.818 844.16 282.78C843.915 287.794 845.564 292.716 848.78 296.57C850.249 298.196 852.053 299.486 854.067 300.349C856.082 301.212 858.259 301.628 860.45 301.57C862.614 301.628 864.765 301.21 866.75 300.346C868.735 299.482 870.507 298.193 871.94 296.57C873.578 294.668 874.819 292.458 875.591 290.069C876.362 287.68 876.647 285.161 876.43 282.66L876.74 282.78V282.78ZM1011.42 281.87C1011.41 284.337 1011.25 286.802 1010.94 289.25H951.74C951.753 293.27 953.168 297.16 955.74 300.25C958.233 302.602 961.554 303.874 964.98 303.79C967.347 303.911 969.693 303.295 971.695 302.027C973.697 300.759 975.257 298.901 976.16 296.71H1009.53C1008.22 302.847 1005.43 308.568 1001.39 313.37C997.338 318.281 992.204 322.186 986.39 324.78C980.059 327.591 973.197 329.006 966.27 328.93C958.06 329.06 949.949 327.127 942.68 323.31C935.889 319.609 930.283 314.062 926.51 307.31C922.562 299.795 920.596 291.397 920.8 282.91C920.56 274.416 922.527 266.006 926.51 258.5C930.192 251.738 935.748 246.182 942.51 242.5C949.625 238.586 957.61 236.523 965.73 236.5C973.879 236.343 981.939 238.209 989.19 241.93C995.946 245.474 1001.51 250.927 1005.19 257.61C1009.17 264.938 1011.16 273.183 1010.96 281.52L1011.51 281.83L1011.42 281.87ZM979.42 274C979.506 272.311 979.205 270.625 978.54 269.07C977.86 267.524 976.834 266.155 975.54 265.07C972.83 262.944 969.485 261.788 966.04 261.788C962.595 261.788 959.25 262.944 956.54 265.07C953.918 267.464 952.219 270.702 951.74 274.22L979.34 274.04L979.42 274ZM985.5 215.37L945.62 231.05V209.81L985.5 191.51V215.42V215.37ZM1141.15 237.15C1146.04 236.874 1150.94 237.645 1155.51 239.413C1160.08 241.181 1164.22 243.904 1167.65 247.4C1174.48 255.098 1178 265.182 1177.44 275.46V327.81H1146.14V279.3C1146.26 277.263 1145.96 275.222 1145.28 273.3C1144.59 271.369 1143.52 269.599 1142.12 268.1C1139.1 265.501 1135.26 264.071 1131.27 264.071C1127.29 264.071 1123.45 265.501 1120.43 268.1C1119.03 269.599 1117.96 271.369 1117.27 273.3C1116.58 275.222 1116.29 277.263 1116.41 279.3V327.49H1085.18V279.3C1085.3 277.256 1085.01 275.208 1084.32 273.279C1083.63 271.349 1082.57 269.578 1081.18 268.07C1079.78 266.693 1078.1 265.626 1076.26 264.937C1074.42 264.248 1072.45 263.953 1070.49 264.07C1068.48 263.953 1066.47 264.247 1064.58 264.935C1062.69 265.622 1060.95 266.689 1059.49 268.07C1058.09 269.569 1057.02 271.339 1056.33 273.27C1055.64 275.192 1055.35 277.233 1055.47 279.27V327.46H1024.17V237.87H1055.47V249.71C1058.24 245.854 1061.92 242.734 1066.17 240.62C1070.91 238.194 1076.17 236.978 1081.49 237.08C1087.62 236.939 1093.68 238.434 1099.05 241.41C1104.16 244.261 1108.38 248.487 1111.21 253.61C1114.42 248.716 1118.75 244.66 1123.85 241.78C1129.05 238.679 1135 237.073 1141.05 237.14L1141.17 237.2L1141.15 237.15ZM1210.38 229.59C1205.5 229.824 1200.72 228.234 1196.95 225.13C1195.36 223.666 1194.1 221.882 1193.25 219.894C1192.4 217.906 1191.98 215.761 1192.02 213.6C1191.97 211.41 1192.38 209.234 1193.23 207.216C1194.08 205.197 1195.35 203.382 1196.95 201.89C1200.67 198.682 1205.47 197.021 1210.38 197.25C1215.18 197.012 1219.88 198.68 1223.45 201.89C1225.1 203.354 1226.41 205.16 1227.29 207.183C1228.17 209.205 1228.6 211.395 1228.55 213.6C1228.59 215.778 1228.15 217.938 1227.27 219.93C1226.39 221.923 1225.09 223.699 1223.45 225.13C1219.73 228.261 1214.93 229.814 1210.08 229.46L1210.38 229.59ZM1225.82 237.94V328.1H1194.58V237.87L1225.82 237.94ZM1238.59 282.78C1238.37 274.292 1240.34 265.89 1244.3 258.38C1247.98 251.614 1253.53 246.058 1260.3 242.38C1267.56 238.543 1275.68 236.609 1283.89 236.76C1294.29 236.411 1304.47 239.763 1312.63 246.22C1320.63 252.815 1325.96 262.095 1327.63 272.33H1294.44C1293.9 269.786 1292.48 267.511 1290.44 265.898C1288.4 264.284 1285.86 263.432 1283.26 263.49C1281.39 263.456 1279.55 263.897 1277.9 264.772C1276.26 265.647 1274.86 266.926 1273.84 268.49C1271.3 272.775 1270.13 277.733 1270.49 282.7C1270.16 287.745 1271.32 292.776 1273.84 297.16C1275.1 298.986 1276.86 300.407 1278.91 301.254C1280.96 302.1 1283.21 302.334 1285.39 301.927C1287.57 301.521 1289.58 300.492 1291.19 298.964C1292.79 297.437 1293.92 295.476 1294.44 293.32H1327.63C1325.91 303.537 1320.59 312.801 1312.63 319.43C1304.51 325.887 1294.37 329.276 1284 329C1275.79 329.149 1267.67 327.219 1260.41 323.39C1253.64 319.72 1248.08 314.161 1244.41 307.39C1240.46 299.87 1238.5 291.47 1238.7 282.98V282.92L1238.59 282.78ZM1335.53 282.78C1335.33 274.382 1337.01 266.046 1340.45 258.38C1343.49 251.897 1348.24 246.366 1354.19 242.38C1359.98 238.631 1366.74 236.676 1373.64 236.76C1379.2 236.605 1384.7 237.868 1389.64 240.43C1393.96 242.715 1397.56 246.157 1400.04 250.37V237.93H1431.34V328.1H1400.04V315.29C1397.51 319.524 1393.84 322.966 1389.46 325.23C1384.59 327.779 1379.15 329.039 1373.66 328.89C1366.77 328.95 1360.01 327 1354.21 323.28C1348.25 319.302 1343.5 313.768 1340.47 307.28C1337.06 299.601 1335.38 291.269 1335.55 282.87L1335.53 282.78ZM1400.02 282.78C1400.15 280.308 1399.8 277.834 1398.97 275.5C1398.15 273.163 1396.87 271.014 1395.21 269.18C1393.76 267.583 1391.98 266.318 1390 265.47C1386.99 264.16 1383.65 263.813 1380.44 264.477C1377.23 265.142 1374.3 266.784 1372.06 269.18C1368.78 272.923 1367.12 277.814 1367.44 282.78C1367.17 287.797 1368.82 292.73 1372.06 296.57C1373.53 298.196 1375.33 299.486 1377.35 300.349C1379.36 301.212 1381.54 301.628 1383.73 301.57C1385.89 301.613 1388.04 301.188 1390.02 300.325C1392 299.462 1393.77 298.181 1395.21 296.57C1396.85 294.67 1398.1 292.46 1398.87 290.071C1399.64 287.682 1399.93 285.162 1399.71 282.66L1400.02 282.78V282.78Z" fill="white"/>
</svg>
