<svg width="419" height="361" viewBox="0 0 419 361" fill="none" xmlns="http://www.w3.org/2000/svg">
<path d="M210.13 0.25C213.359 0.324029 216.525 1.16008 219.37 2.69L404.87 100.3C407.735 101.568 410.397 103.253 412.77 105.3C414.689 107.151 416.217 109.369 417.261 111.822C418.306 114.275 418.846 116.914 418.85 119.58V217.86C418.894 221.501 417.947 225.086 416.11 228.23C414.124 231.656 411.108 234.369 407.491 235.982C403.875 237.595 399.841 238.027 395.965 237.217C392.089 236.406 388.567 234.394 385.9 231.466C383.233 228.539 381.557 224.845 381.11 220.91C380.69 216.34 381.11 211.7 381.11 207.12V130.56L210.37 40.88L61.46 119L210.73 197.45L298.73 156.45C300.089 155.75 301.492 155.139 302.93 154.62C305.389 153.804 307.989 153.502 310.569 153.732C313.149 153.963 315.655 154.721 317.93 155.96C320.48 157.305 322.684 159.222 324.371 161.56C326.057 163.899 327.179 166.596 327.65 169.44C327.81 171.47 327.81 173.51 327.65 175.54V279.9C327.539 288.396 325.462 296.751 321.58 304.31C316.467 314.02 309.435 322.59 300.91 329.5C291.268 337.419 280.478 343.825 268.91 348.5C250.418 355.968 230.683 359.88 210.74 360.03C185.328 360.229 160.266 354.105 137.81 342.21C126.285 336.156 115.981 328.018 107.42 318.21C99.7009 309.477 94.5658 298.767 92.59 287.28C92.0405 282.635 91.8567 277.954 92.04 273.28V178.28L11.04 135.58C7.95548 133.939 5.38311 131.48 3.60572 128.472C1.82833 125.464 0.914731 122.024 0.965376 118.53C1.01602 115.037 2.02894 111.625 3.89278 108.67C5.75662 105.715 8.39921 103.331 11.53 101.78L200.68 2.4C203.377 0.971791 206.379 0.216993 209.43 0.199997L210.1 0.139999L210.13 0.25ZM130.56 198.25V280.12C131.246 285.867 133.912 291.196 138.1 295.19C147.154 304.413 158.284 311.336 170.56 315.38C198.076 325.106 228.204 324.394 255.23 313.38C265.904 309.171 275.499 302.624 283.31 294.22C287.044 290.405 289.377 285.439 289.93 280.13V202.49L221.49 234.39C219.142 235.637 216.655 236.6 214.08 237.26C211.317 237.87 208.453 237.87 205.69 237.26C202.12 236.012 198.68 234.418 195.42 232.5L130.56 198.5V198.32V198.25Z" fill="#124093"/>
</svg>
