<svg width="513" height="512" viewBox="0 0 513 512" fill="none" xmlns="http://www.w3.org/2000/svg">
<path d="M32.8601 0H373.21C380.289 0.737852 386.987 3.56828 392.45 8.13C396.193 11.3193 399.202 15.2791 401.273 19.7388C403.345 24.1985 404.428 29.0529 404.45 33.97C404.51 83.3433 404.51 132.72 404.45 182.1L446 140.52C449.78 136.67 453.63 132.73 458.45 130.17C463.917 127.187 470.054 125.648 476.281 125.697C482.509 125.746 488.621 127.382 494.04 130.45C504.41 136.22 511.15 147.3 512.42 159.01V164.77C511.827 170.409 510.056 175.86 507.22 180.77C504.32 185.69 500 189.51 496.03 193.53C465.503 224.07 434.967 254.61 404.42 285.15C404.42 349.11 404.42 413.07 404.42 477.03C404.615 485.874 401.391 494.453 395.42 500.98C389.79 507.23 381.75 510.89 373.47 511.98H32.97C27.9287 511.715 23.0074 510.345 18.5542 507.967C14.101 505.589 10.2248 502.262 7.19995 498.22C3.51557 493.159 1.19457 487.236 0.459961 481.02V32.44C0.904397 23.9873 4.45963 15.9976 10.4412 10.0087C16.4227 4.01981 24.408 0.454865 32.8601 0V0ZM20.4299 35C20.4299 180.647 20.4299 326.313 20.4299 472C20.4899 476.39 19.9399 481.17 22.4299 485.09C23.7741 487.323 25.7006 489.149 28.0029 490.372C30.3053 491.594 32.8968 492.167 35.5 492.03H369.43C372.046 492.171 374.651 491.593 376.962 490.359C379.273 489.125 381.202 487.282 382.54 485.03C385.1 480.83 384.37 475.73 384.48 471.03C384.48 415.81 384.48 360.59 384.48 305.37C378.12 309.13 371.11 311.61 364.48 314.76V461C365.03 466.65 360.29 472.13 354.55 472C317.88 472.13 281.2 472 244.55 472.07C241.74 472.07 238.72 471.86 236.46 469.98C234.463 468.451 233.115 466.227 232.685 463.749C232.255 461.271 232.775 458.722 234.14 456.61C235.156 455.084 236.561 453.857 238.21 453.055C239.859 452.253 241.692 451.906 243.52 452.05H344.52V323.66C334.24 328.15 324.05 332.88 313.73 337.27C308.29 339.6 301.47 335.86 300.42 330.07C299.47 326.28 301.59 322.77 303.04 319.43C311.76 299.87 320.467 280.303 329.16 260.73C331.75 252.73 339.22 248.13 344.52 242.08C344.52 181.413 344.52 120.72 344.52 60H287.76C287.77 65.8662 286.22 71.6296 283.27 76.7C280.508 81.3419 276.592 85.1903 271.903 87.8713C267.214 90.5523 261.911 91.9746 256.51 92C220.837 92.06 185.17 92.06 149.51 92C141.161 92.2073 133.07 89.0968 127.01 83.35C123.871 80.332 121.382 76.7036 119.696 72.6881C118.011 68.6725 117.165 64.3546 117.21 60H60.45V452H161.45C163.879 451.812 166.295 452.501 168.259 453.941C170.224 455.381 171.608 457.477 172.16 459.85C173.69 465.76 168.63 472.1 162.54 471.95C125.167 472.043 87.7899 472.043 50.4099 471.95C44.6399 472.13 39.8499 466.63 40.4099 460.95V58C40.4599 54.64 40.1899 51.25 40.6799 47.92C41.1505 45.6944 42.3725 43.6985 44.1406 42.2673C45.9087 40.8361 48.1151 40.0567 50.3899 40.06C72.6699 39.95 94.96 40.06 117.24 40.06V20C89.6 20 61.9601 19.93 34.3301 20C26.4701 19.82 19.7899 27.2 20.4099 35H20.4299ZM137.27 20C137.27 33.64 137.18 47.29 137.27 60.93C137.17 67.22 143.11 72.47 149.27 71.93C184.97 71.93 220.68 72 256.38 71.93C259.294 71.8967 262.081 70.7296 264.15 68.6761C266.218 66.6226 267.406 63.8442 267.46 60.93C267.61 47.27 267.46 33.6 267.51 19.93C224.07 19.93 180.63 19.93 137.19 19.93L137.27 20ZM287.6 20V40C307.88 40 328.157 40 348.43 40C351.43 40 354.43 39.77 357.36 40.47C359.552 41.1725 361.443 42.5945 362.726 44.5056C364.009 46.4167 364.61 48.7051 364.43 51C364.43 108.04 364.43 165.08 364.43 222.12C371.1 215.45 377.79 208.8 384.43 202.12C384.38 146.12 384.43 90.12 384.38 34.05C384.38 30.3491 382.915 26.7987 380.304 24.1752C377.694 21.5517 374.151 20.0685 370.45 20.05C342.83 19.94 315.21 20.05 287.59 20.05L287.6 20ZM458.6 156.25C466.36 163.99 474.107 171.733 481.84 179.48C486.24 175.11 491.78 170.75 492.31 164.07C493.9 154.07 484.51 144.42 474.48 145.72C467.57 146.03 463.09 151.72 458.6 156.25V156.25ZM354.28 260.55C362.033 268.303 369.78 276.057 377.52 283.81C407.593 253.77 437.647 223.72 467.68 193.66C459.97 185.87 452.19 178.14 444.42 170.4C414.367 200.44 384.32 230.49 354.28 260.55V260.55ZM329.85 308.23C339.963 303.757 350.067 299.27 360.16 294.77C354.58 289.12 348.94 283.53 343.33 277.92C338.83 288.02 334.337 298.123 329.85 308.23Z" fill="#124093"/>
<path d="M94.8401 120.68C96.9401 119.91 99.2199 120.02 101.42 119.98C121.77 120.06 142.13 119.92 162.48 120.04C165.101 120.066 167.607 121.12 169.459 122.976C171.31 124.831 172.359 127.339 172.38 129.96C172.46 151.293 172.46 172.66 172.38 194.06C172.354 196.674 171.305 199.174 169.459 201.025C167.612 202.875 165.114 203.929 162.5 203.96C141.12 204.027 119.74 204.027 98.3601 203.96C95.746 203.931 93.247 202.88 91.3984 201.032C89.5499 199.183 88.4986 196.684 88.47 194.07C88.37 173.07 88.47 152.07 88.47 131.07C88.2929 128.885 88.8196 126.701 89.9729 124.837C91.1263 122.973 92.8457 121.527 94.8799 120.71L94.8401 120.68ZM108.43 140V184H152.43V140H108.43Z" fill="#124093"/>
<path d="M279.39 132.2C280.36 131.288 281.502 130.579 282.749 130.114C283.996 129.649 285.324 129.438 286.654 129.493C287.984 129.548 289.29 129.868 290.495 130.434C291.699 131 292.779 131.801 293.67 132.79C295.371 134.733 296.262 137.256 296.158 139.837C296.054 142.418 294.963 144.86 293.11 146.66C278.13 161.667 263.13 176.667 248.11 191.66C247.172 192.59 246.058 193.325 244.834 193.823C243.61 194.32 242.299 194.57 240.978 194.558C239.656 194.546 238.351 194.272 237.136 193.752C235.921 193.233 234.821 192.477 233.9 191.53C226.567 184.197 219.233 176.863 211.9 169.53C210.196 167.683 209.251 165.262 209.251 162.749C209.251 160.236 210.198 157.815 211.902 155.968C213.606 154.122 215.944 152.984 218.448 152.783C220.953 152.581 223.442 153.33 225.42 154.88C230.73 159.95 235.81 165.25 241.02 170.42C253.86 157.74 266.51 144.86 279.36 132.2H279.39Z" fill="#124093"/>
<path d="M94.9198 230.65C97.0283 230.072 99.2176 229.845 101.4 229.98C121.78 230.06 142.15 229.92 162.53 230.04C165.132 230.079 167.616 231.13 169.455 232.971C171.295 234.812 172.344 237.298 172.38 239.9C172.46 261.3 172.46 282.707 172.38 304.12C172.336 306.713 171.286 309.188 169.452 311.022C167.618 312.857 165.143 313.906 162.55 313.95C141.15 314.043 119.747 314.043 98.34 313.95C95.7328 313.916 93.2418 312.866 91.3981 311.022C89.5543 309.178 88.5035 306.687 88.4698 304.08C88.3598 283.4 88.4698 262.71 88.4098 242.02C87.8898 237.33 90.2898 232.27 94.9198 230.65V230.65ZM108.43 250V294H152.43V250H108.43Z" fill="#124093"/>
<path d="M278.93 242.6C279.817 241.541 280.914 240.677 282.152 240.063C283.39 239.449 284.742 239.098 286.122 239.033C287.502 238.967 288.881 239.188 290.171 239.682C291.462 240.176 292.636 240.932 293.619 241.903C294.603 242.873 295.375 244.037 295.886 245.32C296.397 246.604 296.637 247.98 296.59 249.361C296.544 250.742 296.211 252.098 295.614 253.344C295.016 254.59 294.167 255.699 293.12 256.6C278.65 271.16 264.12 285.6 249.6 300.18C247.07 303.01 243.36 305.18 239.44 304.36C236.02 303.92 233.65 301.25 231.36 298.94C224.94 292.39 218.36 286.02 211.91 279.47C210.21 277.615 209.273 275.186 209.284 272.67C209.295 270.154 210.255 267.734 211.972 265.894C213.688 264.054 216.035 262.929 218.544 262.743C221.054 262.557 223.541 263.323 225.51 264.89C230.82 269.89 235.85 275.27 241.11 280.37L278.93 242.55V242.6Z" fill="#124093"/>
<path d="M94.8401 340.68C96.9714 340.077 99.1894 339.841 101.4 339.98C121.76 340.06 142.13 339.92 162.49 340.04C165.106 340.069 167.606 341.121 169.455 342.972C171.304 344.823 172.354 347.324 172.38 349.94C172.51 370.29 172.38 390.66 172.45 411.02C172.45 413.87 172.53 417.02 170.8 419.42C169.781 420.939 168.379 422.163 166.735 422.967C165.092 423.771 163.265 424.127 161.44 424C140.44 424 119.38 424.06 98.3501 423.95C95.7377 423.919 93.2412 422.866 91.3948 421.018C89.5484 419.17 88.4985 416.672 88.47 414.06C88.37 393.06 88.47 371.99 88.47 350.96C88.3058 348.787 88.8389 346.619 89.9917 344.77C91.1445 342.922 92.8568 341.489 94.8799 340.68H94.8401ZM108.43 360V404H152.43V360H108.43Z" fill="#124093"/>
<path d="M222.87 352.41C224.658 350.621 227.056 349.576 229.583 349.485C232.111 349.395 234.578 350.264 236.49 351.92C241.96 357.1 247.15 362.57 252.49 367.85C257.82 362.62 262.99 357.22 268.38 352.05C270.265 350.324 272.743 349.391 275.298 349.442C277.854 349.494 280.291 350.527 282.106 352.327C283.92 354.127 284.972 356.557 285.044 359.112C285.115 361.667 284.201 364.151 282.49 366.05C277.34 371.49 271.89 376.65 266.65 382.05C271.89 387.39 277.31 392.55 282.46 397.97C284.15 399.871 285.048 402.348 284.969 404.891C284.89 407.434 283.84 409.85 282.035 411.642C280.229 413.435 277.806 414.467 275.263 414.528C272.719 414.589 270.249 413.674 268.36 411.97C262.97 406.82 257.82 401.42 252.49 396.2C247.11 401.47 241.93 406.95 236.49 412.12C234.52 413.628 232.06 414.349 229.587 414.144C227.115 413.94 224.807 412.823 223.112 411.012C221.416 409.201 220.455 406.824 220.414 404.344C220.373 401.863 221.255 399.456 222.89 397.59C228.02 392.37 233.26 387.25 238.4 382.05C233.12 376.67 227.67 371.46 222.46 366.05C220.811 364.152 219.938 361.703 220.014 359.19C220.09 356.677 221.11 354.285 222.87 352.49V352.41Z" fill="#124093"/>
<path d="M198.85 452.69C200.768 451.947 202.869 451.814 204.866 452.308C206.862 452.802 208.658 453.901 210.008 455.453C211.358 457.005 212.196 458.936 212.409 460.982C212.621 463.028 212.197 465.09 211.195 466.887C210.193 468.683 208.661 470.127 206.809 471.021C204.956 471.915 202.873 472.216 200.843 471.883C198.813 471.55 196.935 470.599 195.465 469.159C193.995 467.72 193.005 465.863 192.63 463.84C192.204 461.548 192.593 459.179 193.729 457.143C194.865 455.107 196.676 453.532 198.85 452.69V452.69Z" fill="#124093"/>
</svg>
