<svg width="25" height="25" viewBox="0 0 269 269" fill="none" xmlns="http://www.w3.org/2000/svg">
<path d="M122.975 1.27695C153.922 -1.33773 184.816 6.87799 210.375 24.5196C235.935 42.1611 254.573 68.1331 263.103 97.9952C271.633 127.857 269.526 159.755 257.142 188.236C244.758 216.716 222.865 240.011 195.207 254.137C167.549 268.263 135.843 272.344 105.51 265.681C75.1761 259.019 48.0987 242.026 28.9065 217.61C9.71426 193.193 -0.400922 162.868 0.290196 131.819C0.981314 100.77 12.4358 70.9255 32.6955 47.387C55.5828 20.7791 88.002 4.22113 122.975 1.27695V1.27695ZM124.235 21.8669C97.0296 24.2798 71.6094 36.4332 52.649 56.0924C33.6886 75.7515 22.4627 101.595 21.0356 128.87C19.6085 156.145 28.0761 183.019 44.8814 204.55C61.6867 226.08 85.6999 240.82 112.505 246.059C139.311 251.297 167.107 246.683 190.781 233.064C214.456 219.445 232.419 197.737 241.366 171.931C250.313 146.125 249.643 117.957 239.479 92.6059C229.315 67.2548 210.341 46.4251 186.045 33.9469C166.996 24.1684 145.563 19.9935 124.235 21.9069V21.8669Z" fill="#124093"/>
<path d="M123.945 72.9172C123.955 70.1881 125.048 67.5745 126.984 65.6513C128.92 63.7281 131.541 62.6529 134.27 62.6622C137 62.6715 139.613 63.7645 141.536 65.7008C143.46 67.6371 144.535 70.2581 144.525 72.9872C144.525 90.1672 144.525 107.347 144.525 124.527C161.725 124.527 178.925 124.527 196.135 124.527C198.81 124.611 201.348 125.732 203.21 127.653C205.073 129.575 206.115 132.146 206.115 134.822C206.115 137.498 205.073 140.069 203.21 141.991C201.348 143.913 198.81 145.034 196.135 145.117C178.945 145.117 161.755 145.117 144.565 145.117C144.565 161.231 144.565 177.337 144.565 193.437C144.698 195.504 144.554 197.579 144.135 199.607C143.505 201.712 142.218 203.56 140.463 204.882C138.708 206.204 136.577 206.931 134.38 206.956C132.183 206.982 130.035 206.305 128.25 205.025C126.465 203.744 125.135 201.926 124.455 199.837C123.765 197.787 123.975 195.577 123.945 193.447C123.945 177.347 123.945 161.237 123.945 145.117C106.775 145.117 89.5954 145.117 72.4254 145.117C69.7506 145.034 67.2132 143.913 65.3506 141.991C63.4879 140.069 62.4464 137.498 62.4464 134.822C62.4464 132.146 63.4879 129.575 65.3506 127.653C67.2132 125.732 69.7506 124.611 72.4254 124.527C89.6054 124.527 106.795 124.527 123.985 124.527C123.945 107.327 123.905 90.1172 123.945 72.9172Z" fill="#124093"/>
</svg>
