<svg width="72" height="80" viewBox="0 0 72 80" fill="none" xmlns="http://www.w3.org/2000/svg">
<path d="M16.3938 0H18.0411C21.2384 0.152721 24.3294 1.1956 26.9657 3.01106C29.6019 4.82652 31.6786 7.34235 32.9615 10.2749C34.2444 13.2075 34.6826 16.4401 34.2266 19.6083C33.7706 22.7766 32.4386 25.7545 30.3807 28.2062C31.4168 29.2116 32.0312 30.574 32.0988 32.0162C32.1796 35.139 32.2301 38.2516 32.311 41.3744C33.3767 41.2008 34.4686 41.2864 35.4942 41.6242C36.5198 41.9619 37.4489 42.5418 38.2028 43.3148C39.4349 42.9688 40.7393 42.9747 41.9681 43.332C43.197 43.6892 44.3013 44.3834 45.1559 45.336C46.1516 45.0962 47.1886 45.0843 48.1896 45.3013C49.1905 45.5183 50.1295 45.9585 50.9366 46.5892C52.3313 47.6542 53.2731 49.206 53.5742 50.9348C53.707 51.8142 53.7544 52.7043 53.7157 53.5927V60.7883C53.7818 62.2537 53.7107 63.7221 53.5035 65.1743C52.8365 68.8428 51.2903 72.2486 50.4717 75.8969C50.26 76.8101 50.1281 77.74 50.0775 78.6761C50.022 79.0139 49.8595 79.3248 49.6139 79.5632C49.3682 79.8016 49.0525 79.9547 48.7132 80H25.6814C25.4605 79.9762 25.2466 79.9086 25.0522 79.801C24.8578 79.6934 24.6869 79.548 24.5495 79.3734C24.2752 78.8996 24.1551 78.3521 24.2059 77.807C24.2012 76.216 23.7683 74.6556 22.9527 73.2895C22.1038 71.9353 20.9921 70.7731 20.0321 69.4896C18.6586 67.6737 17.5902 65.6461 16.8688 63.4866C16.4734 61.359 16.6194 59.1661 17.2933 57.1097C17.6597 55.5537 18.4341 54.1234 19.5368 52.9661C20.2017 52.3897 20.9606 51.9317 21.7804 51.6119V33.7443C18.7623 34.583 15.5723 34.5806 12.5555 33.7374C9.53862 32.8941 6.80974 31.2421 4.66395 28.96C2.51816 26.6779 1.03712 23.8525 0.381047 20.7895C-0.27503 17.7265 -0.0811851 14.5424 0.941605 11.5816C1.01424 11.3776 1.12866 11.1909 1.27756 11.0336C1.42646 10.8763 1.60655 10.7519 1.80631 10.6682C2.00606 10.5845 2.2211 10.5434 2.43765 10.5475C2.65419 10.5517 2.86749 10.601 3.0639 10.6923C3.42388 10.8697 3.70384 11.1762 3.84804 11.5508C3.99224 11.9253 3.9901 12.3404 3.84206 12.7135C3.00298 15.2256 2.89064 17.9236 3.51796 20.4967C4.14528 23.0699 5.48675 25.4135 7.38783 27.2575C9.28891 29.1016 11.6723 30.371 14.2633 30.9197C16.8544 31.4684 19.5477 31.2739 22.0331 30.3588C22.4398 29.2475 23.1949 28.2974 24.1857 27.6503C25.1244 27.0637 26.2242 26.7879 27.3287 26.8621C29.4507 24.5847 30.7568 21.6674 31.0422 18.5677C31.3276 15.468 30.5762 12.3612 28.9056 9.73466C27.2351 7.10809 24.7401 5.11025 21.8118 4.05447C18.8835 2.9987 15.6876 2.94471 12.7253 3.90096C12.3725 4.04454 11.9799 4.05724 11.6186 3.93678C11.2572 3.81631 10.9508 3.57063 10.7546 3.24406C10.6481 3.05555 10.5818 2.847 10.5599 2.63158C10.5381 2.41615 10.5611 2.19853 10.6276 1.99246C10.6941 1.78638 10.8025 1.59633 10.9462 1.4343C11.0898 1.27226 11.2655 1.14176 11.4621 1.05104C13.0479 0.468921 14.7084 0.115039 16.3938 0V0ZM26.025 30.2375C25.6635 30.449 25.3674 30.7563 25.1694 31.1255C24.9715 31.4946 24.8794 31.9113 24.9032 32.3295V59.6766C24.9351 60.0667 24.8217 60.4548 24.5848 60.7663C24.3479 61.0779 24.0042 61.2908 23.6197 61.3643C23.4069 61.4015 23.1887 61.3943 22.9789 61.3432C22.769 61.292 22.572 61.198 22.4002 61.067C22.2284 60.936 22.0855 60.7709 21.9806 60.5821C21.8757 60.3932 21.811 60.1847 21.7905 59.9697C21.7905 58.3527 21.7905 56.7357 21.7905 55.1187C21.4234 55.4677 21.1252 55.8825 20.9113 56.3416C20.3175 57.6659 19.9486 59.0799 19.8198 60.5255C19.7045 61.2916 19.7527 62.0735 19.9613 62.8196C20.5721 64.4999 21.4231 66.0828 22.4878 67.5189C23.7262 68.9584 24.8641 70.4813 25.8936 72.0768C26.7002 73.5513 27.1825 75.181 27.3085 76.857H47.0861C47.6709 73.9647 48.4715 71.1203 49.4813 68.3476C50.1528 66.5112 50.5347 64.5814 50.6131 62.6276V52.5215C50.6522 51.4009 50.2451 50.3105 49.4813 49.4896C49.0872 49.0896 48.614 48.776 48.092 48.569C47.57 48.3619 47.0106 48.2659 46.4494 48.287C46.5434 48.805 46.498 49.3386 46.3181 49.8332C46.1671 50.1308 45.9245 50.3719 45.6261 50.5211C45.3277 50.6704 44.9892 50.7197 44.6606 50.6619C44.3245 50.6041 44.0175 50.4353 43.7885 50.1825C43.5595 49.9297 43.4218 49.6075 43.3974 49.2673C43.3911 48.6747 43.2158 48.0962 42.8921 47.5998C42.4991 47.1149 41.9904 46.7367 41.4129 46.5C40.8354 46.2634 40.2076 46.1759 39.5874 46.2456C39.6783 46.9934 39.8097 47.903 39.173 48.4588C38.9786 48.6354 38.7428 48.7603 38.4875 48.822C38.2321 48.8836 37.9654 48.8801 37.7117 48.8116C37.4581 48.7432 37.2258 48.6121 37.0361 48.4303C36.8464 48.2486 36.7055 48.0221 36.6263 47.7716C36.616 47.0667 36.4394 46.3741 36.1109 45.7504C35.6832 45.1929 35.0912 44.7837 34.4185 44.5806C33.7458 44.3775 33.0263 44.3908 32.3615 44.6185C32.3615 46.003 32.4323 47.3876 32.4424 48.7721C32.4424 49.1849 32.2784 49.5807 31.9865 49.8726C31.6947 50.1645 31.2988 50.3285 30.886 50.3285C30.4733 50.3285 30.0774 50.1645 29.7855 49.8726C29.4937 49.5807 29.3297 49.1849 29.3297 48.7721C29.1983 43.3047 29.0871 37.8373 28.9659 32.3598C28.9714 31.9865 28.8903 31.617 28.729 31.2803C28.5677 30.9437 28.3305 30.649 28.0361 30.4194C27.7529 30.2009 27.4133 30.0677 27.057 30.0355C26.7008 30.0032 26.3428 30.0733 26.025 30.2375Z" fill="#124093"/>
<path d="M54.1503 0H55.5146C58.5196 0.170914 61.4296 1.11423 63.9633 2.73876C67.3974 4.96183 69.9214 8.34175 71.0776 12.2658C72.2338 16.1899 71.9458 20.3983 70.2657 24.1283C68.5857 27.8582 65.6248 30.8628 61.9198 32.5972C58.2149 34.3317 54.0111 34.6813 50.0705 33.5827C46.1299 32.484 42.7134 30.0098 40.4403 26.6086C38.1672 23.2074 37.188 19.1044 37.6802 15.0432C38.1723 10.9821 40.1033 7.23167 43.123 4.47189C46.1427 1.7121 50.0513 0.125604 54.1402 0H54.1503ZM52.8972 3.24406C50.1495 3.59394 47.5665 4.74834 45.473 6.56212C43.3796 8.3759 41.8691 10.7681 41.1314 13.438C40.3937 16.1078 40.4618 18.9362 41.3271 21.5675C42.1925 24.1987 43.8164 26.5155 45.9947 28.2264C47.8147 29.6559 49.9597 30.6136 52.2391 31.0143C54.5185 31.4151 56.8615 31.2465 59.06 30.5235C61.2585 29.8005 63.2443 28.5455 64.8409 26.8701C66.4375 25.1948 67.5954 23.1509 68.2118 20.9201C68.8281 18.6894 68.8837 16.3409 68.3738 14.0835C67.8638 11.8261 66.804 9.72963 65.2885 7.9805C63.7731 6.23137 61.8489 4.88376 59.6871 4.05745C57.5254 3.23114 55.1929 2.95173 52.8972 3.24406V3.24406Z" fill="#124093"/>
<path d="M5.70162 4.64887C5.96306 4.57056 6.24048 4.56237 6.50609 4.62513C6.77169 4.68788 7.01613 4.81938 7.21487 5.00643C7.41361 5.19348 7.55966 5.42949 7.63838 5.69081C7.71711 5.95212 7.72575 6.22955 7.66341 6.49525C7.60107 6.76095 7.46996 7.00559 7.28323 7.20462C7.0965 7.40366 6.86071 7.55009 6.59952 7.62923C6.33833 7.70837 6.06092 7.71744 5.79511 7.65552C5.52931 7.5936 5.28447 7.46288 5.08515 7.27646C4.89099 7.08675 4.74911 6.85011 4.67324 6.58948C4.59738 6.32884 4.59008 6.05303 4.65209 5.78875C4.71409 5.52447 4.84328 5.28068 5.02715 5.08098C5.21102 4.88128 5.44335 4.73244 5.70162 4.64887V4.64887Z" fill="#124093"/>
<path d="M47.1063 9.30778C47.8071 8.67545 48.6811 8.26729 49.6159 8.13581C50.5506 8.00434 51.5033 8.15556 52.3514 8.57003C53.2318 9.11565 54.0199 9.79793 54.6859 10.5913C55.3288 9.84274 56.0779 9.19242 56.9092 8.66098C57.747 8.21685 58.6999 8.03771 59.6417 8.14731C60.5836 8.2569 61.4699 8.65005 62.1833 9.27468C62.8967 9.89931 63.4035 10.7259 63.6365 11.645C63.8696 12.5642 63.8179 13.5324 63.4883 14.4215C62.9918 15.511 62.2478 16.4696 61.3155 17.2209C62.0578 17.8632 62.7045 18.6085 63.2357 19.4341C63.6733 20.2667 63.8498 21.2118 63.7423 22.1463C63.6347 23.0807 63.248 23.961 62.6327 24.6724C62.0173 25.3837 61.2018 25.8931 60.2927 26.1341C59.3835 26.3751 58.4227 26.3365 57.5358 26.0233C56.4214 25.5259 55.4411 24.7708 54.6758 23.8202C53.9248 24.7486 52.9705 25.492 51.8865 25.993C51.0161 26.3171 50.0689 26.3749 49.1655 26.1589C48.2621 25.9429 47.4435 25.463 46.8138 24.7802C46.1841 24.0974 45.7719 23.2427 45.6296 22.3248C45.4873 21.4069 45.6214 20.4675 46.0148 19.6261C46.54 18.7017 47.2243 17.8772 48.0361 17.1905C47.1865 16.4817 46.4799 15.6174 45.9542 14.6438C45.5667 13.7451 45.4694 12.7479 45.676 11.7913C45.8825 10.8348 46.3825 9.96651 47.1063 9.30778V9.30778ZM49.7339 11.329C49.51 11.4112 49.308 11.5437 49.1435 11.7164C48.979 11.889 48.8564 12.0971 48.7851 12.3247C48.7138 12.5522 48.6958 12.7931 48.7324 13.0288C48.769 13.2644 48.8592 13.4885 48.9961 13.6837C49.7844 14.6034 50.7344 15.3815 51.5226 16.3012C51.745 16.5999 51.8521 16.9688 51.8242 17.3401C51.7964 17.7114 51.6355 18.0602 51.3711 18.3224C50.6434 19.0905 49.8653 19.808 49.1376 20.5761C48.8711 20.8729 48.7288 21.2607 48.7399 21.6595C48.7511 22.0582 48.915 22.4375 49.1977 22.7189C49.4804 23.0003 49.8604 23.1624 50.2592 23.1718C50.658 23.1811 51.0452 23.037 51.3407 22.7691C52.1088 22.0415 52.8264 21.2633 53.5944 20.5357C53.8695 20.2623 54.2372 20.1023 54.6246 20.0874C55.0121 20.0724 55.3911 20.2035 55.6864 20.4548C56.4949 21.2027 57.2326 22.0213 58.0411 22.7792C58.3314 23.0322 58.7051 23.1686 59.09 23.162C59.475 23.1555 59.8438 23.0065 60.1253 22.7438C60.4068 22.4812 60.581 22.1235 60.6141 21.7399C60.6473 21.3564 60.5371 20.9741 60.3049 20.667C59.5469 19.8181 58.6879 19.0703 57.9198 18.2315C57.6688 17.9393 57.5358 17.5639 57.5471 17.1788C57.5583 16.7937 57.7128 16.4267 57.9805 16.1496C58.7384 15.3512 59.557 14.6135 60.3049 13.7949C60.5489 13.488 60.6681 13.1003 60.6386 12.7093C60.6092 12.3183 60.4332 11.9528 60.1459 11.686C59.8586 11.4191 59.4812 11.2705 59.0891 11.2699C58.697 11.2693 58.3191 11.4167 58.031 11.6827C57.2326 12.4306 56.4949 13.2492 55.6864 13.997C55.393 14.2467 55.0168 14.3779 54.6317 14.3648C54.2466 14.3517 53.8803 14.1953 53.6045 13.9263C52.8364 13.1986 52.1088 12.4104 51.3306 11.6726C51.1252 11.4686 50.8667 11.3263 50.5844 11.2619C50.3021 11.1976 50.0074 11.2139 49.7339 11.3088V11.329Z" fill="#124093"/>
<path d="M21.8612 8.83281C22.8442 8.58252 23.8818 8.6577 24.8184 9.04707C25.755 9.43644 26.5401 10.119 27.0559 10.9924C27.5718 11.8657 27.7905 12.8828 27.6793 13.891C27.5681 14.8992 27.133 15.8442 26.4393 16.5842C24.1048 18.9389 21.7501 21.2734 19.365 23.6585C18.7869 24.344 18.0751 24.9045 17.2731 25.3058C16.4255 25.6791 15.4868 25.7949 14.5739 25.6385C13.6609 25.4822 12.8142 25.0607 12.1392 24.4265C10.8254 23.133 9.5318 21.8192 8.22811 20.5155C7.54099 19.8967 7.04633 19.0933 6.80314 18.2012C6.57415 17.3571 6.58628 16.4658 6.83818 15.6283C7.09007 14.7908 7.57162 14.0407 8.22823 13.463C8.88484 12.8853 9.6902 12.5032 10.553 12.36C11.4157 12.2168 12.3013 12.3183 13.1093 12.6529C13.9803 13.0625 14.7498 13.6595 15.363 14.4013L19.3145 10.4599C19.9809 9.67429 20.8683 9.10736 21.8612 8.83281V8.83281ZM22.407 11.9455C22.1771 12.061 21.9687 12.2148 21.7905 12.4003C20.0422 14.1486 18.3039 15.897 16.5555 17.6352C16.2989 17.9051 15.9544 18.0747 15.584 18.1136C15.2136 18.1525 14.8414 18.0582 14.5343 17.8475C13.746 17.1805 13.0891 16.3619 12.3009 15.6949C11.9855 15.4849 11.6044 15.3972 11.229 15.4481C10.8536 15.4991 10.5097 15.6852 10.2617 15.9716C10.0138 16.258 9.87877 16.6251 9.88207 17.0039C9.88537 17.3827 10.0267 17.7473 10.2796 18.0294L14.3221 22.0718C14.4731 22.2195 14.6522 22.3354 14.8489 22.4125C15.0455 22.4897 15.2557 22.5265 15.4668 22.5209C15.678 22.5152 15.8858 22.4672 16.0781 22.3796C16.2703 22.2921 16.443 22.1668 16.5859 22.0112C19.0922 19.5183 21.5917 17.0154 24.0846 14.5023C24.3603 14.2514 24.5395 13.912 24.5912 13.5428C24.6428 13.1737 24.5637 12.7981 24.3676 12.4811C24.152 12.1802 23.8368 11.9654 23.4779 11.8748C23.119 11.7841 22.7396 11.8235 22.407 11.9859V11.9455Z" fill="#124093"/>
</svg>
