<svg width="80" height="80" viewBox="0 0 80 80" fill="none" xmlns="http://www.w3.org/2000/svg">
<path d="M65.2114 0H65.5209C65.8494 0.0518855 66.1483 0.220293 66.3628 0.474409C66.5773 0.728525 66.6931 1.05136 66.6891 1.38384C66.6891 19.512 66.6891 37.6381 66.6891 55.7624C66.7221 56.0611 66.6582 56.3626 66.5068 56.6223C66.3553 56.882 66.1244 57.0862 65.848 57.2046C64.563 57.7184 63.2547 58.1622 61.9581 58.6527C54.6182 61.6135 47.5064 65.1108 40.6804 69.1161C40.3939 69.2816 40.0561 69.3349 39.7325 69.2659C39.4089 69.1969 39.1223 69.0104 38.9282 68.7424C38.5603 68.1585 38.7121 67.4812 38.6829 66.8506C38.6829 49.7423 38.6829 32.6322 38.6829 15.52C36.5912 14.6802 34.4159 14.0656 32.1939 13.6866C30.2306 13.3725 28.2397 13.2649 26.2539 13.3654C20.1115 13.5143 14.0008 14.297 8.01926 15.701V71.6035C14.2652 70.1837 20.6434 69.4263 27.0483 69.3438C31.5195 69.2453 35.9596 70.1096 40.0672 71.878C43.1344 70.7876 46.3078 70.0224 49.5349 69.5949C52.704 69.2856 55.8947 69.268 59.067 69.5424C63.4277 69.8408 67.7543 70.5168 71.9982 71.5627C71.9982 52.9674 71.9982 34.3683 71.9982 15.7653C71.3733 15.631 70.725 15.5609 70.1117 15.3682C69.9435 15.3128 69.7883 15.2238 69.6555 15.1066C69.5227 14.9895 69.4152 14.8466 69.3393 14.6866C69.2633 14.5267 69.2207 14.353 69.2139 14.1761C69.2072 13.9991 69.2364 13.8227 69.2998 13.6574C69.4073 13.3664 69.6135 13.1223 69.8824 12.9676C70.1513 12.8129 70.466 12.7574 70.7717 12.8107C71.7237 12.9684 72.6641 13.1611 73.6044 13.3946C73.9244 13.4729 74.2058 13.6632 74.3976 13.9309C74.5894 14.1987 74.6789 14.5263 74.6499 14.8544C74.6499 34.2282 74.6499 53.6019 74.6499 72.9757C74.6862 73.2608 74.6426 73.5504 74.524 73.8123C74.4054 74.0741 74.2165 74.2979 73.9782 74.4588C73.2774 74.8792 72.4713 74.4588 71.7646 74.2778C66.9842 73.0571 62.0916 72.3274 57.1629 72.0999C55.4107 72.0707 53.6234 71.9539 51.8537 72.0531C48.2673 72.3262 44.7325 73.0703 41.3404 74.2661C41.3404 75.2879 41.3404 76.3098 41.3404 77.3316C51.9355 77.3316 62.5324 77.3316 73.1313 77.3316C73.6895 77.3555 74.2465 77.2633 74.7671 77.0609C75.2878 76.8584 75.7607 76.5501 76.156 76.1555C76.5513 75.7609 76.8604 75.2885 77.0636 74.7683C77.2668 74.2481 77.3598 73.6913 77.3366 73.1333C77.3366 55.9434 77.3366 38.7573 77.3366 21.5751C77.3071 21.3969 77.3138 21.2146 77.3564 21.039C77.399 20.8635 77.4766 20.6984 77.5845 20.5535C77.6924 20.4086 77.8284 20.287 77.9844 20.1959C78.1404 20.1048 78.3132 20.0461 78.4924 20.0233C78.6717 20.0006 78.8536 20.0141 79.0275 20.0633C79.2014 20.1124 79.3635 20.1961 79.5042 20.3094C79.645 20.4226 79.7614 20.5631 79.8466 20.7224C79.9318 20.8817 79.984 21.0565 80 21.2364V73.3727C79.9815 74.3313 79.7607 75.2752 79.3521 76.1426C78.9434 77.0099 78.3562 77.7812 77.6287 78.406C76.4291 79.4047 74.9258 79.9668 73.365 80H6.53574C4.80143 79.9519 3.15286 79.2354 1.93478 78.0003C0.716708 76.7651 0.0234516 75.1071 0 73.3727V21.289C0.0139221 21.0959 0.0692218 20.9082 0.162166 20.7384C0.255111 20.5686 0.383516 20.4208 0.538653 20.3051C0.69379 20.1893 0.872025 20.1083 1.06126 20.0675C1.2505 20.0267 1.44631 20.0271 1.63539 20.0686C1.95899 20.1547 2.24085 20.3542 2.42955 20.6308C2.61826 20.9073 2.70124 21.2425 2.66336 21.5751C2.66336 38.7612 2.66336 55.9473 2.66336 73.1333C2.64162 73.7655 2.76694 74.394 3.02943 74.9695C3.29193 75.545 3.68444 76.0518 4.17609 76.4499C4.94318 77.0489 5.8957 77.3608 6.86865 77.3316C17.4637 77.3316 28.0626 77.3316 38.6654 77.3316V74.2019C35.0315 72.6906 31.1236 71.949 27.1884 72.0239C20.3802 72.1026 13.6043 72.9726 6.99714 74.6165C6.78503 74.6638 6.56472 74.6601 6.35432 74.6057C6.14392 74.5512 5.94946 74.4476 5.78694 74.3034C5.62441 74.1592 5.49847 73.9784 5.41947 73.776C5.34047 73.5736 5.31069 73.3554 5.33256 73.1392C5.33256 53.707 5.33256 34.2768 5.33256 14.8486C5.30617 14.5121 5.40211 14.1774 5.60276 13.9061C5.80341 13.6347 6.09529 13.4448 6.42476 13.3713C12.096 11.9289 17.8975 11.0585 23.7424 10.7729C26.4525 10.7029 29.1801 10.5394 31.8785 10.954C34.8496 11.3499 37.7464 12.1801 40.476 13.418C40.7712 13.5516 41.0147 13.7779 41.1697 14.0624C41.3246 14.3469 41.3825 14.6741 41.3346 14.9945C41.3346 31.8809 41.3346 48.7692 41.3346 65.6594C48.6238 61.5722 56.1174 57.8293 63.9965 55.0266C63.9965 37.7783 63.9965 20.5299 63.9965 3.28151C57.5955 5.94922 51.401 9.08752 45.464 12.6706C44.9383 12.9684 44.3893 13.418 43.741 13.2837C43.3991 13.2118 43.0989 13.0091 42.9047 12.7188C42.7104 12.4286 42.6374 12.0739 42.7013 11.7305C42.76 11.513 42.8643 11.3104 43.0073 11.1362C43.1503 10.9621 43.3287 10.8203 43.5307 10.7204C45.6859 9.40661 47.8995 8.20962 50.0898 6.96592C54.9561 4.28335 60.0098 1.95533 65.2114 0V0Z" fill="#124093"/>
<path d="M58.2025 14.7551C58.4289 14.6763 58.6723 14.6594 58.9074 14.7063C59.1425 14.7532 59.3608 14.8621 59.5395 15.0218C59.7183 15.1814 59.8511 15.386 59.9241 15.6143C59.9971 15.8426 60.0077 16.0862 59.9547 16.32C59.7211 17.2601 58.6289 17.3827 57.8696 17.6921C54.3652 19.0526 50.9484 20.7226 47.5549 22.3633C47.3391 22.4987 47.0945 22.5813 46.8409 22.6046C46.5872 22.628 46.3316 22.5913 46.0948 22.4976C45.9316 22.4187 45.7863 22.3074 45.6677 22.1704C45.5491 22.0334 45.4598 21.8736 45.4051 21.7009C45.3504 21.5281 45.3316 21.3461 45.3497 21.1658C45.3679 20.9855 45.4227 20.8109 45.5107 20.6525C45.7507 20.3048 46.094 20.0413 46.4919 19.8993C50.3351 18.0658 54.1491 16.1331 58.2025 14.7551Z" fill="#124093"/>
<path d="M58.2025 22.7487C58.3825 22.6847 58.5742 22.6601 58.7645 22.6767C58.9548 22.6932 59.1393 22.7505 59.3055 22.8447C59.4717 22.9389 59.6157 23.0677 59.7278 23.2224C59.8398 23.3771 59.9172 23.5541 59.9547 23.7414C60.014 24.065 59.9529 24.3991 59.783 24.6809C59.613 24.9626 59.3459 25.1726 59.0319 25.2712C55.115 26.7479 51.2868 28.4499 47.5666 30.3686C47.3576 30.5006 47.122 30.5848 46.8766 30.6151C46.6312 30.6454 46.3822 30.621 46.1473 30.5438C45.9837 30.4732 45.836 30.3703 45.713 30.2413C45.59 30.1124 45.4943 29.9599 45.4316 29.7931C45.3689 29.6263 45.3405 29.4486 45.3481 29.2706C45.3556 29.0926 45.399 28.9179 45.4756 28.757C45.7445 28.3269 46.1591 28.0078 46.6438 27.8578C48.4719 26.9878 50.2708 26.0477 52.134 25.242C54.1082 24.2973 56.1343 23.4649 58.2025 22.7487V22.7487Z" fill="#124093"/>
<path d="M21.6515 24.1792C23.0766 24.0216 24.5134 24.0332 25.9502 24.0099C28.1133 24.0361 30.2672 24.2945 32.375 24.7806C32.5561 24.837 32.7228 24.932 32.8637 25.0589C33.0046 25.1859 33.1163 25.3418 33.1912 25.516C33.2662 25.6902 33.3025 25.8785 33.2977 26.0681C33.2929 26.2576 33.2471 26.4439 33.1635 26.6141C33.0109 26.9013 32.7631 27.1266 32.4626 27.2512C32.1621 27.3759 31.8276 27.3921 31.5164 27.2972C28.0216 26.6234 24.4429 26.4993 20.9097 26.9294C18.9181 27.1404 16.9419 27.4778 14.9931 27.9395C14.824 27.9813 14.6483 27.9894 14.476 27.9633C14.3038 27.9372 14.1384 27.8774 13.9892 27.7874C13.8401 27.6974 13.7101 27.5789 13.6068 27.4387C13.5034 27.2985 13.4287 27.1393 13.3869 26.9702C13.3451 26.8012 13.337 26.6255 13.3631 26.4533C13.3892 26.2811 13.449 26.1157 13.539 25.9666C13.6291 25.8175 13.7476 25.6876 13.8878 25.5843C14.0281 25.481 14.1873 25.4063 14.3565 25.3645C16.7516 24.7706 19.1915 24.3742 21.6515 24.1792V24.1792Z" fill="#124093"/>
<path d="M58.004 30.8065C58.3066 30.6665 58.6493 30.639 58.9705 30.7289C59.2916 30.8188 59.5702 31.0202 59.7562 31.297C59.86 31.47 59.9232 31.6643 59.9412 31.8652C59.9593 32.0662 59.9316 32.2686 59.8602 32.4574C59.7888 32.6461 59.6757 32.8162 59.5292 32.955C59.3827 33.0938 59.2067 33.1977 59.0144 33.2589C54.996 34.6777 51.182 36.5988 47.333 38.4439C47.0818 38.5913 46.7908 38.6566 46.5006 38.6304C46.2105 38.6042 45.9358 38.4879 45.7151 38.2979C45.5598 38.1477 45.4429 37.9625 45.3741 37.7577C45.3053 37.5529 45.2868 37.3346 45.32 37.1212C45.3532 36.9077 45.4372 36.7054 45.5649 36.5312C45.6926 36.3569 45.8603 36.2159 46.0539 36.12C49.9288 34.1143 53.9191 32.3401 58.004 30.8065V30.8065Z" fill="#124093"/>
<path d="M21.9902 32.1553C25.3564 31.8447 28.7498 32.0217 32.0654 32.6808C32.334 32.7084 32.5896 32.8105 32.8032 32.9756C33.0168 33.1406 33.1801 33.3621 33.2745 33.615C33.3411 33.8108 33.361 34.0195 33.3325 34.2244C33.3041 34.4292 33.2281 34.6246 33.1106 34.7948C32.9931 34.9651 32.8374 35.1055 32.6559 35.2048C32.4744 35.3041 32.2722 35.3595 32.0654 35.3667C31.2068 35.3142 30.3833 35.0397 29.5306 34.958C25.041 34.4745 20.5025 34.7329 16.097 35.7229C15.3377 35.8806 14.3915 36.3068 13.7607 35.6236C13.5977 35.4585 13.4804 35.2537 13.4205 35.0296C13.3606 34.8054 13.3601 34.5695 13.4191 34.345C13.478 34.1206 13.5943 33.9154 13.7566 33.7495C13.9189 33.5836 14.1216 33.4628 14.3448 33.399C16.8521 32.7625 19.4104 32.3463 21.9902 32.1553V32.1553Z" fill="#124093"/>
<path d="M58.15 38.7651C58.3751 38.6762 58.62 38.6501 58.8588 38.6895C59.0976 38.7289 59.3212 38.8323 59.5058 38.9887C59.6904 39.1451 59.8292 39.3486 59.9072 39.5776C59.9852 39.8066 59.9996 40.0525 59.9489 40.289C59.7211 41.2642 58.588 41.3868 57.8112 41.7021C54.3068 43.0509 50.9601 44.6975 47.6134 46.3441C47.3912 46.4893 47.138 46.5802 46.8743 46.6096C46.6105 46.6391 46.3435 46.6061 46.0948 46.5134C45.9376 46.4337 45.7977 46.3236 45.6832 46.1896C45.5686 46.0557 45.4817 45.9004 45.4275 45.7327C45.3732 45.565 45.3526 45.3883 45.3669 45.2126C45.3812 45.037 45.43 44.8659 45.5107 44.7092C45.7627 44.3234 46.1371 44.0334 46.5737 43.8859C50.3585 42.0466 54.1433 40.1372 58.15 38.7651Z" fill="#124093"/>
<path d="M22.4283 40.108C25.6367 39.8635 28.8636 40.0599 32.0187 40.6919C32.2859 40.7179 32.5409 40.8166 32.7561 40.9772C32.9712 41.1377 33.1384 41.354 33.2394 41.6027C33.3075 41.799 33.3283 42.0085 33.3001 42.2143C33.2719 42.4202 33.1955 42.6164 33.0771 42.7871C32.9587 42.9578 32.8016 43.0982 32.6187 43.1968C32.4358 43.2953 32.2322 43.3494 32.0245 43.3544C31.2944 43.3194 30.5877 43.08 29.8576 42.9983C25.2675 42.4518 20.6177 42.6927 16.1086 43.7106C15.4486 43.8157 14.7477 44.1777 14.0936 43.8624C13.7963 43.72 13.5634 43.471 13.4412 43.1649C13.3189 42.8588 13.3162 42.518 13.4336 42.21C13.5237 41.9844 13.6705 41.7857 13.8597 41.6333C14.049 41.4809 14.2744 41.3799 14.5141 41.34C17.1123 40.7051 19.76 40.2929 22.4283 40.108V40.108Z" fill="#124093"/>
<path d="M58.1675 46.7527C58.3962 46.6675 58.644 46.6468 58.8837 46.6929C59.1235 46.739 59.3459 46.85 59.5268 47.014C59.7077 47.1779 59.84 47.3884 59.9092 47.6224C59.9785 47.8564 59.9821 48.105 59.9197 48.3409C59.6627 49.2693 58.5821 49.3802 57.8229 49.6955C54.3184 51.0385 50.96 52.6909 47.6016 54.3375C47.3798 54.4833 47.1269 54.575 46.8632 54.6054C46.5995 54.6358 46.3323 54.6041 46.0831 54.5127C45.923 54.4336 45.7805 54.3232 45.664 54.188C45.5475 54.0527 45.4594 53.8955 45.4049 53.7255C45.3504 53.5556 45.3307 53.3764 45.3468 53.1987C45.363 53.021 45.4147 52.8483 45.499 52.6909C45.7561 52.3087 46.1316 52.0215 46.5678 51.8735C50.376 50.04 54.1607 48.119 58.1675 46.7527Z" fill="#124093"/>
<path d="M22.8838 48.0725C25.9412 47.8634 29.0128 48.0597 32.0187 48.6564C32.2752 48.6794 32.5211 48.7698 32.7314 48.9185C32.9417 49.0672 33.1089 49.2689 33.216 49.503C33.2916 49.6894 33.3238 49.8905 33.3102 50.0912C33.2965 50.2919 33.2373 50.4868 33.1372 50.6612C33.037 50.8356 32.8984 50.9849 32.732 51.0979C32.5655 51.2108 32.3755 51.2844 32.1764 51.3131C31.3469 51.2343 30.5222 51.1115 29.7058 50.9453C25.1567 50.425 20.5526 50.6717 16.0853 51.6751C15.4019 51.7919 14.6309 52.1773 13.9826 51.7627C13.8254 51.6668 13.69 51.5391 13.5848 51.3879C13.4797 51.2367 13.4073 51.0653 13.3721 50.8846C13.3369 50.7038 13.3398 50.5178 13.3806 50.3382C13.4213 50.1587 13.4991 49.9896 13.6088 49.8417C13.9752 49.4626 14.4674 49.2301 14.993 49.1877C17.5883 48.6005 20.2274 48.2275 22.8838 48.0725Z" fill="#124093"/>
<path d="M22.3757 56.1127C25.5982 55.85 28.8417 56.0367 32.0128 56.6674C32.2542 56.688 32.4869 56.7675 32.6906 56.8988C32.8942 57.0301 33.0626 57.2092 33.1809 57.4206C33.2623 57.58 33.3104 57.7543 33.3222 57.9329C33.3341 58.1114 33.3095 58.2906 33.25 58.4593C33.1904 58.6281 33.0971 58.783 32.9758 58.9146C32.8545 59.0462 32.7077 59.1518 32.5443 59.2249C32.1886 59.3584 31.7991 59.3728 31.4346 59.2657C28.7569 58.7381 26.0226 58.5556 23.2985 58.7227C20.6064 58.8807 17.9331 59.2715 15.3084 59.8905C15.092 59.9689 14.8615 60.0006 14.6319 59.9835C14.4024 59.9664 14.1791 59.9009 13.9767 59.7912C13.8275 59.6964 13.6987 59.5729 13.5978 59.4278C13.4968 59.2827 13.4258 59.1189 13.3888 58.9461C13.3518 58.7732 13.3497 58.5948 13.3824 58.4211C13.4152 58.2474 13.4822 58.082 13.5796 57.9344C13.8126 57.6247 14.1553 57.4158 14.5374 57.3505C17.11 56.7147 19.7323 56.3006 22.3757 56.1127V56.1127Z" fill="#124093"/>
</svg>
