<svg width="512" height="512" viewBox="0 0 512 512" fill="blue" xmlns="http://www.w3.org/2000/svg">
<path d="M86.4399 12.06C98.4613 4.66327 112.326 0.80891 126.44 0.940004C219.107 0.940004 311.773 0.940004 404.44 0.940004C409.346 0.946967 414.127 2.49541 418.106 5.36657C422.084 8.23773 425.06 12.2865 426.613 16.9408C428.166 21.5951 428.217 26.6197 426.76 31.3047C425.302 35.9897 422.409 40.0983 418.49 43.05C413.41 47.05 406.75 48.15 400.43 47.79C396.825 51.2318 393.956 55.3689 391.995 59.9513C390.035 64.5336 389.024 69.4659 389.024 74.45C389.024 79.4341 390.035 84.3664 391.995 88.9487C393.956 93.5311 396.825 97.6682 400.43 101.11C408.65 100.34 417.43 103.11 422.57 109.8C428.04 116.26 428.92 125.45 426.35 133.32C451.5 135.56 474.82 151.65 485.91 174.32C494.131 190.996 495.68 210.181 490.24 227.96C485.707 242.678 476.691 255.614 464.45 264.96C472.8 265.04 481.15 264.79 489.45 265.07C501.3 265.76 511.25 275.98 512.37 287.67V292.09C511.937 296.456 510.387 300.637 507.87 304.23C505.353 307.824 501.954 310.71 498 312.61C493.26 315 487.85 315.09 482.67 315.03C478.601 318.896 475.361 323.549 473.147 328.706C470.933 333.864 469.791 339.417 469.791 345.03C469.791 350.643 470.933 356.196 473.147 361.354C475.361 366.511 478.601 371.164 482.67 375.03C489.1 374.78 495.88 375.43 501.27 379.28C504.35 381.375 506.941 384.112 508.865 387.301C510.79 390.491 512.002 394.058 512.42 397.76V402.19C511.42 414.71 500.07 425.32 487.42 425.05C352.087 425.11 216.753 425.11 81.4199 425.05C60.6316 425.276 40.5676 417.423 25.457 403.144C10.3465 388.866 1.36991 369.278 0.419922 348.51V340.17C1.01477 333.551 2.31219 327.014 4.29004 320.67C10.2345 302.645 22.3258 287.283 38.45 277.27C33.0439 274.236 28.9938 269.259 27.1201 263.35C25.7493 258.765 25.8102 253.871 27.2952 249.321C28.7801 244.772 31.6181 240.784 35.4299 237.89C40.5099 233.89 47.18 232.74 53.51 233.12C57.1174 229.68 59.9891 225.543 61.9512 220.961C63.9133 216.378 64.925 211.445 64.925 206.46C64.925 201.475 63.9133 196.542 61.9512 191.96C59.9891 187.377 57.1174 183.24 53.51 179.8C49.36 179.87 45.0799 179.8 41.1699 178.24C36.7025 176.507 32.8717 173.45 30.1907 169.479C27.5097 165.507 26.1067 160.811 26.1699 156.02C26.0699 144.11 36.4201 133.32 48.3401 133.02C58.9901 132.89 69.6501 133.02 80.3401 132.97C71.6073 126.274 64.4546 117.739 59.3899 107.97C50.9187 91.5076 49.007 72.4448 54.0403 54.628C59.0735 36.8112 70.6771 21.5665 86.51 11.97L86.4399 12.06ZM96.8799 23.38C86.5548 28.9726 78.1597 37.5533 72.7939 47.998C67.4282 58.4427 65.3419 70.2645 66.8086 81.915C68.2753 93.5654 73.2265 104.501 81.0137 113.29C88.8008 122.079 99.0609 128.311 110.45 131.17C117.3 132.95 124.45 133.07 131.45 133C222.117 133 312.783 133 403.45 133C405.569 133.163 407.674 132.539 409.362 131.248C411.05 129.956 412.203 128.088 412.6 126C413.6 121.11 409.45 116 404.45 116.13C311.417 116.063 218.383 116.063 125.35 116.13C118.833 116.205 112.388 114.759 106.527 111.907C100.667 109.055 95.5522 104.875 91.5901 99.7C87.3524 94.1696 84.5804 87.6583 83.5315 80.7704C82.4826 73.8824 83.1907 66.8411 85.5901 60.3C87.9214 54.1688 91.6352 48.6577 96.4429 44.1952C101.251 39.7327 107.022 36.439 113.31 34.57C120.12 32.43 127.31 32.79 134.4 32.83C136.342 32.757 138.235 33.4435 139.679 34.7438C141.123 36.0441 142.004 37.8558 142.134 39.7945C142.264 41.7332 141.633 43.6463 140.376 45.1279C139.119 46.6095 137.334 47.5429 135.4 47.73C129.75 48.1 123.97 47.22 118.4 48.73C113.584 49.9706 109.2 52.5033 105.719 56.0546C102.238 59.6058 99.7937 64.0407 98.6499 68.88C97.6989 73.2455 97.8669 77.7806 99.1379 82.0639C100.409 86.3472 102.742 90.2398 105.92 93.38C108.477 95.9126 111.515 97.9069 114.856 99.2449C118.197 100.583 121.772 101.238 125.37 101.17H381.28C376.5 93.0967 373.978 83.8871 373.978 74.505C373.978 65.1229 376.5 55.9133 381.28 47.84C309.28 47.84 237.3 47.84 165.34 47.84C164.299 47.9332 163.25 47.8086 162.259 47.4741C161.269 47.1395 160.358 46.6024 159.587 45.8969C158.815 45.1913 158.199 44.3329 157.778 43.3762C157.356 42.4195 157.138 41.3855 157.138 40.34C157.138 39.2945 157.356 38.2605 157.778 37.3038C158.199 36.3471 158.815 35.4887 159.587 34.7832C160.358 34.0776 161.269 33.5405 162.259 33.2059C163.25 32.8714 164.299 32.7468 165.34 32.84C243.34 32.84 321.317 32.84 399.27 32.84C402.48 32.72 406.03 33.37 408.86 31.45C410.604 30.309 411.863 28.5633 412.397 26.5491C412.93 24.5349 412.7 22.3945 411.75 20.54C410.94 19.0328 409.706 17.7958 408.201 16.9819C406.695 16.168 404.985 15.8127 403.28 15.96H127.44C116.777 15.7234 106.238 18.2925 96.8799 23.41V23.38ZM41.1499 156C40.7799 161 45.4899 165.3 50.3899 164.78C173.383 164.78 296.383 164.78 419.39 164.78C427.143 164.818 434.74 166.965 441.366 170.992C447.992 175.02 453.396 180.775 457 187.64C460.374 194.17 461.944 201.482 461.549 208.821C461.153 216.16 458.806 223.261 454.75 229.39C451.655 234.073 447.651 238.087 442.975 241.193C438.299 244.299 433.047 246.433 427.53 247.47C427.48 253.14 427.53 258.82 427.53 264.47C449.86 261.84 469.62 245.1 475.96 223.55C478.218 216.197 478.986 208.468 478.218 200.814C477.45 193.161 475.163 185.738 471.49 178.98C467.109 170.99 460.955 164.111 453.501 158.871C446.047 153.63 437.491 150.168 428.49 148.75C422.85 147.75 417.11 148.01 411.41 147.98C291.07 147.98 170.737 147.98 50.4099 147.98C49.2764 147.886 48.1358 148.02 47.0547 148.373C45.9736 148.727 44.9741 149.293 44.115 150.038C43.2559 150.783 42.5546 151.693 42.0522 152.714C41.5499 153.734 41.2567 154.845 41.1899 155.98L41.1499 156ZM72.6101 179.78C77.3826 187.858 79.9001 197.068 79.9001 206.45C79.9001 215.832 77.3826 225.042 72.6101 233.12C155.823 233.12 239.03 233.12 322.23 233.12C322.23 230.04 322.23 226.96 322.23 223.88C305.29 223.83 288.35 223.88 271.41 223.83C270.331 223.801 269.271 223.54 268.303 223.063C267.335 222.586 266.481 221.905 265.801 221.067C265.121 220.229 264.63 219.254 264.362 218.208C264.095 217.163 264.056 216.072 264.25 215.01C264.62 213.156 265.661 211.504 267.175 210.37C268.688 209.237 270.567 208.703 272.45 208.87C321.43 208.87 370.43 208.87 419.45 208.87C421.438 208.741 423.397 209.405 424.896 210.717C426.395 212.029 427.314 213.882 427.45 215.87C427.64 221.25 427.45 226.65 427.53 232.03C439.4 228.59 447.98 216.32 446.53 203.94C445.47 190.5 432.89 179.6 419.53 179.78C303.843 179.74 188.203 179.747 72.6101 179.8V179.78ZM337.24 223.86C337.24 259.287 337.24 294.723 337.24 330.17C348.55 324.36 359.81 318.46 371.12 312.65C372.287 312.01 373.599 311.682 374.93 311.696C376.261 311.71 377.566 312.066 378.72 312.73C389.97 318.52 401.18 324.39 412.44 330.17C412.44 294.73 412.44 259.29 412.44 223.85C387.373 223.85 362.303 223.85 337.23 223.85L337.24 223.86ZM41.1599 257C41.2309 258.129 41.5251 259.234 42.0256 260.249C42.5261 261.264 43.2231 262.169 44.0759 262.913C44.9287 263.657 45.9204 264.225 46.9939 264.583C48.0674 264.941 49.2014 265.083 50.3301 265C140.997 265 231.633 265 322.24 265C322.24 259.38 322.24 253.76 322.24 248.15H50.3799C45.4499 247.66 40.7299 252.02 41.1599 257.02V257ZM37.26 296.84C25.1437 307.5 17.4691 322.32 15.7544 338.367C14.0397 354.414 18.4097 370.52 28 383.5C34.0389 391.716 41.9232 398.4 51.0178 403.011C60.1124 407.623 70.1631 410.034 80.3601 410.05C215.693 410.09 351.027 410.09 486.36 410.05C492.43 410.65 498.15 405.05 497.26 398.91C496.976 396.501 495.827 394.278 494.026 392.653C492.225 391.029 489.895 390.114 487.47 390.08C454.77 390.01 422.08 390.08 389.38 390.08C386.77 390.02 384.11 390.31 381.55 389.71C379.794 389.169 378.299 388.001 377.348 386.429C376.397 384.857 376.057 382.99 376.393 381.183C376.728 379.377 377.717 377.757 379.169 376.632C380.622 375.506 382.437 374.954 384.27 375.08C410.637 375.08 437.003 375.08 463.37 375.08C451.89 357.21 451.86 332.89 463.37 315.02H427.37C427.37 323.37 427.37 331.72 427.37 340.07C427.31 342.07 427.48 344.22 426.46 346.07C425.569 347.746 424.074 349.02 422.279 349.634C420.483 350.249 418.521 350.158 416.79 349.38C402.64 342.28 388.73 334.7 374.53 327.69C361.78 334.51 348.85 341.01 336.04 347.69C333.64 348.91 331.1 350.52 328.28 349.89C326.468 349.541 324.846 348.543 323.717 347.083C322.589 345.623 322.031 343.801 322.15 341.96C322.1 332.96 322.15 323.96 322.15 315.02C241.53 315.02 160.91 315.02 80.29 315.02C64.5 315.02 50.0701 329.02 50.3601 344.93C49.9001 360.93 64.2801 375.38 80.3601 375.03C171.4 375.09 262.443 375.09 353.49 375.03C355.479 375.03 357.387 375.82 358.793 377.227C360.2 378.633 360.99 380.541 360.99 382.53C360.99 384.519 360.2 386.427 358.793 387.833C357.387 389.24 355.479 390.03 353.49 390.03C262.823 390.077 172.127 390.077 81.3999 390.03C70.0223 390.227 58.9895 386.123 50.5061 378.539C42.0227 370.955 36.7137 360.449 35.6399 349.12C35.0709 342.919 35.8143 336.668 37.8215 330.774C39.8288 324.88 43.055 319.475 47.29 314.91C51.6263 310.195 56.8968 306.434 62.7659 303.867C68.635 301.3 74.974 299.983 81.3799 300C161.66 300 241.943 300 322.23 300V280C241.97 280 161.707 280 81.4399 280C65.1406 279.984 49.4088 285.984 37.26 296.85V296.84ZM427.46 280C427.46 286.667 427.46 293.333 427.46 300C447.46 300 467.46 300.06 487.41 300C489.717 300.003 491.954 299.208 493.742 297.75C495.53 296.292 496.759 294.26 497.22 292C498.58 286.1 493.49 279.9 487.45 280.12C467.45 280.06 447.45 280.12 427.45 280.12L427.46 280Z" fill="#f0f0f0"/>
</svg>
