<svg width="370" height="264" viewBox="0 0 370 264" fill="none" xmlns="http://www.w3.org/2000/svg">
<path d="M365.215 28.117C359.215 22.117 352.965 16.227 346.805 10.337C343.515 7.25698 340.606 3.53699 336.366 1.71699C333.657 0.469981 330.689 -0.112507 327.71 0.0179378C324.73 0.148383 321.825 0.987993 319.236 2.46699C316.056 4.17699 313.885 7.14699 311.335 9.59699C306.985 14.317 302.335 18.787 298.065 23.537C296.465 23.067 294.955 22.377 293.405 21.787C272.815 13.977 250.595 11.077 228.645 11.487C213.375 11.687 197.875 13.487 183.645 19.187C178.763 21.1048 174.18 23.7112 170.035 26.927C167.895 26.067 166.035 24.667 163.935 23.697C147.455 15.567 128.936 12.187 110.746 11.517C102.31 11.1266 93.8572 11.3572 85.4555 12.207C68.3055 13.907 51.2154 18.027 35.7954 25.857C32.8878 27.4224 30.4427 29.7245 28.7051 32.5327C26.9676 35.3408 25.9987 38.5564 25.8955 41.857C22.6068 41.8037 19.3398 42.3998 16.282 43.6113C13.2241 44.8228 10.4353 46.6258 8.07547 48.917C3.42694 53.3455 0.713783 59.4295 0.525482 65.847C0.478816 119.407 0.452132 172.967 0.445465 226.527C0.587432 231.326 2.1118 235.983 4.83548 239.937C6.8423 242.834 9.44931 245.265 12.4793 247.065C15.5094 248.864 18.8914 249.991 22.3955 250.367C26.7055 250.877 31.0155 250.107 35.3255 250.117C67.8855 248.567 100.455 247.187 133.005 245.577C133.495 254.657 141.235 262.837 150.425 263.197C162.015 263.197 173.595 263.467 185.165 263.267C188.169 263.484 191.182 262.978 193.95 261.791C196.718 260.605 199.161 258.772 201.075 256.447C203.577 253.452 205.037 249.724 205.236 245.827C212.716 245.827 220.235 246.447 227.675 246.697L312.126 250.647C315.286 250.83 318.451 250.386 321.439 249.341C324.427 248.296 327.178 246.67 329.535 244.557C332.19 242.253 334.314 239.401 335.759 236.196C337.204 232.992 337.936 229.512 337.905 225.997C337.905 177.737 338.015 129.467 337.905 81.217C345.305 73.097 353.146 65.387 360.626 57.347C363.626 54.237 367.076 51.287 368.626 47.097C369.844 43.9235 370.17 40.4769 369.569 37.1312C368.968 33.7854 367.462 30.668 365.215 28.117V28.117ZM175.935 39.057C179.566 35.7248 183.798 33.115 188.405 31.367C202.125 25.917 217.086 24.487 231.736 24.447C250.961 24.1579 270.085 27.2725 288.225 33.647C284.225 37.647 280.495 41.837 276.515 45.827C265.346 42.3195 253.763 40.3021 242.065 39.827C225.065 39.197 207.865 41.177 191.945 47.257C190.54 47.7437 189.344 48.6962 188.554 49.9564C187.765 51.2166 187.43 52.7089 187.605 54.1856C187.78 55.6624 188.455 57.0349 189.517 58.0755C190.579 59.1162 191.965 59.7624 193.445 59.907C195.445 60.077 197.225 59.147 199.045 58.537C209.268 55.0777 219.948 53.1534 230.736 52.827C242.726 52.346 254.724 53.5579 266.376 56.427C261.736 61.227 257.085 66.007 252.515 70.887C232.135 68.737 211.035 70.157 191.775 77.567C190.895 77.8946 190.096 78.4089 189.434 79.0744C188.771 79.74 188.26 80.5411 187.936 81.4227C187.612 82.3043 187.483 83.2455 187.557 84.1818C187.631 85.1182 187.907 86.0273 188.366 86.847C188.902 87.8444 189.703 88.6751 190.68 89.2482C191.657 89.8214 192.773 90.115 193.905 90.097C195.905 90.207 197.745 89.097 199.635 88.557C212.842 84.1996 226.753 82.3809 240.635 83.197C237.415 86.787 233.875 90.107 230.635 93.657C228.355 96.017 226.175 98.477 223.795 100.727C212.891 101.519 202.158 103.877 191.925 107.727C191.096 108.016 190.333 108.47 189.684 109.061C189.034 109.652 188.511 110.369 188.146 111.168C187.78 111.966 187.58 112.831 187.558 113.709C187.535 114.587 187.691 115.461 188.015 116.277C188.339 117.094 188.825 117.836 189.444 118.46C190.063 119.083 190.801 119.575 191.615 119.906C192.429 120.237 193.301 120.399 194.179 120.384C195.058 120.369 195.924 120.176 196.725 119.817C201.559 118.042 206.503 116.582 211.525 115.447C212.556 115.245 213.598 115.108 214.645 115.037C211.785 121.667 208.845 128.267 205.925 134.887C205.595 135.117 205.275 135.357 204.925 135.607L206.116 135.197C204.876 136.777 204.425 138.787 203.415 140.497C200.745 146.757 197.886 152.927 195.236 159.197C194.179 162.125 194.014 165.301 194.763 168.322C195.512 171.343 197.141 174.075 199.443 176.17C201.745 178.265 204.617 179.63 207.695 180.093C210.773 180.555 213.92 180.094 216.736 178.767C233.289 170.654 249.899 162.544 266.565 154.437C267.319 154.073 267.997 153.571 268.565 152.957C279.215 142.097 289.636 130.957 300.246 120.107C300.246 150.017 300.186 179.917 300.246 209.827C281.596 198.317 259.745 192.527 237.935 191.827C232.045 191.417 226.165 191.827 220.275 192.027C206.905 192.947 193.395 195.157 181.065 200.637C179.195 201.387 177.525 202.567 175.585 203.107C175.725 173.917 175.475 144.727 175.585 115.537C175.585 92.0436 175.585 68.5603 175.585 45.087C175.511 43.0704 175.628 41.0514 175.935 39.057V39.057ZM219.565 137.107L218.385 136.817C219.665 136.877 219.765 135.557 220.165 134.677C222.165 130.227 224.105 125.737 226.015 121.247C226.865 121.761 227.642 122.387 228.325 123.107C233.495 128.287 238.815 133.327 244.155 138.317C246.825 140.987 249.495 143.657 252.285 146.187C252.285 146.367 252.285 146.737 252.285 146.917C247.285 149.327 242.345 151.717 237.415 154.197C231.425 148.547 225.565 142.747 219.565 137.107ZM224.855 160.307C220.365 162.417 215.946 164.677 211.486 166.827C209.266 168.357 206.145 165.617 207.605 163.287C209.545 158.707 211.605 154.177 213.605 149.627C217.565 152.937 221.066 156.797 224.866 160.277L224.855 160.307ZM38.8554 43.017C38.8554 40.887 39.6255 38.517 41.6455 37.517C51.6455 32.307 62.6455 29.067 73.7055 26.977C87.2329 24.5892 100.998 23.8304 114.705 24.717C128.495 25.717 142.345 28.297 155.035 33.917C157.672 35.0692 160.217 36.4233 162.645 37.967C162.885 48.267 162.645 58.587 162.755 68.897C162.682 114.09 162.659 159.28 162.685 204.467C152.179 199.007 140.838 195.333 129.126 193.597C107.996 190.327 85.9955 190.777 65.4655 197.117C56.0768 200.006 47.0996 204.093 38.7555 209.277C38.7955 153.87 38.8188 98.4503 38.8255 43.017H38.8554ZM324.855 226.517C324.772 228.734 324.051 230.88 322.78 232.698C321.508 234.516 319.739 235.928 317.685 236.767C314.405 238.187 310.775 237.447 307.325 237.367C272.985 235.74 238.652 234.13 204.325 232.537C201.845 232.538 199.425 233.307 197.399 234.74C195.374 236.173 193.842 238.198 193.015 240.537C192.355 242.407 192.465 244.437 192.015 246.367C191.624 247.465 190.907 248.417 189.96 249.096C189.013 249.775 187.881 250.149 186.715 250.167C175.129 250.167 163.535 250.167 151.935 250.167C150.861 250.202 149.8 249.931 148.874 249.386C147.948 248.84 147.196 248.043 146.705 247.087C145.705 245.227 146.255 242.997 145.565 241.027C144.801 238.522 143.244 236.333 141.129 234.79C139.013 233.246 136.454 232.431 133.835 232.467C100.329 234.027 66.8121 235.564 33.2854 237.077C30.3354 237.077 27.3955 237.507 24.4455 237.467C21.9171 237.297 19.5111 236.316 17.5851 234.669C15.6591 233.023 14.316 230.798 13.7555 228.327C13.2355 226.177 13.5055 223.937 13.4555 221.747C13.4555 184.747 13.5255 147.827 13.4555 110.857C13.4555 99.797 13.3955 88.737 13.5155 77.677C14.1655 72.007 12.1155 65.777 15.1555 60.567C17.2555 56.757 21.6054 54.867 25.7954 54.687C25.9154 106.577 25.7954 158.477 25.7954 210.377C25.8057 212.599 26.4081 214.778 27.5405 216.69C28.6729 218.601 30.2943 220.177 32.2379 221.253C34.1815 222.33 36.377 222.869 38.5983 222.815C40.8196 222.762 42.9863 222.117 44.8755 220.947C63.6255 208.517 86.6455 203.717 108.876 204.717C121.181 204.96 133.381 207.05 145.065 210.917C151.825 213.367 158.585 216.317 164.155 220.917C164.967 221.787 165.992 222.43 167.129 222.781C168.266 223.132 169.475 223.179 170.635 222.917C173.315 222.317 174.776 219.777 176.866 218.227C182.956 213.467 190.325 210.637 197.725 208.627C208.155 206.007 218.871 204.697 229.626 204.727C250.866 204.337 272.525 208.797 291.025 219.507C293.955 221.307 297.025 223.457 300.645 223.227C303.847 223.218 306.925 221.992 309.256 219.797C311.586 217.602 312.995 214.602 313.195 211.407C313.295 182.047 313.265 152.677 313.265 123.307C313.355 117.717 313.075 112.087 313.385 106.517C317.185 102.517 320.965 98.447 324.835 94.517C324.949 138.517 324.945 182.517 324.825 226.517H324.855ZM356.725 40.937C356.595 43.377 354.455 44.867 352.975 46.547C325.935 74.607 298.935 102.704 271.975 130.837C269.265 133.627 266.485 136.367 263.885 139.267C253.992 129.694 244.069 120.147 234.116 110.627C233.666 110.327 233.246 109.627 233.736 109.187C264.089 77.687 294.422 46.1603 324.736 14.607C325.699 13.6497 326.981 13.0792 328.338 13.0036C329.694 12.9281 331.031 13.3527 332.095 14.197C339.615 21.197 346.896 28.447 354.376 35.487C355.193 36.1235 355.835 36.9579 356.241 37.9115C356.647 38.865 356.804 39.9063 356.695 40.937H356.725Z" fill="#124093"/>
<path d="M56.0054 60.8172C58.4754 61.3872 60.7654 60.0272 63.0054 59.2872C76.5883 54.6374 90.8817 52.4069 105.235 52.6972C117.455 52.9272 129.755 54.6972 141.235 58.8472C143.235 59.6772 145.505 60.3872 147.605 59.4672C148.415 59.1542 149.154 58.6829 149.779 58.081C150.404 57.4791 150.903 56.7586 151.247 55.9616C151.591 55.1646 151.772 54.3071 151.78 53.4393C151.788 52.5714 151.624 51.7106 151.295 50.9072C150.906 49.9782 150.312 49.1494 149.557 48.4827C148.801 47.816 147.905 47.3287 146.935 47.0572C128.815 40.2972 109.105 38.6372 89.9354 40.2672C77.9715 41.3261 66.2144 44.0525 55.0054 48.3672C53.949 48.7559 53.0147 49.418 52.2979 50.2859C51.5811 51.1538 51.1075 52.1964 50.9254 53.3072C50.6297 54.9737 50.9948 56.6899 51.9431 58.0919C52.8915 59.4939 54.3485 60.4714 56.0054 60.8172V60.8172Z" fill="#124093"/>
<path d="M59.8355 90.6972C70.2371 86.6983 81.1646 84.2325 92.2755 83.3772C109.276 82.1272 126.696 83.4972 142.716 89.5872C143.978 90.1284 145.378 90.2593 146.718 89.9615C148.059 89.6636 149.272 88.9519 150.185 87.9272C153.295 84.8172 151.765 78.7972 147.565 77.4972C129.315 70.5572 109.395 68.8172 90.0455 70.4972C77.9832 71.518 66.1313 74.273 54.8555 78.6772C51.2155 80.0272 49.7855 84.9072 51.8555 88.1172C52.6845 89.401 53.9316 90.3591 55.3857 90.8293C56.8399 91.2994 58.4118 91.2527 59.8355 90.6972V90.6972Z" fill="#124093"/>
<path d="M53.8255 120.357C54.7541 120.948 55.8154 121.299 56.9135 121.378C58.0117 121.456 59.1121 121.26 60.1154 120.807C72.0684 116.289 84.676 113.743 97.4455 113.267C112.175 112.707 127.165 114.197 141.095 119.217C142.905 119.887 144.845 120.757 146.815 120.217C148.193 119.886 149.426 119.116 150.329 118.024C151.232 116.932 151.755 115.576 151.821 114.16C151.886 112.744 151.49 111.346 150.692 110.175C149.894 109.004 148.737 108.124 147.395 107.667C129.845 101.027 110.755 99.2171 92.1355 100.607C80.4725 101.4 68.9744 103.795 57.9655 107.727C56.0855 108.497 53.9654 108.947 52.5454 110.547C51.9257 111.25 51.4634 112.077 51.1897 112.973C50.9159 113.869 50.837 114.814 50.9583 115.743C51.0795 116.672 51.398 117.564 51.8925 118.36C52.3871 119.156 53.0461 119.837 53.8255 120.357V120.357Z" fill="#124093"/>
<path d="M52.9555 150.027C54.8355 151.887 57.8255 151.977 60.1455 150.947C85.6649 141.602 113.548 140.899 139.505 148.947C141.325 149.497 143.065 150.497 145.005 150.567C146.673 150.628 148.299 150.034 149.536 148.913C150.772 147.793 151.522 146.233 151.626 144.567C151.926 142.817 150.945 141.317 150.255 139.817C148.255 137.747 145.256 137.237 142.626 136.207C132.566 133.044 122.153 131.139 111.626 130.537C93.1055 129.537 74.2755 131.797 56.8355 138.247C55.3145 138.657 53.8969 139.382 52.6755 140.377C52.0273 141.011 51.5175 141.773 51.1781 142.614C50.8387 143.455 50.6771 144.357 50.7034 145.263C50.7297 146.17 50.9433 147.061 51.3309 147.881C51.7185 148.701 52.2717 149.432 52.9555 150.027V150.027Z" fill="#124093"/>
<path d="M142.765 180.277C144.025 180.809 145.419 180.933 146.753 180.634C148.087 180.335 149.294 179.626 150.206 178.607C153.206 175.607 151.885 169.787 147.905 168.307C129.565 161.277 109.565 159.477 90.0355 161.177C78.2367 162.193 66.6361 164.842 55.5655 169.047C54.3576 169.402 53.2777 170.098 52.4556 171.051C51.6335 172.005 51.1041 173.175 50.931 174.422C50.7578 175.669 50.9483 176.94 51.4794 178.081C52.0106 179.223 52.8599 180.187 53.9255 180.857C56.1255 182.337 58.9855 181.857 61.2655 180.857C74.5224 175.995 88.5455 173.556 102.665 173.657C116.327 173.358 129.925 175.603 142.765 180.277V180.277Z" fill="#124093"/>
</svg>
