<svg width="20" height="20" viewBox="0 0 208 257" fill="none" xmlns="http://www.w3.org/2000/svg">
<path d="M207.025 59.2772C207.025 41.5872 193.545 28.1472 175.825 28.1172C166.375 28.1172 156.925 28.1172 147.475 28.1172C145.915 28.1172 145.235 27.8472 145.005 26.0272C143.155 11.4672 132.335 1.27715 118.005 0.867152C108.005 0.577152 98.0754 0.657152 88.1255 0.867152C82.7402 1.12687 77.5523 2.97476 73.2156 6.17797C68.8788 9.38117 65.5872 13.7964 63.7555 18.8672C62.7555 21.7372 62.2454 24.7772 61.4254 28.0772H59.0655C49.6155 28.0772 40.1655 28.0772 30.7155 28.0772C15.4054 28.1472 2.62546 38.8972 0.505458 54.0772C-0.284542 59.6872 0.0954559 65.4771 0.0654559 71.1771C0.0654559 76.4971 3.85545 80.2672 9.20545 80.3572C10.7955 80.3572 12.3855 80.3572 14.2055 80.3572V83.4172C14.2055 129.784 14.2055 176.157 14.2055 222.537C14.2055 241.197 29.6555 256.897 48.2055 256.927C85.0521 257.007 121.902 257.007 158.755 256.927C165.857 256.955 172.771 254.65 178.435 250.367C188.015 243.227 192.805 233.587 192.815 221.657C192.815 175.657 192.815 129.657 192.815 83.6572V80.3772C194.635 80.3772 196.225 80.3772 197.815 80.3772C199.029 80.3977 200.233 80.1728 201.358 79.7158C202.482 79.2589 203.502 78.5794 204.356 77.7181C205.211 76.8569 205.883 75.8317 206.331 74.7042C206.78 73.5767 206.995 72.3702 206.965 71.1572C207.055 67.1472 207.025 63.1872 207.025 59.2772ZM88.8455 18.8872C98.6555 18.8272 108.475 18.7372 118.285 18.8872C122.835 18.9772 126.605 23.1072 126.895 27.7572H80.2454C79.8854 23.0972 85.0155 18.9072 88.8455 18.8872ZM174.845 221.267C174.845 231.827 167.715 238.947 157.195 238.947H50.1955C39.1955 238.947 32.2555 231.947 32.2555 220.897V80.4372H174.695C174.745 81.2572 174.825 82.0272 174.825 82.7972C174.825 128.957 174.825 175.117 174.825 221.277L174.845 221.267ZM187.495 62.2672C185.825 62.3772 184.135 62.1672 182.495 62.1672H26.0255C23.9055 62.1672 21.7855 62.2572 19.6555 62.3372C18.6555 62.3372 18.1055 62.0572 18.0055 60.8672C17.3155 52.6272 22.5855 46.2372 30.8855 46.0872C43.6955 45.8572 56.5155 46.0272 69.3255 46.0872C78.6955 46.0872 88.0654 46.1672 97.4354 46.1572C123.215 46.1572 148.989 46.1205 174.755 46.0472C181.395 46.0472 186.045 48.7572 188.005 54.1872C188.629 56.4274 188.945 58.7418 188.945 61.0672C188.965 61.4172 188.015 62.2172 187.475 62.2772L187.495 62.2672Z" fill="#124093"/>
<path d="M76.0155 120.687C76.0155 114.927 72.2855 110.897 67.0155 110.907C61.7455 110.917 58.0155 114.907 58.0155 120.697C58.0155 147.65 58.0155 174.6 58.0155 201.547C58.0155 207.267 61.8355 211.407 67.0155 211.397C72.1955 211.387 76.0155 207.247 76.0155 201.537C76.0155 188.07 76.0155 174.597 76.0155 161.117V120.687Z" fill="#124093"/>
<path d="M140.055 110.907C134.765 110.907 131.055 114.907 131.055 120.647V161.077C131.055 174.617 131.055 188.167 131.105 201.717C131.114 203.449 131.51 205.158 132.265 206.717C133.169 208.457 134.641 209.835 136.437 210.623C138.232 211.41 140.243 211.56 142.135 211.047C146.395 209.947 149.015 206.497 149.015 201.777C149.015 174.677 149.015 147.58 149.015 120.487C149.015 114.927 145.235 110.927 140.055 110.907Z" fill="#124093"/>
<path d="M112.565 121.507C112.587 120.629 112.554 119.751 112.465 118.877C112.269 117.082 111.533 115.388 110.355 114.018C109.177 112.649 107.612 111.669 105.865 111.207C102.185 110.277 98.2255 111.427 96.3855 114.597C95.2252 116.604 94.5889 118.87 94.5355 121.187C94.4155 147.847 94.4555 174.507 94.4755 201.187C94.4514 202.139 94.5285 203.091 94.7055 204.027C94.9959 205.779 95.814 207.4 97.0506 208.674C98.2872 209.948 99.8833 210.814 101.625 211.157C103.267 211.64 105.02 211.576 106.622 210.975C108.223 210.375 109.586 209.27 110.505 207.827C111.769 205.799 112.46 203.466 112.505 201.077C112.685 187.817 112.595 174.567 112.595 161.307C112.595 148.047 112.565 134.767 112.565 121.507Z" fill="#124093"/>
</svg>
