<svg width="326" height="82" viewBox="0 0 326 82" fill="none" xmlns="http://www.w3.org/2000/svg">
<path d="M128.092 20.8543C127.684 20.1793 127.093 19.6345 126.389 19.2832C125.603 18.906 124.739 18.7203 123.868 18.741C123.075 18.7031 122.283 18.8403 121.548 19.143C120.813 19.4456 120.153 19.9064 119.615 20.4928C118.548 21.8226 118.006 23.5003 118.092 25.2059C117.978 27.0269 118.563 28.8226 119.726 30.2248C120.374 30.8247 121.137 31.2857 121.968 31.5797C122.799 31.8737 123.681 31.9946 124.56 31.9348C125.69 31.9845 126.808 31.6861 127.763 31.0797C128.719 30.4733 129.467 29.588 129.907 28.5425H122.746V23.3985H136.057V30.3499C135.465 31.7596 134.63 33.0538 133.591 34.1732C132.422 35.434 131.008 36.4417 129.436 37.1345C127.659 37.9124 125.737 38.2965 123.799 38.2606C121.42 38.3115 119.068 37.7465 116.97 36.6201C115.035 35.545 113.444 33.9392 112.385 31.9904C111.29 29.8853 110.738 27.5385 110.778 25.1641C110.736 22.8117 111.289 20.4869 112.385 18.4074C113.432 16.4459 115.025 14.8325 116.97 13.7638C119.051 12.6149 121.396 12.0348 123.771 12.0816C126.619 11.9654 129.427 12.7909 131.763 14.4312C133.859 15.9566 135.272 18.2491 135.697 20.8126L128.092 20.8543ZM47.6579 0C48.3935 0.0167397 49.1148 0.207253 49.7633 0.556105L92.0375 22.8007C92.6908 23.0889 93.2977 23.4731 93.8382 23.9407C94.2752 24.3616 94.6232 24.8666 94.8612 25.4256C95.0992 25.9846 95.2223 26.5861 95.2233 27.194C95.2233 34.6598 95.2233 42.1256 95.2233 49.5914C95.2338 50.4215 95.0182 51.2387 94.6 51.9549C94.147 52.7377 93.46 53.3575 92.6363 53.7262C91.8126 54.095 90.8942 54.1942 90.0112 54.0095C89.1283 53.8249 88.3257 53.3659 87.7173 52.6976C87.1088 52.0294 86.7255 51.1858 86.6216 50.2866C86.5247 49.2438 86.6216 48.1873 86.6216 47.1445V29.6965L47.7133 9.2593L13.7776 27.0688L47.7964 44.9479L67.8393 35.6052C68.1488 35.4462 68.468 35.3069 68.795 35.1881C69.356 35.0025 69.9488 34.9338 70.5371 34.9864C71.1254 35.039 71.6968 35.2117 72.2163 35.494C72.7967 35.8 73.2987 36.2365 73.6831 36.7695C74.0676 37.3025 74.324 37.9175 74.4325 38.5665C74.4679 39.0292 74.4679 39.494 74.4325 39.9568C74.4325 47.8814 74.4325 55.806 74.4325 63.7306C74.4057 65.6669 73.9316 67.5706 73.0474 69.2918C71.8822 71.5068 70.2798 73.4604 68.3379 75.0336C66.1421 76.8414 63.6855 78.304 61.0521 79.3713C56.8369 81.074 52.3401 81.9653 47.7964 81.9989C42.0069 82.0441 36.2964 80.6494 31.1748 77.9393C28.5511 76.5611 26.2033 74.7088 24.2492 72.4755C22.4915 70.4871 21.321 68.0461 20.8695 65.4268C20.7448 64.3705 20.7031 63.3059 20.7448 62.243V40.5963L2.29486 30.8643C1.59282 30.4919 1.00699 29.9319 0.602095 29.2463C0.197197 28.5607 -0.0110162 27.7761 0.000449209 26.9791C0.0119146 26.1822 0.242613 25.404 0.667066 24.7304C1.09152 24.0568 1.69321 23.5141 2.40567 23.1621L45.511 0.514398C46.1262 0.189456 46.8103 0.0177728 47.5055 0.013874L47.6579 0ZM29.5265 45.1286V63.7863C29.6825 65.097 30.29 66.3117 31.2441 67.2202C33.3088 69.3242 35.8449 70.9021 38.6407 71.8221C44.9126 74.0374 51.7752 73.8742 57.9356 71.3633C60.3668 70.4062 62.5534 68.9145 64.3349 66.9978C65.1858 66.1296 65.718 64.9974 65.8447 63.7863V46.0879L50.2481 53.3591C49.7128 53.6437 49.1454 53.863 48.5582 54.0125C47.9286 54.1516 47.2764 54.1516 46.6468 54.0125C45.8333 53.7282 45.0493 53.365 44.3059 52.9281L29.5265 45.1703V45.1286ZM158.759 27.6389C158.757 28.2014 158.72 28.7632 158.648 29.3211H145.143C145.142 30.242 145.466 31.1336 146.058 31.8375C146.337 32.1064 146.667 32.3162 147.029 32.4547C147.391 32.5932 147.776 32.6575 148.163 32.6438C148.7 32.6723 149.233 32.5342 149.689 32.2481C150.145 31.9621 150.502 31.542 150.712 31.045H158.316C158.007 32.4402 157.37 33.7413 156.46 34.8405C155.536 35.9584 154.364 36.844 153.039 37.4264C151.599 38.0784 150.034 38.4058 148.454 38.3857C146.584 38.4179 144.736 37.9781 143.08 37.1067C141.535 36.2582 140.258 34.9913 139.395 33.4502C138.497 31.7379 138.049 29.8238 138.093 27.8891C138.037 25.9532 138.486 24.0363 139.395 22.328C140.234 20.7833 141.499 19.514 143.038 18.6715C144.709 17.7983 146.571 17.3586 148.454 17.3924C150.312 17.3528 152.151 17.7831 153.801 18.6437C155.338 19.4501 156.605 20.6927 157.443 22.2167C158.351 23.8811 158.804 25.7561 158.759 27.6527V27.6389ZM151.473 25.8593C151.494 25.4743 151.426 25.0898 151.274 24.7354C151.123 24.3811 150.893 24.0664 150.601 23.8156C149.986 23.3261 149.225 23.0597 148.44 23.0597C147.655 23.0597 146.894 23.3261 146.279 23.8156C145.676 24.3555 145.287 25.0962 145.185 25.901L151.473 25.8593ZM170.367 38.3718C168.674 38.4002 166.993 38.0882 165.422 37.4543C164.091 36.8928 162.917 36.0148 162 34.8961C161.185 33.8333 160.702 32.5507 160.615 31.2119H167.541C167.578 31.517 167.678 31.811 167.835 32.0745C167.993 32.338 168.204 32.5652 168.455 32.7412C169.009 33.121 169.668 33.3156 170.339 33.2973C170.829 33.3246 171.315 33.193 171.724 32.9219C171.884 32.8227 172.016 32.6833 172.105 32.5175C172.195 32.3517 172.241 32.1653 172.237 31.9765C172.236 31.7244 172.155 31.4791 172.005 31.2765C171.856 31.0739 171.646 30.9246 171.406 30.8504C170.507 30.502 169.58 30.2322 168.635 30.044C167.397 29.8098 166.179 29.4798 164.992 29.0569C164.007 28.6824 163.131 28.0658 162.444 27.2635C161.703 26.3098 161.33 25.1204 161.391 23.9129C161.378 22.7398 161.721 21.5907 162.374 20.6179C163.091 19.5709 164.091 18.751 165.256 18.2544C166.713 17.6352 168.286 17.3365 169.868 17.3786C172.132 17.2462 174.366 17.9428 176.157 19.3389C177.69 20.6478 178.645 22.5117 178.816 24.5246H172.361C172.324 24.2301 172.228 23.9463 172.078 23.6905C171.928 23.4348 171.727 23.2124 171.489 23.037C170.985 22.6403 170.355 22.4425 169.716 22.4809C169.231 22.4468 168.747 22.5633 168.331 22.8146C168.19 22.9208 168.077 23.06 168.002 23.2199C167.928 23.3798 167.893 23.5556 167.901 23.7321C167.91 23.9822 167.994 24.2236 168.143 24.4247C168.291 24.6257 168.497 24.7769 168.732 24.8583C169.631 25.1951 170.558 25.451 171.502 25.6229C172.753 25.8734 173.981 26.2268 175.173 26.6796C176.182 27.0797 177.07 27.7361 177.749 28.5842C178.556 29.566 178.961 30.8178 178.885 32.0877C178.893 33.2449 178.524 34.3729 177.833 35.2993C177.073 36.3103 176.053 37.0939 174.882 37.5655C173.459 38.1283 171.938 38.4023 170.408 38.3718H170.367ZM194.385 32.0182V38.1077H191.296C186.088 38.1077 183.47 35.5217 183.47 30.336V23.5792H180.963V17.7122H183.47V12.7489H190.645V17.7122H194.357V23.6626H190.645V30.5306C190.622 30.744 190.642 30.9598 190.704 31.1652C190.766 31.3706 190.868 31.5614 191.005 31.7263C191.4 32.0285 191.897 32.1633 192.39 32.1017L194.385 32.0182ZM201.311 15.7241C200.204 15.7786 199.118 15.4166 198.263 14.7092C197.904 14.3687 197.618 13.9582 197.422 13.5028C197.227 13.0474 197.126 12.5566 197.126 12.0607C197.126 11.5648 197.227 11.0741 197.422 10.6187C197.618 10.1632 197.904 9.75269 198.263 9.41221C199.106 8.67992 200.197 8.30151 201.311 8.35558C202.408 8.29689 203.483 8.67681 204.302 9.41221C204.678 9.74553 204.977 10.1571 205.178 10.6181C205.378 11.0791 205.477 11.5785 205.466 12.0816C205.475 12.5782 205.375 13.0707 205.174 13.5246C204.973 13.9785 204.675 14.3828 204.302 14.7092C203.457 15.434 202.365 15.8026 201.255 15.738L201.311 15.7241ZM204.843 17.6288V38.1077H197.709V17.7122L204.843 17.6288ZM218.403 38.3718C216.48 38.4073 214.577 37.9681 212.863 37.0928C211.284 36.2559 209.973 34.9884 209.081 33.4363C208.174 31.7241 207.7 29.8145 207.7 27.8752C207.7 25.9359 208.174 24.0263 209.081 22.314C209.994 20.7637 211.317 19.4979 212.904 18.6576C214.618 17.7801 216.521 17.3408 218.445 17.3786C220.341 17.3465 222.216 17.7859 223.902 18.6576C225.498 19.4849 226.825 20.7538 227.725 22.314C228.686 24.0053 229.165 25.9291 229.11 27.8752C229.155 29.8202 228.677 31.7414 227.725 33.4363C226.825 34.9966 225.498 36.2654 223.902 37.0928C222.188 37.9702 220.285 38.4096 218.361 38.3718H218.403ZM218.403 32.1573C218.869 32.1693 219.333 32.0769 219.759 31.887C220.186 31.697 220.565 31.4142 220.869 31.0589C221.602 30.1565 221.968 29.0094 221.894 27.8474C221.973 26.6976 221.605 25.5617 220.869 24.6775C220.562 24.333 220.186 24.0574 219.766 23.8687C219.346 23.6799 218.891 23.5823 218.431 23.5823C217.97 23.5823 217.515 23.6799 217.095 23.8687C216.675 24.0574 216.3 24.333 215.993 24.6775C215.286 25.5752 214.94 26.7062 215.023 27.8474C214.935 28.9975 215.27 30.1402 215.965 31.0589C216.262 31.4159 216.635 31.7003 217.058 31.8906C217.48 32.0809 217.94 32.1721 218.403 32.1573V32.1573ZM223.57 12.5821L214.469 16.169V11.3169L223.57 7.14604V12.5821ZM245.385 17.4481C246.425 17.41 247.46 17.602 248.418 18.0104C249.375 18.4189 250.232 19.0338 250.926 19.8116C252.388 21.593 253.129 23.8607 253.004 26.1651V38.1077H245.87V27.1244C245.941 26.1131 245.612 25.1145 244.956 24.3438C244.653 24.003 244.278 23.7339 243.859 23.556C243.44 23.3781 242.987 23.2958 242.532 23.3151C242.063 23.2919 241.594 23.372 241.158 23.5497C240.723 23.7274 240.331 23.9984 240.011 24.3438C239.365 25.1195 239.042 26.1157 239.111 27.1244V38.1077H231.977V17.7122H239.111V20.6318C239.753 19.6856 240.625 18.9198 241.646 18.4074C242.781 17.8088 244.048 17.5076 245.33 17.5315L245.385 17.4481ZM128.009 70.4179H118.909L117.524 74.5887H110.03L119.38 48.8407H127.608L136.86 74.7139H129.325L127.94 70.543L128.009 70.4179ZM126.167 64.9819L123.397 56.6402L120.627 64.9819H126.167ZM138.024 64.3979C137.976 62.4628 138.424 60.5478 139.326 58.8368C140.166 57.2964 141.431 56.0317 142.969 55.1943C144.628 54.3171 146.482 53.8771 148.357 53.9152C150.722 53.8335 153.039 54.5971 154.895 56.0701C156.718 57.5702 157.934 59.6856 158.316 62.0206H150.753C150.628 61.4397 150.305 60.9208 149.84 60.5529C149.375 60.185 148.797 59.9912 148.205 60.0047C147.78 59.9978 147.361 60.0987 146.985 60.298C146.61 60.4973 146.291 60.7885 146.058 61.1447C145.48 62.1211 145.214 63.2515 145.296 64.3841C145.219 65.5338 145.485 66.6805 146.058 67.679C146.345 68.0953 146.746 68.4194 147.213 68.6122C147.679 68.8051 148.192 68.8584 148.688 68.7658C149.184 68.6733 149.643 68.4388 150.009 68.0906C150.376 67.7424 150.634 67.2953 150.753 66.8031H158.316C157.923 69.1342 156.709 71.2461 154.895 72.7536C153.034 74.218 150.72 74.9807 148.357 74.9085C146.483 74.9407 144.63 74.5009 142.969 73.6294C141.427 72.7908 140.161 71.5205 139.326 69.973C138.428 68.2607 137.979 66.3466 138.024 64.4119V64.3979ZM160.186 64.3979C160.142 62.4834 160.525 60.5833 161.308 58.8368C162.003 57.3599 163.085 56.1007 164.438 55.1943C165.764 54.3404 167.31 53.8957 168.885 53.9152C170.145 53.8812 171.394 54.1682 172.514 54.7494C173.497 55.2704 174.317 56.0548 174.882 57.0155V54.1655H182.016V74.7139H174.882V71.7943C174.306 72.7564 173.477 73.5406 172.486 74.0604C171.374 74.6365 170.136 74.9233 168.885 74.8946C167.311 74.9077 165.766 74.4635 164.438 73.6155C163.081 72.7069 161.999 71.4422 161.308 69.9591C160.504 68.2076 160.097 66.2987 160.117 64.3701L160.186 64.3979ZM174.882 64.3979C174.913 63.8342 174.832 63.2699 174.645 62.7377C174.457 62.2055 174.166 61.7161 173.788 61.2976C173.456 60.9343 173.051 60.6461 172.6 60.4519C172.148 60.2578 171.661 60.1622 171.17 60.1715C170.673 60.1589 170.178 60.2528 169.719 60.4469C169.261 60.6411 168.849 60.9311 168.511 61.2976C167.77 62.1533 167.392 63.2661 167.458 64.3979C167.402 65.5409 167.778 66.663 168.511 67.54C168.846 67.9112 169.257 68.2052 169.716 68.402C170.175 68.5988 170.671 68.6936 171.17 68.68C171.662 68.6903 172.151 68.5938 172.603 68.397C173.055 68.2003 173.459 67.9079 173.788 67.54C174.161 67.1072 174.444 66.6037 174.62 66.0593C174.796 65.5148 174.862 64.9405 174.813 64.3701L174.882 64.3979ZM184.911 64.3979C184.866 62.4834 185.25 60.5833 186.033 58.8368C186.734 57.3515 187.832 56.0905 189.204 55.1943C190.495 54.336 192.006 53.8723 193.554 53.8596C194.773 53.8371 195.979 54.1241 197.058 54.6938C198.055 55.1969 198.894 55.9667 199.482 56.9182V47.5755H206.657V74.7139H199.482V71.7943C198.914 72.7482 198.101 73.531 197.127 74.0604C196.015 74.6365 194.777 74.9233 193.526 74.8946C191.952 74.9077 190.408 74.4635 189.08 73.6155C187.723 72.7069 186.64 71.4422 185.949 69.9591C185.173 68.2106 184.79 66.3119 184.827 64.3979H184.911ZM199.607 64.3979C199.638 63.8342 199.557 63.2699 199.369 62.7377C199.181 62.2055 198.89 61.7161 198.513 61.2976C198.182 60.9329 197.777 60.6437 197.325 60.4494C196.874 60.2551 196.386 60.1604 195.895 60.1715C195.397 60.1589 194.903 60.2528 194.444 60.4469C193.985 60.6411 193.573 60.9311 193.235 61.2976C192.494 62.1533 192.116 63.2661 192.182 64.3979C192.127 65.5409 192.503 66.663 193.235 67.54C193.57 67.9112 193.982 68.2052 194.441 68.402C194.9 68.5988 195.396 68.6936 195.895 68.68C196.387 68.6931 196.877 68.5979 197.329 68.4009C197.782 68.204 198.185 67.9102 198.513 67.54C198.886 67.1072 199.169 66.6037 199.345 66.0593C199.521 65.5148 199.586 64.9405 199.538 64.3701L199.607 64.3979ZM230.301 64.1894C230.298 64.7519 230.261 65.3137 230.19 65.8717H216.699C216.696 66.7905 217.015 67.6811 217.6 68.3881C218.168 68.9259 218.925 69.2158 219.705 69.1944C220.244 69.2218 220.777 69.0816 221.234 68.7929C221.69 68.5043 222.046 68.0813 222.254 67.5817H229.858C229.56 68.9809 228.923 70.2847 228.002 71.3772C227.078 72.4983 225.907 73.3884 224.581 73.977C223.138 74.6191 221.574 74.9415 219.996 74.9224C218.126 74.9528 216.279 74.5131 214.622 73.6434C213.074 72.7985 211.796 71.5307 210.937 69.9869C210.036 68.2757 209.588 66.3608 209.635 64.4258C209.579 62.4899 210.028 60.5729 210.937 58.8646C211.777 57.3242 213.042 56.0595 214.58 55.2221C216.203 54.3319 218.022 53.8635 219.871 53.8596C221.728 53.8239 223.564 54.2489 225.218 55.097C226.755 55.9033 228.022 57.1459 228.861 58.67C229.768 60.3392 230.222 62.2188 230.177 64.1199L230.301 64.1894ZM223.016 62.396C223.036 62.011 222.968 61.6264 222.816 61.2721C222.665 60.9177 222.435 60.603 222.143 60.3522C221.525 59.8697 220.765 59.6077 219.982 59.6077C219.199 59.6077 218.439 59.8697 217.821 60.3522C217.224 60.8968 216.836 61.6351 216.727 62.4377L223.016 62.396ZM224.401 49.0353L215.314 52.6084V47.7562L224.401 43.5854V49.0353ZM259.874 53.9986C260.988 53.9358 262.103 54.1116 263.144 54.5143C264.185 54.917 265.129 55.5374 265.913 56.3343C267.47 58.0859 268.272 60.3856 268.143 62.7296V74.6582H261.01V63.5916C261.038 63.1253 260.971 62.6581 260.814 62.2183C260.657 61.7786 260.413 61.3755 260.095 61.0335C259.407 60.4403 258.53 60.1142 257.623 60.1142C256.716 60.1142 255.839 60.4403 255.151 61.0335C254.833 61.3755 254.589 61.7786 254.432 62.2183C254.275 62.6581 254.208 63.1253 254.236 63.5916V74.5748H247.117V63.5916C247.145 63.1253 247.079 62.6581 246.921 62.2183C246.764 61.7786 246.52 61.3755 246.203 61.0335C245.883 60.7183 245.5 60.4738 245.08 60.3158C244.661 60.1577 244.212 60.0896 243.765 60.1159C243.307 60.0892 242.848 60.1569 242.417 60.3147C241.986 60.4725 241.591 60.7171 241.258 61.0335C240.941 61.3755 240.696 61.7786 240.539 62.2183C240.382 62.6581 240.315 63.1253 240.343 63.5916V74.5748H233.21V54.1515H240.343V56.8487C240.977 55.97 241.813 55.2591 242.781 54.7772C243.861 54.2244 245.06 53.9474 246.272 53.9708C247.67 53.9389 249.051 54.2795 250.275 54.9579C251.439 55.6071 252.398 56.5703 253.045 57.7385C253.778 56.6224 254.766 55.6978 255.926 55.0414C257.112 54.3352 258.468 53.9697 259.846 53.9847L259.874 53.9986ZM275.65 52.2747C274.54 52.3286 273.449 51.967 272.589 51.2598C272.227 50.9267 271.94 50.5201 271.747 50.0671C271.553 49.6141 271.458 49.1249 271.467 48.6321C271.455 48.1327 271.548 47.6364 271.742 47.1761C271.935 46.7158 272.224 46.3022 272.589 45.9628C273.438 45.2309 274.533 44.8528 275.65 44.9062C276.743 44.8512 277.813 45.2309 278.629 45.9628C279.004 46.2961 279.303 46.7076 279.504 47.1686C279.705 47.6296 279.803 48.129 279.792 48.6321C279.801 49.1288 279.701 49.6213 279.5 50.0752C279.299 50.5291 279.002 50.9334 278.629 51.2598C277.779 51.9735 276.686 52.3274 275.581 52.2469L275.65 52.2747ZM279.169 54.1794V74.7139H272.049V54.1515L279.169 54.1794ZM282.078 64.3979C282.029 62.4628 282.478 60.5478 283.38 58.8368C284.22 57.2964 285.484 56.0317 287.022 55.1943C288.678 54.3194 290.526 53.8794 292.397 53.9152C294.766 53.8338 297.087 54.5972 298.948 56.0701C300.772 57.5702 301.988 59.6856 302.37 62.0206H294.807C294.682 61.4397 294.359 60.9208 293.893 60.5529C293.428 60.185 292.85 59.9912 292.258 60.0047C291.833 59.9965 291.414 60.0969 291.038 60.2963C290.662 60.4957 290.344 60.7876 290.111 61.1447C289.534 62.1211 289.268 63.2515 289.349 64.3841C289.273 65.5338 289.538 66.6805 290.111 67.679C290.399 68.0953 290.8 68.4194 291.266 68.6122C291.733 68.8051 292.245 68.8584 292.741 68.7658C293.237 68.6733 293.696 68.4388 294.063 68.0906C294.429 67.7424 294.688 67.2953 294.807 66.8031H302.37C301.977 69.1342 300.763 71.2461 298.948 72.7536C297.084 74.2211 294.765 74.984 292.397 74.9085C290.527 74.9407 288.679 74.5009 287.022 73.6294C285.481 72.7908 284.215 71.5205 283.38 69.973C282.481 68.2607 282.033 66.3466 282.078 64.4119V64.3979ZM304.17 64.3979C304.126 62.4834 304.51 60.5833 305.292 58.8368C305.987 57.3599 307.069 56.1007 308.423 55.1943C309.743 54.34 311.285 53.8951 312.855 53.9152C314.12 53.8801 315.373 54.1671 316.498 54.7494C317.481 55.2704 318.301 56.0548 318.867 57.0155V54.1655H326V74.7139H318.867V71.7943C318.289 72.7597 317.454 73.5445 316.456 74.0604C315.346 74.6399 314.107 74.9269 312.855 74.8946C311.286 74.9074 309.746 74.4631 308.423 73.6155C307.066 72.7069 305.983 71.4422 305.292 69.9591C304.516 68.2106 304.133 66.3119 304.17 64.3979V64.3979ZM318.867 64.3979C318.898 63.8342 318.817 63.2699 318.629 62.7377C318.441 62.2055 318.15 61.7161 317.772 61.2976C317.44 60.9343 317.035 60.6461 316.584 60.4519C316.133 60.2578 315.645 60.1622 315.154 60.1715C314.657 60.1589 314.162 60.2528 313.704 60.4469C313.245 60.6411 312.833 60.9311 312.495 61.2976C311.749 62.1502 311.37 63.2653 311.442 64.3979C311.38 65.5419 311.756 66.6664 312.495 67.54C312.83 67.9112 313.241 68.2052 313.7 68.402C314.159 68.5988 314.655 68.6936 315.154 68.68C315.647 68.6903 316.136 68.5938 316.587 68.397C317.039 68.2003 317.443 67.9079 317.772 67.54C318.146 67.1072 318.429 66.6037 318.605 66.0593C318.781 65.5148 318.846 64.9405 318.797 64.3701L318.867 64.3979Z" fill="white"/>
</svg>
