<svg width="84" height="80" viewBox="0 0 84 80" fill="none" xmlns="http://www.w3.org/2000/svg">
<path d="M4.0816 3.06398C6.31409 1.0796 9.20027 -0.0112677 12.1872 0.000373643H64.2203C66.315 -0.0160337 68.3785 0.508173 70.2114 1.52233C72.0443 2.53648 73.5845 4.00627 74.6834 5.78968C75.7822 7.57309 76.4024 9.60981 76.484 11.703C76.5657 13.7961 76.106 15.8749 75.1494 17.7385C74.1013 19.7441 72.5279 21.4271 70.5972 22.6076C72.2008 23.5793 73.5596 24.9065 74.5687 26.4867C75.5778 28.067 76.2102 29.8581 76.4171 31.7216C76.5132 32.6243 76.6668 33.7672 75.8409 34.3914C75.6177 34.568 75.3546 34.6871 75.0746 34.7383C74.7946 34.7894 74.5064 34.771 74.2352 34.6848C73.964 34.5985 73.7181 34.4469 73.5192 34.2434C73.3202 34.0398 73.1743 33.7906 73.0942 33.5175C73.0358 32.5866 72.9041 31.6618 72.7005 30.7516C72.2182 28.9789 71.1836 27.4059 69.7468 26.261C68.31 25.116 66.5458 24.4587 64.7101 24.3843H11.8895C9.59708 24.3639 7.39051 25.255 5.75516 26.8616C4.1198 28.4681 3.18962 30.6585 3.16924 32.9509C3.14887 35.2432 4.03996 37.4498 5.6465 39.0852C7.25304 40.7205 9.44343 41.6507 11.7358 41.6711H25.9301C26.3585 41.6343 26.7861 41.75 27.1375 41.9978C27.489 42.2455 27.7416 42.6094 27.8509 43.0252C27.9111 43.2846 27.9125 43.5542 27.855 43.8142C27.7976 44.0743 27.6827 44.3182 27.5188 44.5281C27.3549 44.738 27.1462 44.9086 26.9079 45.0274C26.6696 45.1463 26.4077 45.2103 26.1414 45.2149C21.4068 45.2149 16.6817 45.2149 11.9567 45.2149C10.5021 45.2474 9.07934 45.6465 7.82014 46.3753C6.56094 47.1041 5.50608 48.139 4.75332 49.384C4.00055 50.6291 3.57425 52.044 3.51391 53.4976C3.45357 54.9513 3.76113 56.3966 4.40812 57.6997C4.97831 58.86 5.79856 59.8795 6.80985 60.6849C7.82115 61.4903 8.99836 62.0615 10.2568 62.3576C11.3783 62.5575 12.519 62.6284 13.6565 62.5689H32.9217C33.3827 62.5689 33.8248 62.752 34.1508 63.078C34.4768 63.404 34.66 63.8461 34.66 64.3071C34.66 64.7682 34.4768 65.2103 34.1508 65.5363C33.8248 65.8623 33.3827 66.0454 32.9217 66.0454H12.0335C8.93843 66.0039 5.97454 64.7889 3.7408 62.6461C1.50706 60.5033 0.170063 57.5924 0 54.5017V53.1956C0.133424 51.2219 0.738607 49.3092 1.7647 47.6179C2.79079 45.9267 4.20782 44.5065 5.89671 43.4766C4.1901 42.436 2.76181 40.9964 1.73464 39.2817C0.707483 37.567 0.112202 35.6284 0 33.6327V32.3266C0.160007 29.9275 1.01792 27.6275 2.46817 25.7096C3.4112 24.4777 4.56954 23.4267 5.8871 22.6076C4.18394 21.564 2.75883 20.1236 1.73362 18.4093C0.708402 16.695 0.113579 14.758 0 12.7637V11.4577C0.210249 8.23358 1.67553 5.22028 4.0816 3.06398V3.06398ZM10.9099 3.57297C8.89274 3.85477 7.03992 4.83982 5.67821 6.35439C4.31649 7.86897 3.53336 9.81578 3.46696 11.8514C3.4213 13.0226 3.6143 14.1908 4.03424 15.285C4.45418 16.3793 5.09227 17.3766 5.90974 18.2166C6.7272 19.0565 7.70694 19.7214 8.7894 20.1708C9.87185 20.6203 11.0344 20.8448 12.2064 20.8309H64.3452C65.598 20.8379 66.837 20.5687 67.974 20.0425C69.111 19.5163 70.1182 18.7461 70.9238 17.7865C71.9965 16.5143 72.6819 14.9612 72.8987 13.3113C73.1155 11.6615 72.8547 9.98401 72.1471 8.47787C71.4395 6.97173 70.3149 5.70009 68.9065 4.81371C67.4981 3.92734 65.8652 3.4634 64.2011 3.47693H13.3012C12.5028 3.45316 11.7038 3.48526 10.9099 3.57297V3.57297Z" fill="#124093"/>
<path d="M15.0107 6.99187C16.0468 6.86911 17.0959 7.05997 18.0224 7.53979C18.9489 8.0196 19.7101 8.76629 20.2078 9.68334C20.7054 10.6004 20.9165 11.6456 20.8137 12.6839C20.711 13.7222 20.2992 14.7058 19.6315 15.5076C18.9639 16.3093 18.071 16.8924 17.0685 17.1814C16.066 17.4703 14.9998 17.4519 14.0078 17.1285C13.0158 16.8051 12.1437 16.1915 11.5041 15.3672C10.8645 14.5429 10.4869 13.5456 10.4201 12.5044C10.344 11.1748 10.7757 9.86596 11.6279 8.84257C12.4802 7.81919 13.6893 7.15768 15.0107 6.99187ZM14.8762 10.6125C14.5691 10.758 14.3114 10.9903 14.135 11.2807C13.9585 11.5711 13.871 11.9068 13.8833 12.2464C13.8956 12.586 14.0072 12.9145 14.2043 13.1914C14.4013 13.4682 14.6752 13.6812 14.992 13.8041C15.3088 13.9269 15.6547 13.9542 15.9869 13.8826C16.3191 13.811 16.623 13.6435 16.861 13.401C17.099 13.1585 17.2608 12.8516 17.3262 12.5181C17.3916 12.1846 17.3579 11.8393 17.2292 11.5248C17.1386 11.3072 17.0049 11.1101 16.8362 10.9454C16.6674 10.7808 16.4671 10.6519 16.2473 10.5667C16.0275 10.4815 15.7927 10.4416 15.5571 10.4495C15.3215 10.4573 15.0899 10.5128 14.8762 10.6125V10.6125Z" fill="#124093"/>
<path d="M31.9998 7.05908C33.0672 6.84656 34.1745 6.97336 35.1662 7.42174C36.158 7.87012 36.9847 8.61758 37.5303 9.55937C38.0759 10.5012 38.3132 11.5901 38.2088 12.6735C38.1045 13.7569 37.6637 14.7805 36.9484 15.6009C36.2331 16.4212 35.279 16.9971 34.2198 17.248C33.1607 17.4988 32.0496 17.412 31.0423 16.9997C30.0351 16.5873 29.182 15.8701 28.6028 14.9486C28.0236 14.0271 27.7473 12.9474 27.8125 11.861C27.8848 10.7114 28.3343 9.61769 29.0914 8.74953C29.8484 7.88136 30.8707 7.28718 31.9998 7.05908V7.05908ZM32.6528 10.4972C32.3513 10.5602 32.072 10.7021 31.8433 10.9085C31.6147 11.1148 31.445 11.3783 31.3516 11.6718C31.2582 11.9653 31.2445 12.2783 31.3119 12.5789C31.3792 12.8794 31.5252 13.1567 31.7349 13.3823C31.9446 13.6079 32.2104 13.7737 32.5053 13.8628C32.8001 13.9519 33.1133 13.961 33.4129 13.8893C33.7124 13.8176 33.9875 13.6676 34.21 13.4546C34.4325 13.2416 34.5944 12.9734 34.6792 12.6773C34.7587 12.3897 34.7633 12.0865 34.6926 11.7967C34.6218 11.5068 34.4779 11.2399 34.2748 11.0214C34.0717 10.8028 33.816 10.6399 33.532 10.5481C33.2481 10.4564 32.9454 10.4389 32.6528 10.4972Z" fill="#124093"/>
<path d="M15.0011 27.8608C16.1522 27.7254 17.3157 27.9774 18.3077 28.577C19.2997 29.1765 20.0636 30.0894 20.4789 31.1716C20.8942 32.2537 20.9371 33.4434 20.6009 34.5526C20.2647 35.6619 19.5685 36.6275 18.6223 37.297C17.6761 37.9665 16.5339 38.3016 15.3759 38.2496C14.218 38.1975 13.1105 37.7611 12.2282 37.0093C11.3459 36.2576 10.7393 35.2334 10.504 34.0984C10.2687 32.9634 10.4183 31.7824 10.9291 30.742C11.3152 29.9614 11.8896 29.2892 12.6005 28.7862C13.3115 28.2832 14.1365 27.9652 15.0011 27.8608V27.8608ZM14.857 31.4815C14.5532 31.6274 14.2984 31.8585 14.1236 32.1467C13.9487 32.4348 13.8615 32.7676 13.8723 33.1044C13.8832 33.4413 13.9918 33.7677 14.1848 34.044C14.3779 34.3203 14.6471 34.5344 14.9596 34.6605C15.2722 34.7865 15.6147 34.819 15.9454 34.7539C16.2761 34.6888 16.5807 34.529 16.8222 34.2939C17.0637 34.0588 17.2317 33.7586 17.3056 33.4297C17.3796 33.1009 17.3563 32.7577 17.2387 32.4418C17.1532 32.2163 17.022 32.0109 16.8532 31.8385C16.6844 31.6662 16.4818 31.5306 16.258 31.4404C16.0343 31.3502 15.7944 31.3073 15.5532 31.3144C15.3121 31.3214 15.0751 31.3783 14.857 31.4815V31.4815Z" fill="#124093"/>
<path d="M32.0094 27.9281C33.2404 27.6868 34.5171 27.8981 35.6047 28.5233C36.6923 29.1485 37.5175 30.1453 37.9286 31.3305C38.3396 32.5157 38.3088 33.8095 37.8418 34.9738C37.3748 36.1381 36.5031 37.0946 35.387 37.6673C34.2709 38.24 32.9855 38.3903 31.7674 38.0907C30.5492 37.791 29.4803 37.0616 28.7572 36.0365C28.0341 35.0114 27.7055 33.7597 27.8319 32.5116C27.9583 31.2635 28.5312 30.1031 29.4452 29.2438C30.1599 28.5739 31.0484 28.118 32.0094 27.9281V27.9281ZM32.6624 31.347C32.3614 31.4091 32.0822 31.5499 31.8533 31.755C31.6244 31.9602 31.454 32.2223 31.3594 32.5148C31.2649 32.8073 31.2496 33.1196 31.3151 33.4199C31.3806 33.7202 31.5245 33.9978 31.7323 34.2243C31.94 34.4509 32.2041 34.6183 32.4977 34.7095C32.7912 34.8007 33.1037 34.8124 33.4032 34.7435C33.7028 34.6746 33.9787 34.5275 34.2028 34.3172C34.427 34.1068 34.5914 33.8408 34.6792 33.5463C34.7629 33.2575 34.7706 32.952 34.7017 32.6593C34.6327 32.3667 34.4895 32.0967 34.2858 31.8756C34.082 31.6545 33.8247 31.4897 33.5386 31.3971C33.2526 31.3045 32.9475 31.2872 32.6528 31.347H32.6624Z" fill="#124093"/>
<path d="M35.1978 41.3925C36.1434 40.6755 37.3113 40.3142 38.4967 40.3722C39.682 40.4301 40.8091 40.9036 41.6803 41.7094C43.7355 43.7358 45.7715 45.791 47.8075 47.8366C48.3955 46.6989 49.3843 45.8195 50.583 45.3685C51.6326 44.9898 52.7745 44.9495 53.8483 45.2532C54.129 44.4809 54.5922 43.7879 55.1984 43.2332C55.8046 42.6784 56.5359 42.2784 57.33 42.0672C58.1241 41.8559 58.9575 41.8397 59.7592 42.0198C60.5609 42.2 61.3073 42.5713 61.9346 43.102C62.3031 42.3897 62.8327 41.7731 63.4812 41.3013C64.1297 40.8295 64.8793 40.5155 65.6705 40.3841C66.4706 40.2544 67.2902 40.3183 68.0606 40.5707C68.8309 40.823 69.5295 41.2563 70.0978 41.8343C73.2991 45.0355 76.4779 48.2176 79.6343 51.3804C81.9056 53.6405 83.2719 56.6533 83.4759 59.8509V61.1762C83.196 64.3928 81.9883 67.4588 79.9993 70.0021C78.641 71.6772 77.1681 73.2561 75.5912 74.7272C74.4813 75.9548 73.2452 77.0622 71.9033 78.0309C69.5183 79.52 66.7142 80.194 63.913 79.9516C60.2326 79.5792 56.6519 78.5342 53.3489 76.8688C50.9581 75.6146 48.3509 74.826 45.6659 74.5447C44.4608 74.604 43.2529 74.5623 42.0548 74.4198C41.2696 74.2518 40.5616 73.8295 40.0408 73.2184C39.5199 72.6072 39.2151 71.8413 39.1737 71.0393C39.1737 69.1186 40.4222 67.4475 41.7283 66.1318C43.7422 64.3207 46.3777 63.3574 49.0848 63.4427C44.3213 58.6665 39.5547 53.8998 34.7848 49.1427C34.241 48.6212 33.8152 47.9892 33.5363 47.2892C33.1339 46.2594 33.0784 45.1264 33.3782 44.0623C33.6781 42.9981 34.3169 42.0607 35.1978 41.3925V41.3925ZM36.936 44.5521C36.7166 44.8769 36.6228 45.2704 36.6723 45.6592C36.7218 46.048 36.9111 46.4056 37.2049 46.665L55.0583 64.528C55.3361 64.79 55.5198 65.1362 55.5812 65.5131C55.6425 65.89 55.578 66.2766 55.3977 66.6132C55.2174 66.9498 54.9313 67.2177 54.5835 67.3754C54.2358 67.5331 53.8457 67.572 53.4737 67.4859C51.0682 66.7631 48.5067 66.7398 46.0884 67.4187C44.8255 67.8965 43.7554 68.7776 43.044 69.9253C42.7883 70.2489 42.6435 70.6462 42.6311 71.0585C43.7355 71.1546 44.8495 70.9817 45.9636 71.0585C48.9762 71.3644 51.9065 72.2239 54.607 73.5939C57.8434 75.0825 61.2623 76.4751 64.8638 76.4751C67.1874 76.5612 69.4524 75.7338 71.1734 74.1701C72.6908 72.6911 74.1794 71.1834 75.668 69.6852C77.9633 67.2458 79.8168 64.1438 79.9801 60.7249C80.0195 59.4386 79.7915 58.1582 79.3104 56.9646C78.8294 55.771 78.1058 54.6904 77.1854 53.7909C74.0418 50.6281 70.8917 47.4781 67.7353 44.3409C67.5468 44.1157 67.3008 43.9458 67.0234 43.8494C66.7461 43.753 66.4478 43.7337 66.1603 43.7935C65.7673 43.8791 65.4209 44.1093 65.1896 44.4384C64.9584 44.7674 64.8592 45.1714 64.9118 45.5701C64.979 46.2232 65.536 46.6458 65.9586 47.0779C66.554 47.683 67.1687 48.2592 67.7545 48.8834C68.0328 49.2176 68.1757 49.6439 68.155 50.0783C68.1344 50.5126 67.9517 50.9235 67.643 51.2297C67.3343 51.536 66.9221 51.7155 66.4876 51.7327C66.0531 51.7499 65.6279 51.6037 65.2959 51.3228C63.4328 49.4981 61.6081 47.6254 59.745 45.8006C59.4482 45.5026 59.0453 45.3347 58.6247 45.3338C58.2042 45.3329 57.8005 45.4991 57.5025 45.7958C57.2045 46.0926 57.0366 46.4955 57.0357 46.9161C57.0348 47.3366 57.201 47.7403 57.4977 48.0383C58.8134 49.3924 60.1771 50.6985 61.4832 52.0527C61.7965 52.3889 61.9634 52.8358 61.9472 53.2951C61.931 53.7543 61.733 54.1884 61.3968 54.5016C61.0606 54.8149 60.6137 54.9818 60.1544 54.9656C59.6952 54.9494 59.2611 54.7514 58.9478 54.4152C57.1135 52.6097 55.308 50.7658 53.4737 48.9507C53.17 48.6754 52.772 48.5277 52.3623 48.5382C51.9526 48.5487 51.5626 48.7166 51.2734 49.007C50.9842 49.2975 50.818 49.6881 50.8092 50.0979C50.8005 50.5077 50.9499 50.9051 51.2264 51.2076C52.5229 52.5233 53.8483 53.8102 55.1352 55.1259C55.3124 55.2834 55.4556 55.4756 55.5558 55.6905C55.656 55.9055 55.7112 56.1387 55.7179 56.3757C55.7247 56.6128 55.6828 56.8487 55.595 57.069C55.5071 57.2893 55.3751 57.4893 55.2071 57.6567C55.0391 57.8241 54.8386 57.9553 54.6179 58.0423C54.3973 58.1293 54.1612 58.1702 53.9242 58.1625C53.6871 58.1548 53.4542 58.0988 53.2396 57.9977C53.0251 57.8966 52.8335 57.7527 52.6766 57.5748C48.2493 53.1667 43.8315 48.7298 39.4042 44.312C39.2376 44.1425 39.0351 44.0123 38.8116 43.9311C38.5882 43.8499 38.3494 43.8197 38.1128 43.8427C37.8762 43.8657 37.6477 43.9414 37.4441 44.0642C37.2404 44.1869 37.0669 44.3536 36.936 44.5521V44.5521Z" fill="#124093"/>
<path d="M14.9915 48.7298C16.1452 48.5906 17.3123 48.84 18.3084 49.4386C19.3044 50.0372 20.0724 50.9508 20.491 52.0348C20.9095 53.1189 20.9547 54.3115 20.6194 55.4242C20.2841 56.5368 19.5874 57.5059 18.6395 58.1781C17.6917 58.8504 16.5467 59.1874 15.3858 59.136C14.2249 59.0845 13.1143 58.6474 12.2296 57.894C11.345 57.1405 10.7368 56.1135 10.5012 54.9756C10.2657 53.8377 10.4162 52.6537 10.9291 51.6109C11.315 50.8321 11.8882 50.1612 12.5972 49.6583C13.3061 49.1555 14.1288 48.8365 14.9915 48.7298V48.7298ZM14.8762 52.3504C14.5733 52.4943 14.3187 52.7233 14.1436 53.0093C13.9685 53.2954 13.8804 53.6262 13.89 53.9614C13.8996 54.2967 14.0065 54.6219 14.1978 54.8975C14.389 55.173 14.6563 55.387 14.967 55.5133C15.2777 55.6396 15.6184 55.6728 15.9477 55.6088C16.2769 55.5448 16.5804 55.3865 16.8212 55.153C17.062 54.9195 17.2297 54.6211 17.3039 54.294C17.378 53.9669 17.3554 53.6252 17.2388 53.3108C17.1541 53.0868 17.0242 52.8827 16.857 52.7113C16.6898 52.5399 16.489 52.4049 16.2672 52.3147C16.0454 52.2245 15.8074 52.1812 15.568 52.1873C15.3286 52.1934 15.0931 52.249 14.8762 52.3504V52.3504Z" fill="#124093"/>
</svg>
