<svg width="80" height="80" viewBox="0 0 80 80" fill="none" xmlns="http://www.w3.org/2000/svg">
<path d="M3.65962 0H20.3621C21.3956 0.0969923 22.3516 0.589439 23.0304 1.37443C23.7091 2.15943 24.0581 3.17623 24.0043 4.21235C24.0043 9.52546 24.0043 14.8472 24.0043 20.1603C23.9618 21.1627 23.5443 22.1127 22.8345 22.8221C22.1246 23.5315 21.1742 23.9488 20.1713 23.9913C14.7541 23.9913 9.33405 23.9913 3.91111 23.9913C2.93325 23.9598 1.99955 23.577 1.28119 22.9131C0.562831 22.2493 0.107966 21.3489 0 20.377V3.59696C0.111181 2.67137 0.534027 1.8111 1.19907 1.15745C1.86411 0.503791 2.7318 0.0956243 3.65962 0ZM3.78103 2.6869C3.46186 2.74105 3.17297 2.9085 2.96745 3.1585C2.76193 3.40849 2.65359 3.72423 2.66234 4.04767C2.66234 9.36944 2.66234 14.6912 2.66234 20.013C2.6634 20.1901 2.69995 20.3652 2.76984 20.528C2.83973 20.6908 2.94153 20.8379 3.06925 20.9607C3.19697 21.0835 3.34801 21.1795 3.51345 21.243C3.6789 21.3065 3.85539 21.3362 4.03251 21.3304H19.8504C20.0361 21.3485 20.2235 21.3277 20.4007 21.2694C20.5779 21.2111 20.7411 21.1166 20.8797 20.9919C21.0184 20.8671 21.1296 20.7149 21.2062 20.5449C21.2828 20.3749 21.3231 20.1908 21.3247 20.0043C21.3247 14.7346 21.3247 9.47346 21.3247 4.20369C21.3476 3.96763 21.3121 3.72956 21.2214 3.51041C21.1307 3.29127 20.9875 3.09775 20.8043 2.94691C20.3718 2.68855 19.8633 2.58752 19.3648 2.66089C14.1789 2.6869 8.97561 2.62622 3.78103 2.6869V2.6869Z" fill="#124093"/>
<path d="M31.6531 0H48.3642C49.3421 0.0943169 50.2521 0.541411 50.924 1.25767C51.596 1.97392 51.9839 2.9103 52.0152 3.89166C52.0152 9.26544 52.0152 14.6392 52.0152 20.013C52.009 20.8484 51.7426 21.6612 51.2531 22.3385C50.7635 23.0157 50.0751 23.5237 49.2835 23.792C48.5539 23.9824 47.7982 24.0526 47.0461 24C41.9903 24 36.9344 24 31.8786 24C30.8696 23.9637 29.9116 23.548 29.1961 22.8361C28.4806 22.1242 28.0604 21.1686 28.0195 20.1603C28.0195 14.7519 28.0195 9.33478 28.0195 3.91766C28.0478 2.93559 28.4317 1.99713 29.1 1.27661C29.7682 0.556082 30.6755 0.102461 31.6531 0V0ZM31.7485 2.69556C31.4373 2.75742 31.1585 2.92871 30.9628 3.17836C30.7671 3.42802 30.6675 3.73952 30.6819 4.05634C30.6819 9.37812 30.6819 14.697 30.6819 20.013C30.6841 20.1883 30.7209 20.3614 30.7901 20.5225C30.8593 20.6836 30.9596 20.8294 31.0852 20.9518C31.2109 21.0741 31.3594 21.1705 31.5223 21.2355C31.6852 21.3005 31.8593 21.3327 32.0347 21.3304H48C48.188 21.3299 48.3738 21.2905 48.5457 21.2146C48.7177 21.1387 48.8721 21.0281 48.9992 20.8897C49.1262 20.7513 49.2233 20.5881 49.2842 20.4104C49.345 20.2326 49.3684 20.0442 49.3528 19.857C49.3528 14.5872 49.3528 9.32034 49.3528 4.05634C49.3587 3.87558 49.328 3.69549 49.2625 3.52688C49.197 3.35827 49.0981 3.20461 48.9718 3.07511C48.8455 2.94562 48.6943 2.84294 48.5273 2.77326C48.3603 2.70357 48.181 2.6683 48 2.66956C42.9962 2.66956 37.9837 2.66956 32.98 2.66956C32.5693 2.65657 32.1583 2.66525 31.7485 2.69556V2.69556Z" fill="#124093"/>
<path d="M59.6466 0H76.4097C77.3362 0.111802 78.1968 0.535992 78.8495 1.20254C79.5022 1.8691 79.908 2.73816 80 3.6663V20.3597C79.8996 21.3346 79.4488 22.2401 78.7311 22.908C78.0134 23.5759 77.0777 23.9608 76.0975 23.9913C70.7208 23.9913 65.3499 23.9913 59.9848 23.9913C59.2859 23.9956 58.598 23.817 57.9895 23.4734C57.3809 23.1298 56.8729 22.633 56.5159 22.0325C56.1071 21.3227 55.9114 20.5103 55.9523 19.6923C55.9523 14.4225 55.9523 9.16143 55.9523 3.90032C55.9864 2.91182 56.3807 1.96984 57.061 1.25156C57.7414 0.533272 58.6609 0.0881766 59.6466 0ZM59.7419 2.70422C59.437 2.76921 59.1647 2.93949 58.9728 3.18516C58.7809 3.43083 58.6817 3.7362 58.6926 4.04767C58.6926 9.36944 58.6926 14.6912 58.6926 20.013C58.6967 20.1975 58.7386 20.3792 58.8156 20.547C58.8926 20.7147 59.0032 20.8649 59.1405 20.9884C59.2778 21.1118 59.4389 21.2058 59.6139 21.2646C59.789 21.3235 59.9742 21.3459 60.1582 21.3304H75.9761C76.1533 21.335 76.3297 21.3046 76.4952 21.2407C76.6606 21.1769 76.8117 21.081 76.9399 20.9585C77.068 20.8361 77.1707 20.6895 77.242 20.5272C77.3132 20.3649 77.3516 20.1902 77.355 20.013C77.355 14.6912 77.355 9.37234 77.355 4.05634C77.3623 3.87227 77.3314 3.68866 77.2643 3.51709C77.1971 3.34553 77.0952 3.18972 76.9649 3.05945C76.8345 2.92919 76.6786 2.82729 76.507 2.76019C76.3353 2.69309 76.1516 2.66223 75.9674 2.66956H60.9647C60.5568 2.65514 60.1484 2.66672 59.7419 2.70422V2.70422Z" fill="#124093"/>
<path d="M14.7773 7.46272C14.8799 7.27229 15.0233 7.1068 15.1972 6.97797C15.371 6.84915 15.5711 6.76015 15.7833 6.71732C16.1338 6.66229 16.4919 6.74805 16.7795 6.95588C17.067 7.16372 17.2607 7.47677 17.3182 7.82675C17.3401 8.03698 17.3199 8.24945 17.2588 8.45181C17.1978 8.65417 17.0971 8.84238 16.9627 9.00551C15.2282 11.6057 13.4938 14.2059 11.7594 16.8062C11.6498 16.9627 11.5077 17.0938 11.3427 17.1904C11.1777 17.287 10.9938 17.3468 10.8036 17.3657C10.6133 17.3846 10.4213 17.3622 10.2405 17.3001C10.0597 17.2379 9.89447 17.1374 9.75615 17.0055C8.88894 16.1388 8.02174 15.272 7.15453 14.4053C6.95714 14.2323 6.81257 14.0071 6.73741 13.7557C6.66225 13.5043 6.65953 13.2367 6.72959 12.9838C6.79919 12.7607 6.92587 12.5595 7.09708 12.4002C7.2683 12.241 7.47813 12.1291 7.70585 12.0757C7.93356 12.0223 8.17127 12.0292 8.39549 12.0958C8.61971 12.1623 8.82268 12.2862 8.98434 12.4551C9.47865 12.9405 9.95561 13.4345 10.4499 13.9199C11.8982 11.7444 13.3464 9.5949 14.7773 7.46272Z" fill="#124093"/>
<path d="M34.7837 7.46265C34.908 7.19288 35.1188 6.97223 35.3827 6.83565C35.6466 6.69907 35.9485 6.65437 36.2406 6.7086C36.6196 6.80921 36.9568 7.02778 37.2032 7.33265C38.1225 8.26006 39.0591 9.17879 39.9783 10.1149C41.0276 9.08345 42.0509 8.02604 43.1003 7.00328C43.2255 6.88206 43.3735 6.78669 43.5356 6.72261C43.6978 6.65854 43.871 6.627 44.0453 6.62981C44.2196 6.63263 44.3917 6.66974 44.5517 6.73903C44.7117 6.80831 44.8565 6.90842 44.9778 7.03362C45.0991 7.15883 45.1945 7.30668 45.2586 7.46874C45.3227 7.6308 45.3542 7.80389 45.3514 7.97814C45.3486 8.15239 45.3115 8.32438 45.2422 8.48429C45.1728 8.64419 45.0727 8.78889 44.9474 8.91011C43.9328 9.95019 42.8921 10.9643 41.8688 11.9957C42.8574 12.9924 43.8634 13.9805 44.852 14.9773C45.0454 15.1544 45.1835 15.3836 45.2496 15.6373C45.3158 15.891 45.3072 16.1585 45.2249 16.4074C45.1504 16.6192 45.0237 16.8087 44.8565 16.9586C44.6893 17.1085 44.487 17.2137 44.2683 17.2647C44.0496 17.3157 43.8215 17.3107 43.6052 17.2502C43.3889 17.1898 43.1914 17.0758 43.0309 16.9188C42.0076 15.922 41.0016 14.8906 39.9783 13.8852C38.9897 14.8646 38.0097 15.8614 37.0125 16.8494C36.8751 17.0048 36.7053 17.128 36.5149 17.2104C36.3246 17.2928 36.1184 17.3323 35.9111 17.3261C35.5607 17.306 35.232 17.1496 34.9954 16.8905C34.7589 16.6313 34.6331 16.29 34.645 15.9394C34.6627 15.7385 34.7202 15.5432 34.8139 15.3646C34.9077 15.1861 35.036 15.0279 35.1913 14.8993L38.0965 11.9957C37.0992 10.9816 36.0845 9.99353 35.0786 8.97945C34.877 8.78912 34.7402 8.54047 34.6873 8.26841C34.6344 7.99635 34.6681 7.71457 34.7837 7.46265V7.46265Z" fill="#124093"/>
<path d="M70.9203 7.28064C71.0228 7.12439 71.157 6.99139 71.3142 6.89024C71.4714 6.78909 71.6481 6.72205 71.8328 6.69346C72.0175 6.66486 72.2062 6.67535 72.3866 6.72425C72.5671 6.77314 72.7352 6.85934 72.8802 6.97729C73.1468 7.20048 73.3171 7.51767 73.3558 7.86304C73.3946 8.20842 73.2988 8.55545 73.0884 8.83211C71.3539 11.4323 69.6195 14.0932 67.8244 16.7108C67.7215 16.8717 67.5852 17.0088 67.4247 17.1126C67.2643 17.2164 67.0834 17.2846 66.8943 17.3125C66.7052 17.3404 66.5123 17.3275 66.3287 17.2745C66.1451 17.2215 65.9749 17.1298 65.8298 17.0054C64.9626 16.1387 64.0954 15.272 63.1761 14.4052C62.9452 14.2026 62.7901 13.9274 62.7365 13.6249C62.6829 13.3224 62.734 13.0107 62.8813 12.7411C62.9764 12.5717 63.1076 12.4252 63.2656 12.312C63.4236 12.1988 63.6046 12.1218 63.7957 12.0862C63.9868 12.0506 64.1834 12.0575 64.3715 12.1063C64.5597 12.155 64.7348 12.2445 64.8845 12.3684C65.4482 12.8711 65.9512 13.4258 66.4889 13.9459C67.9718 11.701 69.4721 9.48215 70.9203 7.28064Z" fill="#124093"/>
<path d="M32.0173 31.2547C32.038 30.1029 32.4829 28.9993 33.2669 28.1549C34.0509 27.3105 35.119 26.7848 36.2666 26.6783C36.8997 26.6397 37.5341 26.7272 38.133 26.9358C38.7319 27.1443 39.2834 27.4697 39.7554 27.8931C40.2274 28.3164 40.6105 28.8294 40.8825 29.402C41.1545 29.9746 41.3099 30.5955 41.3398 31.2287C41.3398 35.1897 41.3398 39.142 41.3398 43.103C42.388 42.6234 43.5754 42.5433 44.6785 42.8777C45.3885 43.1114 46.0352 43.5048 46.569 44.0278C47.1027 44.5507 47.5092 45.1892 47.7571 45.8939C48.7829 45.3463 49.9744 45.1951 51.1046 45.4692C51.8679 45.6768 52.5692 46.067 53.1478 46.6061C53.7265 47.1452 54.1652 47.817 54.426 48.5635C55.4159 48.0324 56.5632 47.8725 57.6607 48.1128C58.6868 48.3639 59.6026 48.9438 60.268 49.7638C60.9335 50.5839 61.3122 51.5991 61.3463 52.6545C61.3463 57.6036 61.3463 62.5526 61.3463 67.5017C61.3714 68.5531 61.2694 69.6037 61.0428 70.6306C60.3883 73.5291 58.6829 76.0826 56.2558 77.7986C54.3534 79.1338 52.1087 79.8976 49.7864 80.0001H40.7327C38.156 79.8397 35.6952 78.8723 33.6997 77.2352C31.9653 75.7357 30.2308 74.2189 28.4964 72.7108C27.5086 71.8431 26.7146 70.7773 26.1663 69.5826C25.6179 68.3879 25.3275 67.0912 25.3138 65.7769V56.0868C25.3053 55.2047 25.471 54.3296 25.8014 53.5116C26.1317 52.6936 26.6202 51.9488 27.239 51.3197C28.4969 50.0573 30.2001 49.3384 31.9826 49.3175C32.0173 43.2937 31.9999 37.2785 32.0173 31.2547ZM35.0439 30.1886C34.6984 30.8487 34.5709 31.6011 34.6796 32.3381V62.5006C34.7101 62.8374 34.6156 63.1737 34.4141 63.4454C34.2126 63.7171 33.9182 63.9053 33.5869 63.9741C33.3945 64.0083 33.1968 64 33.008 63.9495C32.8191 63.8991 32.6436 63.8078 32.4939 63.6821C32.3442 63.5565 32.224 63.3995 32.1416 63.2223C32.0592 63.0451 32.0168 62.852 32.0173 62.6566C32.0173 59.103 32.0173 55.5407 32.0173 51.9871C30.9981 51.9981 30.0207 52.3936 29.2809 53.0944C28.5412 53.7952 28.0937 54.7495 28.0281 55.7661C28.0281 59.051 28.0281 62.3359 28.0281 65.6295C28.0206 66.5831 28.2171 67.5273 28.6045 68.3988C28.9919 69.2703 29.5612 70.049 30.2742 70.6826C31.9046 72.1301 33.5522 73.5515 35.1913 75.0163C36.8691 76.4977 39.0232 77.3281 41.2617 77.3565C43.8634 77.3565 46.465 77.3565 49.0666 77.3565C50.3332 77.3839 51.5923 77.1569 52.7696 76.6891C54.1384 76.1465 55.3594 75.2881 56.333 74.184C57.3066 73.0799 58.0052 71.7613 58.3718 70.336C58.6677 68.8443 58.7697 67.3207 58.6753 65.8029C58.6753 61.4692 58.6753 57.1355 58.6753 52.8018C58.6766 52.4652 58.5989 52.1329 58.4483 51.8319C58.2976 51.5308 58.0783 51.2692 57.8081 51.0683C57.5955 50.9066 57.3519 50.7902 57.0924 50.7264C56.833 50.6626 56.5631 50.6528 56.2997 50.6975C56.0363 50.7422 55.7849 50.8404 55.561 50.9862C55.3371 51.132 55.1456 51.3222 54.9983 51.545C54.53 52.1171 54.8249 52.9752 54.3219 53.5299C54.1675 53.7027 53.9708 53.8324 53.751 53.9063C53.5312 53.9801 53.296 53.9954 53.0685 53.9508C52.841 53.9062 52.6291 53.8032 52.4535 53.6519C52.2779 53.5006 52.1448 53.3062 52.0671 53.0878C51.859 51.9524 52.0671 50.7736 51.9284 49.6209C51.866 49.3233 51.7375 49.0435 51.5523 48.8022C51.3672 48.5609 51.1301 48.3643 50.8586 48.227C50.5872 48.0897 50.2883 48.0151 49.9841 48.0089C49.6799 48.0026 49.3782 48.0648 49.1013 48.1908C48.7709 48.3597 48.4925 48.6149 48.2955 48.9293C48.0985 49.2436 47.9904 49.6054 47.9826 49.9763C47.9455 50.2829 47.8024 50.5671 47.578 50.7795C47.3536 50.992 47.0621 51.1196 46.7536 51.1401C46.4452 51.1607 46.1393 51.073 45.8887 50.8921C45.6381 50.7113 45.4585 50.4487 45.381 50.1496C45.3116 49.1528 45.381 48.1561 45.3289 47.1594C45.2749 46.7105 45.0767 46.2912 44.7639 45.9646C44.4512 45.638 44.0408 45.4216 43.5945 45.3479C43.3226 45.3077 43.0452 45.3246 42.7802 45.3976C42.5151 45.4706 42.2682 45.598 42.0552 45.7717C41.8422 45.9455 41.6678 46.1617 41.5431 46.4066C41.4184 46.6515 41.3462 46.9197 41.3311 47.194C41.3393 47.465 41.2703 47.7327 41.1321 47.9659C40.9939 48.1992 40.7923 48.3884 40.5506 48.5115C40.351 48.5977 40.1334 48.6339 39.9167 48.6169C39.7 48.6 39.4906 48.5304 39.3069 48.4143C39.1231 48.2981 38.9706 48.1389 38.8624 47.9504C38.7542 47.7619 38.6937 47.5499 38.6861 47.3327C38.6861 42.0629 38.6861 36.8018 38.6861 31.5321C38.7065 31.1207 38.6077 30.7121 38.4016 30.3555C38.1955 29.9988 37.8908 29.7091 37.5241 29.5212C37.0999 29.3136 36.6147 29.2668 36.1586 29.3895C35.7025 29.5122 35.3064 29.7962 35.0439 30.1886V30.1886Z" fill="#124093"/>
</svg>
